<svg xmlns="http://www.w3.org/2000/svg" viewBox="0 0 588.54 786.7"><defs><style>.cls-1{opacity:0.8;}</style></defs><title>aeib logo</title><g id="Capa_2" data-name="Capa 2"><g id="Capa_1-2" data-name="Capa 1"><g class="cls-1"><path d="M257.23,296.17H253q-61.5,0-123-.07c-2.91,0-4.45.94-6,3.35-17.64,28.09-35.43,56.09-53.08,84.18a5,5,0,0,1-4.9,2.69c-20.85-.09-41.69-.05-62.54-.05H0c.85-1.47,1.41-2.55,2.06-3.57Q122.17,192.91,242.24,3.08A5.62,5.62,0,0,1,247.69,0q104.79.12,209.6.06h3.61V58.5h-138V163.24h106.4v58.6H322.81v106h138.1v58.38H322.4V786.46H257.23Zm-93.88-58.9h93.44V89.83C225.42,139.34,194.54,188.06,163.35,237.27Z"/><path d="M540.25,582.62c1.26,1,2.53,1.91,3.77,2.9,30.82,24.58,45.85,56.4,44.43,96-1.93,53.55-46.09,95-87.76,102.75a124.23,124.23,0,0,1-21.8,2.33c-47.07.21-94.15.11-141.22.11h-3.3c-.07-1.38-.16-2.49-.16-3.6q0-189.36,0-378.72c0-2.09-.39-4,3-3.95,41.91.17,83.84-.48,125.74.47,48.12,1.09,92.9,40.64,101.26,88,6.05,34.3-.85,65.44-23.23,92.67A11.94,11.94,0,0,0,540.25,582.62Zm-147.16,39.3V728a14,14,0,0,0,1.83.26c27.93,0,55.88.58,83.79-.19,33.49-.93,56.9-31.81,50-64.63-5-23.74-26.29-41.39-50.56-41.55-27.47-.19-54.94-.06-82.41-.06C394.93,621.79,394.14,621.87,393.09,621.92ZM393,563.07c1.2.08,2,.17,2.78.17,19.92,0,39.83.09,59.75-.06a56.54,56.54,0,0,0,12.57-1.49c25.86-6.24,42.19-30.61,39.05-58.18-2.54-22.3-24.35-44.83-51.05-44.54-20,.22-40.07,0-60.1,0-1,0-2,.14-3,.21Z"/></g></g></g></svg>