<svg xmlns="http://www.w3.org/2000/svg" viewBox="0 0 481.44 329.82"><defs><style>.cls-1{fill:#3f3d56;}.cls-2{fill:#2f2e41;}.cls-3{fill:#fff;}.cls-4{fill:#2eb67d;}.cls-5{fill:none;stroke:#3f3d56;stroke-miterlimit:10;stroke-width:2px;}.cls-6{fill:#4cc8e5;}</style></defs><title>conoce icons 2</title><g id="Capa_2" data-name="Capa 2"><g id="b32a285a-6b04-4396-8e15-f52ff515c3cb"><ellipse class="cls-1" cx="170" cy="306.69" rx="170" ry="23.13"/><circle class="cls-2" cx="176.99" cy="189.47" r="79"/><rect class="cls-2" x="117" y="255.35" width="43" height="24" transform="translate(-149.25 356.02) rotate(-79.74)"/><rect class="cls-2" x="164.23" y="263.91" width="43" height="24" transform="translate(-118.85 409.52) rotate(-79.74)"/><ellipse class="cls-2" cx="186.02" cy="302.38" rx="7.5" ry="20" transform="translate(-164.95 248.91) rotate(-49.74)"/><ellipse class="cls-2" cx="139.77" cy="294.01" rx="7.5" ry="20" transform="translate(-174.92 210.66) rotate(-49.74)"/><circle class="cls-3" cx="182.52" cy="170.15" r="27"/><circle class="cls-1" cx="193.61" cy="160.47" r="9"/><path class="cls-4" d="M178,136c32.28-1.31,54.72-8,53.53-37.2S203.25,46.88,171,48.2s-57.49,26.08-56.3,55.33S145.75,137.29,178,136Z"/><ellipse class="cls-2" cx="249.93" cy="175.08" rx="39.5" ry="12.4" transform="translate(-32.8 60.27) rotate(-12.91)"/><ellipse class="cls-2" cx="94.86" cy="200.87" rx="39.5" ry="12.4" transform="translate(-42.48 26.27) rotate(-12.91)"/><path class="cls-3" d="M175.14,212c9.78,1.77,17.34,5.23,15.57,15a18,18,0,0,1-35.42-6.42C157.06,210.82,165.36,210.23,175.14,212Z"/><line class="cls-5" x1="279.44" y1="169" x2="370.44" y2="99"/><circle class="cls-6" cx="413.44" cy="68" r="68"/></g></g></svg>