<svg xmlns="http://www.w3.org/2000/svg" viewBox="0 0 906.39 94.07"><defs><style>.cls-1{fill:#fff;}.cls-2{fill:#d0cde1;}.cls-3{fill:#3f3d56;}.cls-4{fill:#2eb67d;}</style></defs><title>conoce icons 3</title><g id="Capa_2" data-name="Capa 2"><g id="ab03870f-e999-49c0-989a-dd3dcf1198ff"><rect class="cls-1" x="2.1" y="22.03" width="690" height="2"/><rect class="cls-2" x="47.9" y="13.33" width="40.29" height="32.74"/><path class="cls-3" d="M82.32,41h-42V6.61h42ZM42,39.35H80.64V8.29H42Z"/><circle class="cls-2" cx="8" cy="24.17" r="8"/><rect class="cls-1" x="727.26" y="63.88" width="179.13" height="2.01"/><rect class="cls-1" x="727.26" y="77.97" width="179.13" height="2.01"/><rect class="cls-1" x="727.26" y="92.06" width="179.13" height="2.01"/><rect class="cls-2" x="730.9" y="13.33" width="40.29" height="32.74"/><path class="cls-3" d="M765.32,41h-42V6.61h42ZM725,39.35h38.61V8.29H725Z"/><circle class="cls-2" cx="691" cy="24.17" r="8"/><rect class="cls-2" x="389.9" width="40.29" height="32.74"/><path class="cls-3" d="M424.32,39.45h-42V5h42ZM384,37.77h38.61V6.72H384Z"/><circle class="cls-2" cx="350" cy="21.89" r="8"/><circle class="cls-4" cx="134.1" cy="22.03" r="18"/><path class="cls-2" d="M134.09,1.76A19.91,19.91,0,1,0,154,21.67,19.91,19.91,0,0,0,134.09,1.76Zm-3.44,28.82L122.09,22l2.4-2.41,6.17,6.17,13-13,2.41,2.4Z"/></g></g></svg>