<svg xmlns="http://www.w3.org/2000/svg" viewBox="0 0 906.39 142.08"><defs><style>.cls-1{fill:#fff;}.cls-2{fill:#d0cde1;}.cls-3{fill:#3f3d56;}.cls-4{fill:#2eb67d;}</style></defs><title>conoce icons 3</title><g id="Capa_2" data-name="Capa 2"><g id="ab03870f-e999-49c0-989a-dd3dcf1198ff"><rect class="cls-1" x="2.1" y="70.04" width="690" height="2"/><rect class="cls-1" x="44.26" y="111.89" width="179.13" height="2.01"/><rect class="cls-1" x="44.26" y="125.98" width="179.13" height="2.01"/><rect class="cls-1" x="44.26" y="140.07" width="179.13" height="2.01"/><rect class="cls-2" x="47.9" y="61.34" width="40.29" height="32.74"/><path class="cls-3" d="M82.32,89h-42V54.62h42ZM42,87.36H80.64V56.3H42Z"/><circle class="cls-2" cx="8" cy="72.18" r="8"/><rect class="cls-1" x="727.26" y="111.89" width="179.13" height="2.01"/><rect class="cls-1" x="727.26" y="125.98" width="179.13" height="2.01"/><rect class="cls-1" x="727.26" y="140.07" width="179.13" height="2.01"/><rect class="cls-2" x="730.9" y="61.34" width="40.29" height="32.74"/><path class="cls-3" d="M765.32,89h-42V54.62h42ZM725,87.36h38.61V56.3H725Z"/><circle class="cls-2" cx="691" cy="72.18" r="8"/><rect class="cls-1" x="386.26" y="28.18" width="179.13" height="2.01"/><rect class="cls-1" x="386.26" y="14.09" width="179.13" height="2.01"/><rect class="cls-1" x="386.26" width="179.13" height="2.01"/><rect class="cls-2" x="389.9" y="48.01" width="40.29" height="32.74"/><path class="cls-3" d="M424.32,87.46h-42V53h42ZM384,85.78h38.61V54.72H384Z"/><circle class="cls-2" cx="350" cy="69.9" r="8"/><circle class="cls-4" cx="134.1" cy="70.04" r="18"/><path class="cls-2" d="M134.09,49.77A19.91,19.91,0,1,0,154,69.68a19.91,19.91,0,0,0-19.91-19.91Zm-3.44,28.82L122.09,70l2.4-2.4,6.17,6.17,13-13,2.41,2.4Z"/></g></g></svg>