<svg xmlns="http://www.w3.org/2000/svg" viewBox="0 0 2711.41 582.87"><defs><style>.cls-1{fill:none;stroke:#3f3d56;stroke-miterlimit:10;stroke-width:2px;}.cls-2{fill:#2f2e41;}.cls-3{fill:#f2f2f2;}.cls-4{fill:#3f3d56;}.cls-5{fill:#fff;}.cls-6{fill:#2eb67d;}.cls-7{fill:#4cc8e5;}</style></defs><title>conoce icons 1</title><g id="Capa_2" data-name="Capa 2"><g id="b32a285a-6b04-4396-8e15-f52ff515c3cb"><line class="cls-1" x1="1699.45" y1="241.9" x2="1843.45" y2="241.9"/><ellipse class="cls-2" cx="1375.32" cy="396.39" rx="39.5" ry="12.4" transform="translate(514.02 1539.54) rotate(-69.08)"/><path class="cls-3" d="M2706.83,274.12c15.66,116.59-5.67,233.31-114.17,278.76s-233.31-5.67-278.76-114.17S2375.69,265.28,2428.07,160C2534.45-53.94,2658.18-87.94,2706.83,274.12Z"/><ellipse class="cls-4" cx="2511.49" cy="559.26" rx="170" ry="23.13"/><rect class="cls-2" x="2402.7" y="494.24" width="43" height="24" transform="translate(-47.25 664.19) rotate(-15.45)"/><ellipse class="cls-2" cx="2397.81" cy="508.35" rx="7.5" ry="20" transform="translate(-48.77 657.24) rotate(-15.45)"/><ellipse class="cls-2" cx="2518.81" cy="419.18" rx="39.5" ry="12.4" transform="translate(1765.12 2858.86) rotate(-82.28)"/><circle class="cls-2" cx="2511.08" cy="493.13" r="79"/><rect class="cls-2" x="2402.7" y="480.24" width="43" height="24" transform="translate(-43.52 663.69) rotate(-15.45)"/><ellipse class="cls-2" cx="2397.81" cy="494.35" rx="7.5" ry="20" transform="translate(-45.04 656.73) rotate(-15.45)"/><circle class="cls-5" cx="2531.82" cy="447.87" r="27"/><circle class="cls-4" cx="2540.46" cy="435.94" r="9"/><path class="cls-6" d="M2602.31,547.42c29.23-1.47,51.62-28.81,50-61.08s-26.63-57.24-55.86-55.78-33.82,24.41-32.21,56.68S2573.07,548.88,2602.31,547.42Z"/><path class="cls-5" d="M2478.79,459.7a18,18,0,0,1-2.9-35.88c9.9-.8,12.61,7.06,13.41,17S2488.7,458.9,2478.79,459.7Z"/><polyline class="cls-1" points="1358.96 347.64 1801.45 347.64 1870.05 381.06 1979.36 434.31 2050.83 300.5 2253.07 300.5"/><circle class="cls-6" cx="1391.3" cy="361.64" r="13.69"/><circle class="cls-6" cx="1660.03" cy="347.64" r="13.69"/><circle class="cls-6" cx="1869.88" cy="381.09" r="13.69"/><circle class="cls-6" cx="2164.87" cy="300.5" r="13.69"/><circle class="cls-6" cx="2021.94" cy="353.72" r="13.69"/><circle class="cls-1" cx="2061.85" cy="187.48" r="14.76"/><ellipse class="cls-4" cx="170" cy="559.74" rx="170" ry="23.13"/><ellipse class="cls-4" cx="1306.3" cy="559.74" rx="170" ry="23.13"/><circle class="cls-2" cx="160.8" cy="446.74" r="79"/><rect class="cls-2" x="124.8" y="508.74" width="24" height="43"/><rect class="cls-2" x="172.8" y="508.74" width="24" height="43"/><ellipse class="cls-2" cx="144.8" cy="552.24" rx="20" ry="7.5"/><ellipse class="cls-2" cx="192.8" cy="551.24" rx="20" ry="7.5"/><circle class="cls-5" cx="162.8" cy="426.74" r="27"/><circle class="cls-4" cx="162.8" cy="426.74" r="9"/><path class="cls-6" d="M84.17,373.27c-6.38-28.57,14-57.43,45.55-64.47s62.26,10.41,68.64,39-14.52,39.11-46.05,46.15S90.55,401.84,84.17,373.27Z"/><circle class="cls-2" cx="1302.3" cy="456.05" r="79"/><rect class="cls-2" x="1266.3" y="518.05" width="24" height="43"/><rect class="cls-2" x="1314.3" y="518.05" width="24" height="43"/><ellipse class="cls-2" cx="1286.3" cy="561.55" rx="20" ry="7.5"/><ellipse class="cls-2" cx="1334.3" cy="560.55" rx="20" ry="7.5"/><circle class="cls-5" cx="1304.3" cy="436.05" r="27"/><circle class="cls-4" cx="1304.3" cy="436.05" r="9"/><path class="cls-6" d="M1225.66,382.58c-6.37-28.56,14-57.43,45.55-64.47s62.26,10.41,68.64,39-14.52,39.1-46,46.14S1232,411.15,1225.66,382.58Z"/><ellipse class="cls-2" cx="1213.32" cy="419.39" rx="12.4" ry="39.5" transform="translate(314.44 1335.94) rotate(-64.63)"/><path class="cls-5" d="M1263.49,484.55c0,7.73,19.91,23,42,23s42.81-21.77,42.81-29.5-20.72,1.5-42.81,1.5S1263.49,476.82,1263.49,484.55Z"/><rect class="cls-6" x="2430.97" y="329.54" width="126.13" height="64.16"/><rect class="cls-1" x="2421.1" y="339.96" width="126.13" height="64.16"/><rect class="cls-7" x="1536.1" y="185.61" width="36" height="36"/><rect class="cls-1" x="1527.1" y="173.61" width="36" height="36"/><ellipse class="cls-2" cx="2489.16" cy="437.95" rx="39.5" ry="12.4" transform="translate(1720.85 2845.73) rotate(-82.28)"/><circle class="cls-6" cx="68.81" cy="536.33" r="13.69"/><rect class="cls-7" x="256.6" y="520.3" width="36" height="36"/><circle class="cls-6" cx="256.81" cy="544.33" r="13.69"/><circle class="cls-6" cx="1771.45" cy="241.64" r="13.69"/><circle class="cls-7" cx="2323.21" cy="444.08" r="6.54"/><line class="cls-1" x1="2355.23" y1="552.55" x2="2355.23" y2="478.14"/><circle class="cls-4" cx="2355.23" cy="478.14" r="10.52"/><path class="cls-4" d="M2355.23,524s-1.5-32.33-32.32-28.57"/></g></g></svg>