<svg xmlns="http://www.w3.org/2000/svg" viewBox="0 0 2496.44 663.23"><defs><style>.cls-1{fill:#3f3d56;}.cls-2{fill:#fff;}.cls-3{fill:#70cadb;}.cls-4{fill:#e6e6e6;}.cls-5{fill:#f2f2f2;}.cls-6{opacity:0.1;isolation:isolate;}</style></defs><title>devices</title><g id="Capa_2" data-name="Capa 2"><g id="a259f86b-03f4-47ac-adca-e0b316d45eda"><path class="cls-1" d="M2165.73,200.5a2.94,2.94,0,0,0,2.95-2.94h0V166.19a2.92,2.92,0,0,0-2.89-2.94,3.12,3.12,0,0,0-1,.18V128a9.81,9.81,0,0,0-9.8-9.81H1834.36a9.81,9.81,0,0,0-9.8,9.81h0V558.35a9.8,9.8,0,0,0,9.8,9.8H2155a9.8,9.8,0,0,0,9.8-9.8V244.44a2.92,2.92,0,0,0,3.75-1.72,3.08,3.08,0,0,0,.18-1V210.31a2.92,2.92,0,0,0-2.89-2.94,2.68,2.68,0,0,0-1,.18v-7.23A2.78,2.78,0,0,0,2165.73,200.5Z"/><path class="cls-2" d="M2135.34,137.27a9.81,9.81,0,0,1,9.81,9.8h0V539.23a9.81,9.81,0,0,1-9.81,9.8H1854a9.8,9.8,0,0,1-9.8-9.8V147.07a9.8,9.8,0,0,1,9.8-9.8h281.37"/><circle class="cls-2" cx="1994.66" cy="127.96" r="3.92"/><rect class="cls-3" x="1870.12" y="188.71" width="240.97" height="23.95"/><rect class="cls-4" x="1870.12" y="245.12" width="240.97" height="9.07"/><rect class="cls-4" x="1870.12" y="272.81" width="240.97" height="9.07"/><rect class="cls-4" x="1870.12" y="300.84" width="124.51" height="9.07"/><rect class="cls-4" x="1870.12" y="329.37" width="240.97" height="9.07"/><rect class="cls-4" x="1870.12" y="357.91" width="240.97" height="9.07"/><rect class="cls-4" x="1870.12" y="386.44" width="120.34" height="9.07"/><rect class="cls-4" x="1870.12" y="414.97" width="240.97" height="9.07"/><rect class="cls-4" x="1870.12" y="443.5" width="240.97" height="9.07"/><rect class="cls-3" x="2035.28" y="478.5" width="76.1" height="25.02"/><path class="cls-1" d="M2496.44,337h-1.33V292.66a25.8,25.8,0,0,0-25.8-25.79H2374.8a25.8,25.8,0,0,0-25.8,25.79h0V537.28a25.8,25.8,0,0,0,25.8,25.79h94.51a25.8,25.8,0,0,0,25.8-25.79V368.56h1.33Z"/><path class="cls-2" d="M2489.33,290.89V536.7A19.26,19.26,0,0,1,2470.07,556h-94.7a19.26,19.26,0,0,1-19.26-19.27V290.89a17.36,17.36,0,0,1,17.36-17.36h13.37a9.42,9.42,0,0,0,.41,7.87,9.21,9.21,0,0,0,7.52,4.57h55.09a9.21,9.21,0,0,0,7.52-4.57,9.42,9.42,0,0,0,.41-7.87H2472A17.36,17.36,0,0,1,2489.33,290.89Z"/><rect class="cls-3" x="2370.63" y="343.2" width="103.82" height="10.32"/><rect class="cls-4" x="2370.63" y="367.5" width="103.82" height="3.91"/><rect class="cls-4" x="2370.63" y="379.43" width="103.82" height="3.91"/><rect class="cls-4" x="2370.63" y="391.5" width="53.64" height="3.91"/><rect class="cls-4" x="2370.63" y="403.8" width="103.82" height="3.91"/><rect class="cls-4" x="2370.63" y="416.09" width="103.82" height="3.91"/><rect class="cls-4" x="2370.63" y="428.38" width="51.85" height="3.91"/><rect class="cls-4" x="2370.63" y="440.67" width="103.82" height="3.91"/><rect class="cls-4" x="2370.63" y="452.97" width="103.82" height="3.91"/><rect class="cls-3" x="2441.78" y="468.04" width="32.78" height="10.78"/><path class="cls-1" d="M712.69,0H26A26,26,0,0,0,0,26H0v462.6a26,26,0,0,0,26,26h260.7l-9.77,62.35s-55.81,29.65-16.57,30.52,224.13,0,224.13,0,35.76,0-20.93-31.39l-9.19-61.48H712.69a26,26,0,0,0,26-26h0V26a26,26,0,0,0-26-26Z"/><rect class="cls-2" x="24.85" y="27.47" width="688.96" height="385.47"/><circle class="cls-5" cx="369.33" cy="15.26" r="4.36"/><circle class="cls-5" cx="369.33" cy="479.22" r="16.57"/><polygon class="cls-1" points="595.34 654.51 595.34 663.23 126.15 663.23 126.15 656.25 126.8 654.51 138.36 623.11 585.75 623.11 595.34 654.51"/><path class="cls-1" d="M775.9,646c-.86,3.65-4.08,7.51-11.37,11.15-26.17,13.09-79.37-3.48-79.37-3.48s-41-7-41-25.29a31.76,31.76,0,0,1,3.59-2.14c11-5.82,47.47-20.18,112.14.61a26.93,26.93,0,0,1,12.29,8A12.86,12.86,0,0,1,775.9,646Z"/><path class="cls-6" d="M775.9,646c-32,12.27-60.57,13.19-89.86-7.16a64.3,64.3,0,0,0-38.27-12.6c11-5.82,47.47-20.18,112.14.61a26.93,26.93,0,0,1,12.29,8A12.86,12.86,0,0,1,775.9,646Z"/><ellipse class="cls-5" cx="735.75" cy="635.32" rx="11.34" ry="3.49"/><polygon class="cls-6" points="595.34 654.51 595.34 663.23 126.15 663.23 126.15 656.25 126.8 654.51 595.34 654.51"/><g id="f3c2397c-d780-4cc6-97d8-1503d8277a2c"><rect id="ad41612f-86f7-46b2-a964-3a5da7bcf3cf" class="cls-3" x="222.13" y="154.07" width="81.99" height="19.74"/><rect id="b9a0b375-cc2a-4c59-8850-661af54e4f62" class="cls-3" x="559.22" y="154.07" width="28.85" height="19.74"/><rect id="e174c2ab-9bc5-41ec-b37c-b06fbf8a9878" class="cls-3" x="616.91" y="154.07" width="28.85" height="19.74"/><rect id="ba2479ac-4c7d-43b4-a028-73b1e20e4002" class="cls-3" x="332.97" y="154.07" width="195.87" height="19.74"/><rect id="ac60ef86-00f2-480b-8171-28b6fdfc1958" class="cls-3" x="118.88" y="281.62" width="81.99" height="19.74"/><rect id="b3d8298d-cd65-487a-8b19-4cee946356e7" class="cls-3" x="455.96" y="281.62" width="28.85" height="19.74"/><rect id="ed27f15f-f0c4-4569-8330-a6688f8e356c" class="cls-3" x="513.66" y="281.62" width="28.85" height="19.74"/><rect id="f685c005-adaf-4d60-acda-005b037d82a6" class="cls-3" x="229.72" y="281.62" width="195.87" height="19.74"/><rect id="eca7c7fc-83f8-48ca-a588-6606db47af3f" class="cls-3" x="457.48" y="198.1" width="81.99" height="19.74"/><rect id="a71b5b2f-f8b9-481d-a301-5e3357e5fe42" class="cls-3" x="568.33" y="198.1" width="81.99" height="19.74"/><rect id="abb3a25a-f854-41fc-8391-e6ad9fbe2417" class="cls-3" x="118.88" y="198.1" width="28.85" height="19.74"/><rect id="add2b425-b775-4eb5-9c25-8c4c14f957c9" class="cls-3" x="176.58" y="198.1" width="28.85" height="19.74"/><rect id="b7159612-3b84-4b0b-a885-612eaab04c06" class="cls-3" x="234.28" y="198.1" width="195.87" height="19.74"/><rect id="edfc7301-4de5-47dc-80e2-1ae2da982d6d" class="cls-3" x="287.42" y="240.62" width="81.99" height="19.74"/><rect id="e1009f91-6275-4375-80fa-0d778e331fdc" class="cls-3" x="176.58" y="240.62" width="81.99" height="19.74"/><rect id="a060fb9f-1f1a-4862-9a69-16dd49199e18" class="cls-3" x="118.88" y="240.62" width="28.85" height="19.74"/><rect id="b6754d5f-104f-449c-b9a9-cf9ac82bf5fe" class="cls-3" x="621.47" y="240.62" width="28.85" height="19.74"/><rect id="e6ed1ccd-2cfd-450f-a339-07df3a1ee6bb" class="cls-3" x="396.75" y="240.62" width="195.87" height="19.74"/></g><path class="cls-1" d="M1560.36,178.69h-237v-4.88H1216v4.88H978a16,16,0,0,0-16,16h0V519.2a16,16,0,0,0,16,16h582.35a16,16,0,0,0,16-16V194.72a16,16,0,0,0-16-16Z"/><rect class="cls-2" x="983.47" y="207.02" width="571.42" height="322.35"/><circle class="cls-3" cx="1268.7" cy="192.37" r="5.86"/><path class="cls-1" d="M1153.44,327.31h-13.57a3.4,3.4,0,0,1-3.4-3.39V310.35a3.41,3.41,0,0,1,3.4-3.4h13.57a3.4,3.4,0,0,1,3.39,3.4v13.57A3.39,3.39,0,0,1,1153.44,327.31Zm-13.57-18.09a1.12,1.12,0,0,0-1.13,1.13v13.57a1.12,1.12,0,0,0,1.13,1.13h13.57a1.12,1.12,0,0,0,1.13-1.13V310.35a1.12,1.12,0,0,0-1.13-1.13Z"/><rect class="cls-1" x="1137.6" y="325.05" width="257.9" height="2.26"/><rect class="cls-3" x="1328.77" y="387.27" width="59.95" height="18.1"/><path class="cls-1" d="M1393.24,400.84h-55.42a3.4,3.4,0,0,1-3.4-3.39V383.87a3.4,3.4,0,0,1,3.4-3.39h55.42a3.4,3.4,0,0,1,3.4,3.39v13.58A3.4,3.4,0,0,1,1393.24,400.84Zm-55.42-18.1a1.13,1.13,0,0,0-1.13,1.13v13.58a1.13,1.13,0,0,0,1.13,1.13h55.42a1.14,1.14,0,0,0,1.14-1.13V383.87a1.14,1.14,0,0,0-1.14-1.13Z"/><polygon class="cls-2" points="1428.21 529.37 983.47 529.37 983.47 231.44 1428.21 529.37"/><path class="cls-1" d="M1592.44,523.51h-55.77v-4a.8.8,0,0,0-.8-.8h-19.12a.8.8,0,0,0-.8.8h0v4h-12v-4a.79.79,0,0,0-.79-.8h-19.12a.8.8,0,0,0-.8.8h0v4h-12v-4a.8.8,0,0,0-.8-.8h-19.12a.79.79,0,0,0-.79.8h0v4h-12v-4a.79.79,0,0,0-.79-.8h-19.12a.8.8,0,0,0-.8.8h0v4h-12v-4a.8.8,0,0,0-.8-.8h-19.12a.79.79,0,0,0-.79.8h0v4h-12v-4a.8.8,0,0,0-.8-.8h-19.12a.8.8,0,0,0-.8.8h0v4h-12v-4a.79.79,0,0,0-.79-.8H1190.11a.8.8,0,0,0-.8.8h0v4h-12v-4a.79.79,0,0,0-.79-.8h-19.13a.79.79,0,0,0-.79.8h0v4h-12v-4a.8.8,0,0,0-.8-.8h-19.12a.8.8,0,0,0-.8.8h0v4h-12v-4a.79.79,0,0,0-.79-.8h-19.12a.8.8,0,0,0-.8.8h0v4h-12v-4a.8.8,0,0,0-.8-.8h-19.12a.79.79,0,0,0-.79.8h0v4h-12v-4a.8.8,0,0,0-.8-.8h-19.12a.8.8,0,0,0-.8.8h0v4h-12v-4a.8.8,0,0,0-.8-.8H994.12a.79.79,0,0,0-.79.8h0v4H956.68a19.12,19.12,0,0,0-19.12,19.12v8.64a19.12,19.12,0,0,0,19.12,19.12h635.76a19.12,19.12,0,0,0,19.12-19.12v-8.64a19.12,19.12,0,0,0-19.12-19.12Z"/><path class="cls-1" d="M1418.13,420.07H1119.51a3.4,3.4,0,0,1-3.4-3.39V292.25a3.4,3.4,0,0,1,3.4-3.39h298.62a3.39,3.39,0,0,1,3.39,3.39V416.68A3.39,3.39,0,0,1,1418.13,420.07ZM1119.51,291.12a1.12,1.12,0,0,0-1.13,1.13V416.68a1.13,1.13,0,0,0,1.13,1.13h298.62a1.14,1.14,0,0,0,1.13-1.13V292.25a1.13,1.13,0,0,0-1.13-1.13Z"/><path class="cls-1" d="M1153.44,361.25h-13.57a3.4,3.4,0,0,1-3.4-3.39V344.28a3.4,3.4,0,0,1,3.4-3.39h13.57a3.39,3.39,0,0,1,3.39,3.39v13.58A3.39,3.39,0,0,1,1153.44,361.25Zm-13.57-18.1a1.13,1.13,0,0,0-1.13,1.13v13.58a1.13,1.13,0,0,0,1.13,1.13h13.57a1.13,1.13,0,0,0,1.13-1.13V344.28a1.13,1.13,0,0,0-1.13-1.13Z"/><rect class="cls-1" x="1137.6" y="358.99" width="257.9" height="2.26"/><circle class="cls-1" cx="1237.15" cy="478.89" r="15.84"/></g></g></svg>