<svg xmlns="http://www.w3.org/2000/svg" viewBox="0 0 188.31 242.64"><defs><style>.cls-1{fill:#fff35c;}.cls-2{fill:#f66;}.cls-3{fill:#0f9;}.cls-4{fill:#0cf;}.cls-5{fill:#93f;}.cls-6{opacity:0.37;}</style></defs><title>giphy icon</title><g id="Capa_2" data-name="Capa 2"><g id="Capa_1-2" data-name="Capa 1"><rect class="cls-1" width="107.43" height="27.08"/><polygon class="cls-2" points="161.41 53.98 161.41 27.08 134.5 27.08 134.5 0 107.43 0 107.43 27.08 107.43 53.98 107.43 54.15 107.43 81.06 188.31 81.06 188.31 53.98 161.41 53.98"/><rect class="cls-3" x="-80.7" y="107.78" width="188.48" height="27.08" transform="translate(-107.78 134.86) rotate(-90)"/><rect class="cls-4" y="215.56" width="188.31" height="27.08" transform="translate(188.31 458.2) rotate(180)"/><rect class="cls-5" x="107.52" y="134.77" width="134.51" height="27.08" transform="translate(323.08 -26.46) rotate(90)"/><polygon class="cls-6" points="161.23 108.13 188.31 81.06 161.23 81.06 161.23 108.13"/><polygon class="cls-6" points="107.43 0 80.79 27.08 107.43 27.08 107.43 0"/></g></g></svg>