<svg xmlns="http://www.w3.org/2000/svg" viewBox="0 0 623.37 748.23"><defs><style>.cls-1,.cls-2{fill:none;stroke:#e01e5b;stroke-miterlimit:10;}.cls-2{stroke-dasharray:6 6;}</style></defs><title>hilo</title><g id="Capa_2" data-name="Capa 2"><g id="Capa_1-2" data-name="Capa 1"><path class="cls-1" d="M.1.49,3,1.1"/><path class="cls-2" d="M8.91,2.38c152.46,34.34-9.84,85.93.68,133.31,11.87,53.41,123.29-61.11,184-16.62,71.21,52.22,148.91-32.87,167.34,35.61,6.28,23.34-5,74.79-80.7,121.05C216.1,314.9,50.83,321.92,58.7,274c4.29-26.15,47.56-27.57,34,4.14-7.91,18.46-65.54,31.1-49.84,80.7,24.39,77.09,191.85-27,212.44,38,21.78,68.77-235,142.42-186.33,290.77,15.63,47.66,119.91,85.38,185.14,39.16C328,674.35,309,544.11,269.51,525c-24.8-12-55-4.84-58,15.51-6.33,43,60,107.26,129.88,105.15,61-1.84,114.32-50.5,131.34-24.26,12.66,19.52,14.85,49.59,51.36,55.52,34.09,5.53,59.17,1,94.35-27.44"/><path class="cls-1" d="M620.74,647.55c.77-.63,1.53-1.27,2.31-1.93"/></g></g></svg>