<svg xmlns="http://www.w3.org/2000/svg" viewBox="0 0 527.55 1432.14"><defs><style>.cls-1,.cls-2{fill:none;stroke:#e01e5b;stroke-miterlimit:10;}.cls-2{stroke-dasharray:6 6;}</style></defs><title>hilo 480</title><g id="Capa_2" data-name="Capa 2"><g id="Capa_1-2" data-name="Capa 1"><path class="cls-1" d="M.1.49,3,1.1"/><path class="cls-2" d="M8.91,2.38c152.46,34.34-9.84,85.93.68,133.31,11.87,53.41,123.29-61.11,184-16.62,71.21,52.22,148.91-32.87,167.34,35.61,6.28,23.34-5,74.79-80.7,121.05C216.1,314.9,50.83,321.92,58.7,274c4.29-26.15,47.56-27.57,34,4.14-7.91,18.46-65.54,31.1-49.84,80.7,24.39,77.09,191.85-27,212.44,38,21.78,68.77-235,142.42-186.33,290.77,15.63,47.66,119.91,85.38,185.14,39.16C328,674.35,309,544.11,269.51,525c-24.8-12-55-4.84-58,15.51-6.33,43,60,107.26,129.88,105.15,61-1.84,114.32-50.5,131.34-24.26,12.66,19.52,14.77,81.64,47.2,99.43,4.54,2.48,6.8,5.18,7.11,8,1.94,17.23-132.21-13.55-229.44,51-34.59,23-31.52,35.8-60.13,45.43C166.21,849.2,104.19,784,80.8,804.66c-16.67,14.69,4.21,57.2,36.4,149.53,66.26,190.06,13,223.74,0,239.74-23,28.28-67.85,45.82-76.75,26.9-6.33-13.45,17.49-32.35,44.31-37.19,42.89-7.72,65.86,48.4,112,45.5,35.37-2.23,193.71-119.87,206.9-64,4.87,20.66-92.89,60.79-86.95,90,3.51,17.25,67.7,1.39,82.73,29.25,11.13,20.65,2.76,54.34-23.74,71.74-36.58,24-94.29,16.22-106.43-2.77-6.51-10.2-4.62-22.12,8.71-24.66,27.45-5.23,51.32,59.6,41.28,72.79-12,15.74-98.79-53.3-176.7-36.39-45.08,9.77-24.26,43.21-59.06,63.78"/><path class="cls-1" d="M80.85,1430.34c-.87.46-1.76.91-2.68,1.35"/></g></g></svg>