<svg xmlns="http://www.w3.org/2000/svg" viewBox="0 0 361.12 206.74"><defs><style>.cls-1{fill:#2f2e41;}.cls-2{fill:#fff;}.cls-3{fill:#3f3d56;}.cls-4{fill:#b7b7b7;}.cls-5{fill:#e01e5a;}</style></defs><title>illustration 4</title><g id="Capa_2" data-name="Capa 2"><g id="b6a0220b-322a-435e-9212-1568a8115194"><ellipse class="cls-1" cx="153.62" cy="105.38" rx="32.34" ry="10.15" transform="translate(-27.69 62.61) rotate(-21.18)"/><circle class="cls-1" cx="88.83" cy="114.22" r="64.68"/><rect class="cls-1" x="59.36" y="164.99" width="19.65" height="35.21"/><rect class="cls-1" x="98.66" y="164.99" width="19.65" height="35.21"/><ellipse class="cls-1" cx="75.73" cy="200.6" rx="16.38" ry="6.14"/><ellipse class="cls-1" cx="115.03" cy="199.79" rx="16.38" ry="6.14"/><circle class="cls-2" cx="90.47" cy="97.85" r="22.11"/><circle class="cls-3" cx="90.47" cy="97.85" r="7.37"/><path class="cls-4" d="M26.09,54.07C20.86,30.68,37.56,7,63.38,1.28s51,8.52,56.2,31.91-11.89,32-37.7,37.78S31.31,77.46,26.09,54.07Z"/><ellipse class="cls-1" cx="23.98" cy="122.21" rx="32.34" ry="10.15" transform="translate(-79.39 52.75) rotate(-45)"/><path class="cls-2" d="M57.06,137.56c0,6.33,16.3,18.83,34.39,18.83s35.05-17.82,35.05-24.15-17,1.22-35,1.22S57.06,131.23,57.06,137.56Z"/><ellipse class="cls-1" cx="207.5" cy="105.38" rx="10.15" ry="32.34" transform="translate(34.28 260.8) rotate(-68.82)"/><circle class="cls-1" cx="272.29" cy="114.22" r="64.68"/><rect class="cls-1" x="282.12" y="164.99" width="19.65" height="35.21"/><rect class="cls-1" x="242.82" y="164.99" width="19.65" height="35.21"/><ellipse class="cls-1" cx="285.39" cy="200.6" rx="16.38" ry="6.14"/><ellipse class="cls-1" cx="246.09" cy="199.79" rx="16.38" ry="6.14"/><circle class="cls-2" cx="270.65" cy="97.85" r="22.11" transform="translate(130.72 349.33) rotate(-80.78)"/><circle class="cls-3" cx="270.65" cy="97.85" r="7.37"/><path class="cls-5" d="M335,54.07c5.22-23.39-11.48-47-37.29-52.79s-51,8.52-56.21,31.91,11.89,32,37.71,37.78S329.81,77.46,335,54.07Z"/><ellipse class="cls-1" cx="337.15" cy="122.21" rx="10.15" ry="32.34" transform="translate(12.33 274.19) rotate(-45)"/><path class="cls-2" d="M304.06,137.56c0,6.33-16.3,18.83-34.38,18.83s-35.05-17.82-35.05-24.15,17,1.22,35.05,1.22S304.06,131.23,304.06,137.56Z"/></g></g></svg>