<svg xmlns="http://www.w3.org/2000/svg" viewBox="0 0 686 567.34"><defs><style>.cls-1{fill:gray;}</style></defs><title>logo ibm</title><g id="Capa_2" data-name="Capa 2"><g id="Capa_1-2" data-name="Capa 1"><path d="M126,.2h74.52q53,0,79.3,19.21T306.07,72.6a88.86,88.86,0,0,1-5.21,29.67,70.7,70.7,0,0,1-16.18,26q-11,11.26-27.79,15.49a63.63,63.63,0,0,1,35.66,10.7,78.66,78.66,0,0,1,25.87,27.88A73.15,73.15,0,0,1,328,218.49q0,46.08-29.81,71.39T197.07,315.19H103.83V.2Zm25.29,135.35h58.81a50.9,50.9,0,0,0,25.44-6.41q11.38-6.39,18-19.21t6.6-31q0-23.61-17.46-35.33t-50.88-11.7h-40.5m0,250.41h51.36q38.1,0,57.69-13.27t19.59-44.77q0-29.24-18.21-42.71T204.74,168H151.25"/><path d="M386,314.51,386.67,0l55.17.12L535.24,260,631.05.56l55,.12-.67,314.51-41.16-.09.54-254.26L553.88,314.89l-37.28-.09L427.48,62.73,427,314.6Z"/><path d="M43.53,0V567.34H0V0Z"/><path d="M105.83,567.34V553.5l48.25-65.35q12.55-17.43,17.29-28.06a55.08,55.08,0,0,0,4.74-22.68q0-15.37-8.29-25.37T147,402a31.93,31.93,0,0,0-17.39,5.13q-8.1,5.13-17.93,16.91L103.83,411Q114.21,398.2,125,391.92a43.49,43.49,0,0,1,22.21-6.28,37.93,37.93,0,0,1,16.93,3.85A40.24,40.24,0,0,1,177.47,400a48.5,48.5,0,0,1,8.65,16,64.63,64.63,0,0,1,3.09,20.37A88.15,88.15,0,0,1,188,451.25a62.72,62.72,0,0,1-4.18,14,109,109,0,0,1-8.11,15.12q-5.1,8.07-12.92,18.58l-38.78,52h67.54v16.4Z"/><path d="M276.06,567.34a35.87,35.87,0,0,1-21-6.69Q245.48,554,238.65,542T228,513.21a177.89,177.89,0,0,1,0-73.43Q231.81,423,238.65,411a55.87,55.87,0,0,1,16.47-18.67,36.26,36.26,0,0,1,42,0Q306.65,399,313.56,411t10.75,28.78a178.35,178.35,0,0,1,0,73.43Q320.49,530,313.56,542t-16.47,18.67A35.87,35.87,0,0,1,276.06,567.34Zm0-13.26q17.65,0,28.22-20.6t10.56-55.12q0-34.51-10.56-55.24t-28.22-20.74q-17.47,0-28,20.74t-10.56,55.24q0,34.51,10.56,55.12T276.06,554.08Z"/><path d="M356.17,567.34V553.5l48.25-65.35q12.56-17.43,17.29-28.06a55.07,55.07,0,0,0,4.73-22.68q0-15.37-8.28-25.37t-20.85-10a31.9,31.9,0,0,0-17.38,5.13q-8.1,5.13-17.94,16.91L354.17,411q10.36-12.81,21.12-19.09a43.49,43.49,0,0,1,22.21-6.28,38,38,0,0,1,16.93,3.85A40.24,40.24,0,0,1,427.81,400a48.68,48.68,0,0,1,8.65,16,64.63,64.63,0,0,1,3.09,20.37,88.15,88.15,0,0,1-1.18,14.87,62.23,62.23,0,0,1-4.19,14,107.82,107.82,0,0,1-8.1,15.12q-5.1,8.07-12.93,18.58l-38.78,52h67.55v16.4Z"/><path d="M526.39,567.34a35.91,35.91,0,0,1-21-6.69Q495.81,554,489,542t-10.65-28.77a178.35,178.35,0,0,1,0-73.43Q482.16,423,489,411t16.48-18.67a36.24,36.24,0,0,1,42,0Q557,399,563.9,411t10.74,28.78a178.35,178.35,0,0,1,0,73.43Q570.82,530,563.9,542t-16.48,18.67A35.87,35.87,0,0,1,526.39,567.34Zm0-16.65q17.67,0,28.22-20.19t10.57-54q0-33.81-10.57-54.13t-28.22-20.31q-17.47,0-28,20.31T487.8,476.49q0,33.83,10.56,54T526.39,550.69Z"/><path class="cls-1" d="M667.46,567.34V385.64H686v181.7Z"/></g></g></svg>