<svg xmlns="http://www.w3.org/2000/svg" viewBox="0 0 508.17 363.77"><defs><style>.cls-1{fill:none;stroke:#fff;stroke-linecap:round;stroke-width:1.4px;}.cls-2{fill:#fff;}.cls-3{fill:#d3d2b2;}.cls-4{opacity:0.29;}</style></defs><title>mail icon</title><g id="Capa_2" data-name="Capa 2"><g id="Capa_1-2" data-name="Capa 1"><path class="cls-1" d="M92.77,85.25c.31,1.73.65,3.44,1,5.16"/><path class="cls-1" d="M95.08,95.65c.44,1.69,1,3.37,1.47,5"/><path class="cls-1" d="M98.36,105.78c.63,1.63,1.33,3.24,2.09,4.81"/><path class="cls-1" d="M103.06,115.31a32.38,32.38,0,0,0,3.16,4.19"/><path class="cls-1" d="M110.29,123a14.07,14.07,0,0,0,4.82,2"/><path class="cls-1" d="M120.46,125l.64-.13.62-.22c.41-.15.84-.27,1.23-.45a16.65,16.65,0,0,0,2.31-1.26"/><path class="cls-1" d="M129.45,119.58a48.2,48.2,0,0,0,3.52-3.9"/><line class="cls-1" x1="136.26" y1="111.41" x2="139.33" y2="107.14"/><path class="cls-1" d="M142.49,102.77q1.56-2.11,3.25-4.13"/><path class="cls-1" d="M149.5,94.78a17.17,17.17,0,0,1,4.38-2.87"/><path class="cls-1" d="M159.13,91a11.68,11.68,0,0,1,2.55.6,8.7,8.7,0,0,1,2.37,1.11"/><path class="cls-1" d="M167.46,96.79a19.48,19.48,0,0,1,1.49,5"/><path class="cls-1" d="M169.5,107.17c.1,1.75.11,3.51.11,5.26"/><line class="cls-1" x1="169.53" y1="117.82" x2="169.4" y2="123.08"/><path class="cls-1" d="M169.31,128.47c0,1.75,0,3.5,0,5.26"/><path class="cls-1" d="M169.51,139.12c.09,1.75.23,3.49.4,5.24"/><path class="cls-1" d="M170.6,149.71c.26,1.73.6,3.45,1,5.16"/><path class="cls-1" d="M173,160.09c.5,1.68,1.1,3.33,1.73,5"/><path class="cls-1" d="M176.89,170c.39.78.79,1.56,1.23,2.32s.88,1.52,1.34,2.26"/><path class="cls-1" d="M182.53,179c.54.7,1.1,1.37,1.64,2.05l1.74,2"/><path class="cls-1" d="M189.75,186.8c1.3,1.17,2.65,2.29,4,3.37"/><path class="cls-1" d="M198.18,193.29c1.48.94,3,1.86,4.5,2.71"/><path class="cls-1" d="M207.46,198.49a36,36,0,0,0,4.85,2"/><path class="cls-1" d="M217.55,201.76a33.9,33.9,0,0,0,5.23.37"/><path class="cls-1" d="M228.16,201.67a37.42,37.42,0,0,0,5.11-1.17"/><path class="cls-1" d="M238.33,198.63a41.17,41.17,0,0,0,4.64-2.46"/><path class="cls-1" d="M247.35,193a30.23,30.23,0,0,0,3.7-3.72"/><path class="cls-1" d="M253.94,184.77a11.94,11.94,0,0,0,1.06-5.1"/><path class="cls-1" d="M253.2,174.69a20,20,0,0,0-3.77-3.64"/><path class="cls-1" d="M244.6,168.73a11.9,11.9,0,0,0-5.21,0"/><path class="cls-1" d="M234.42,170.72a26.87,26.87,0,0,0-4.17,3.18"/><path class="cls-1" d="M226.57,177.84c-.56.68-1.11,1.35-1.62,2.07s-1,1.4-1.53,2.13"/><path class="cls-1" d="M220.55,186.61c-.9,1.51-1.72,3-2.52,4.61"/><path class="cls-1" d="M215.69,196.08c-.7,1.61-1.41,3.21-2.05,4.84"/><path class="cls-1" d="M211.72,206c-.6,1.65-1.16,3.31-1.7,5"/><path class="cls-1" d="M208.45,216.1c-.49,1.68-.94,3.38-1.37,5.07"/><path class="cls-1" d="M205.83,226.42q-.57,2.57-1.06,5.15"/><path class="cls-1" d="M203.84,236.88c-.27,1.73-.53,3.47-.74,5.21"/><path class="cls-1" d="M202.49,247.45c-.15,1.74-.31,3.49-.4,5.24"/><path class="cls-1" d="M201.85,258.08c0,1.75-.07,3.5,0,5.25"/><path class="cls-1" d="M202,268.72c.11,1.75.23,3.5.42,5.24"/><polyline class="cls-1" points="203.12 279.31 203.55 281.9 204.08 284.48"/><path class="cls-1" d="M205.42,289.7c.23.85.49,1.68.79,2.51s.54,1.67.88,2.47"/><polyline class="cls-1" points="209.23 299.63 210.45 301.96 211.81 304.21"/><path class="cls-1" d="M215,308.57a37,37,0,0,0,3.63,3.78"/><path class="cls-1" d="M222.88,315.65a22.41,22.41,0,0,0,2.25,1.36c.38.21.76.44,1.15.63l1.19.56"/><path class="cls-1" d="M232.59,319.88l1.28.27c.43.08.87.13,1.3.2.87.14,1.74.19,2.62.25"/><path class="cls-1" d="M243.17,320.44a34.78,34.78,0,0,0,5.16-1"/><path class="cls-1" d="M253.42,317.7a37.47,37.47,0,0,0,4.68-2.39"/><path class="cls-1" d="M262.53,312.24a41.87,41.87,0,0,0,3.92-3.5"/><path class="cls-1" d="M270,304.72c1.11-1.36,2.09-2.81,3.07-4.27"/><path class="cls-1" d="M275.79,295.78c.44-.76.79-1.56,1.16-2.36s.77-1.57,1.08-2.39"/><polyline class="cls-1" points="279.92 285.97 280.35 284.73 280.71 283.47 281.44 280.94"/><path class="cls-1" d="M282.62,275.68c.33-1.72.66-3.44.88-5.18"/><line class="cls-1" x1="284.13" y1="265.14" x2="284.61" y2="259.91"/><path class="cls-1" d="M285.29,254.56c.23-1.74.54-3.46.84-5.19"/><path class="cls-1" d="M287.21,244.08c.36-1.71.8-3.41,1.23-5.11"/><path class="cls-1" d="M289.91,233.78c.49-1.68,1-3.34,1.6-5"/><path class="cls-1" d="M293.35,223.7c.61-1.64,1.28-3.25,1.95-4.87"/><path class="cls-1" d="M297.49,213.89c.72-1.59,1.51-3.16,2.29-4.73"/><path class="cls-1" d="M302.3,204.39c.83-1.54,1.73-3,2.61-4.56"/><path class="cls-1" d="M307.76,195.25c.94-1.48,1.93-2.92,2.92-4.37"/><path class="cls-1" d="M313.84,186.51c1.06-1.39,2.12-2.79,3.23-4.14"/><path class="cls-1" d="M320.54,178.23c1.16-1.31,2.33-2.61,3.54-3.88"/><path class="cls-1" d="M327.87,170.51c1.25-1.23,2.54-2.42,3.84-3.59"/><path class="cls-1" d="M335.81,163.42c1.37-1.1,2.75-2.18,4.16-3.22"/><path class="cls-1" d="M344.4,157.12c.73-.49,1.47-1,2.22-1.41s1.49-.92,2.26-1.34"/><path class="cls-1" d="M353.63,151.82q2.36-1.17,4.79-2.16"/><path class="cls-1" d="M363.48,147.81q1.26-.42,2.52-.75t2.55-.63"/><path class="cls-1" d="M373.87,145.5a50.66,50.66,0,0,1,5.24-.36"/><path class="cls-1" d="M384.49,145.42c.87.11,1.74.2,2.6.38l1.29.24,1.28.31"/><path class="cls-1" d="M394.8,148c.81.32,1.6.69,2.4,1s1.57.79,2.33,1.22"/><path class="cls-1" d="M404,153.2c1.43,1,2.72,2.22,4,3.36"/><path class="cls-1" d="M411.84,160.43a24.92,24.92,0,0,1,1.65,2,23.09,23.09,0,0,1,1.53,2.14"/><path class="cls-1" d="M417.68,169.3a35.82,35.82,0,0,1,1.87,4.9"/><path class="cls-1" d="M420.69,179.47c.09.87.2,1.74.27,2.61l.09,2.63"/><path class="cls-1" d="M420.74,190.09l-.37,2.6c-.13.87-.33,1.72-.49,2.58"/><path class="cls-1" d="M418.54,200.5c-.23.84-.5,1.68-.79,2.5s-.54,1.67-.86,2.49"/><path class="cls-1" d="M414.91,210.5c-.71,1.61-1.41,3.21-2.17,4.79"/><path class="cls-1" d="M410.34,220.12c-.81,1.56-1.63,3.11-2.48,4.64"/><path class="cls-1" d="M405.21,229.46c-.88,1.52-1.76,3-2.66,4.53"/><line class="cls-1" x1="399.75" y1="238.6" x2="396.98" y2="243.07"/><line class="cls-1" x1="394.12" y1="247.65" x2="391.33" y2="252.1"/><line class="cls-1" x1="388.47" y1="256.67" x2="385.72" y2="261.15"/><path class="cls-1" d="M382.94,265.78c-.89,1.51-1.77,3-2.63,4.55"/><path class="cls-1" d="M377.71,275.05q-1.24,2.32-2.41,4.67"/><path class="cls-1" d="M373,284.61c-.73,1.59-1.39,3.22-2,4.85"/><polyline class="cls-1" points="369.2 294.55 368.47 297.08 367.85 299.63"/><path class="cls-1" d="M367,305c-.1.87-.13,1.75-.2,2.62s0,1.75,0,2.63"/><path class="cls-1" d="M367.3,315.56l.6,2.55c.27.84.53,1.67.82,2.5"/><path class="cls-1" d="M371.09,325.45c.49.73.94,1.48,1.45,2.19l1.62,2.07"/><path class="cls-1" d="M377.91,333.59a47.8,47.8,0,0,0,4,3.37"/><path class="cls-1" d="M386.43,339.94a22.27,22.27,0,0,0,2.32,1.22c.78.41,1.59.73,2.4,1.06"/><path class="cls-1" d="M396.31,343.8c.85.18,1.72.31,2.58.46s1.74.19,2.62.22"/><path class="cls-1" d="M406.9,344.28a36,36,0,0,0,5.15-1"/><path class="cls-1" d="M417.16,341.56a50.1,50.1,0,0,0,4.74-2.26"/><path class="cls-1" d="M426.51,336.5c1.46-1,2.87-2,4.24-3.09"/><path class="cls-1" d="M434.87,329.92q1.94-1.77,3.78-3.65"/><path class="cls-1" d="M442.32,322.31q1.73-2,3.36-4"/><path class="cls-1" d="M448.93,314c1-1.42,2-2.87,3-4.33"/><path class="cls-1" d="M454.75,305.05c.89-1.51,1.75-3,2.57-4.58"/><path class="cls-1" d="M459.74,295.65c.75-1.59,1.44-3.2,2.1-4.82"/><path class="cls-1" d="M463.7,285.77c.56-1.66,1-3.36,1.43-5.06"/><path class="cls-1" d="M466,275.39a19.57,19.57,0,0,0-.14-5.24"/><path class="cls-1" d="M463.31,265.56a14.58,14.58,0,0,0-4.84-1.95"/><path class="cls-1" d="M453.14,263.9a11.17,11.17,0,0,0-4.37,2.82"/><path class="cls-1" d="M445.59,271.06a30.55,30.55,0,0,0-2.09,4.81"/><path class="cls-1" d="M442.05,281.07c-.38,1.71-.67,3.44-.89,5.18"/><path class="cls-1" d="M440.67,291.62c-.09,1.75-.13,3.5-.1,5.25"/><path class="cls-1" d="M440.79,302.26c.13,1.75.31,3.49.53,5.23"/><path class="cls-1" d="M442.19,312.81c.33,1.73.72,3.43,1.15,5.13"/><path class="cls-1" d="M444.86,323.12c.57,1.66,1.15,3.31,1.83,4.92"/><path class="cls-1" d="M449,332.94c.79,1.56,1.68,3.08,2.61,4.56"/><path class="cls-1" d="M454.71,341.88a43.3,43.3,0,0,0,3.54,3.88"/><path class="cls-1" d="M462.41,349.18l2.13,1.54c.71.51,1.49.92,2.23,1.39"/><path class="cls-1" d="M471.5,354.7c.79.37,1.55.81,2.37,1.13l2.43,1"/><path class="cls-1" d="M481.37,358.68c1.66.55,3.36,1,5,1.46"/><polyline class="cls-1" points="491.68 361.3 494.26 361.78 496.87 362.16"/><path class="cls-1" d="M502.23,362.76c1.74.15,3.49.26,5.24.31"/><polygon class="cls-2" points="129.76 37.19 0 0 45.63 68.83 129.76 37.19"/><polygon class="cls-3" points="100.06 48.36 0 0 76.74 57.13 88.88 77.01 100.06 48.36"/><polygon class="cls-4" points="88.88 77.01 69.21 59.97 76.74 57.13 88.88 77.01"/></g></g></svg>