<svg id="Capa_1" data-name="Capa 1" xmlns="http://www.w3.org/2000/svg" viewBox="0 0 189 168"><defs><style>.cls-1{fill:gray;}</style></defs><title>menu</title><path class="cls-1" d="M12,0H177c6.63,0,12,4,12,8.91h0c0,4.92-5.37,8.91-12,8.91H12c-6.63,0-12-4-12-8.91H0C0,4,5.37,0,12,0Z" transform="translate(0 0)"/><path class="cls-1" d="M12,75.09H177c6.63,0,12,4,12,8.91h0c0,4.92-5.37,8.91-12,8.91H12c-6.63,0-12-4-12-8.91H0C0,79.08,5.37,75.09,12,75.09Z" transform="translate(0 0)"/><path class="cls-1" d="M12,150.18H177c6.63,0,12,4,12,8.91h0c0,4.92-5.37,8.91-12,8.91H12c-6.63,0-12-4-12-8.91H0C0,154.17,5.37,150.18,12,150.18Z" transform="translate(0 0)"/></svg>