<svg xmlns="http://www.w3.org/2000/svg" viewBox="0 0 455 499.91"><defs><style>.cls-1{fill:#e6e6e6;}.cls-2{fill:#fff;}.cls-3{fill:#6c63ff;}</style></defs><title>messaging</title><g id="Capa_2" data-name="Capa 2"><g id="eed3bf71-60ac-4dd5-9baf-083416015b52"><polygon class="cls-1" points="68.35 169.89 455 169.89 455 296.82 440.35 296.82 440.35 330.02 407.16 296.82 68.35 296.82 68.35 169.89"/><rect class="cls-2" x="79.09" y="182.25" width="365.17" height="101.55"/><rect class="cls-3" x="108.45" y="211.9" width="175.82" height="5.34"/><rect class="cls-1" x="108.45" y="230.36" width="306.44" height="5.34"/><rect class="cls-1" x="108.45" y="248.82" width="306.14" height="5.34"/><polygon class="cls-1" points="386.65 339.79 0 339.79 0 466.72 14.65 466.72 14.65 499.91 47.84 466.72 386.65 466.72 386.65 339.79"/><rect class="cls-2" x="10.74" y="352.15" width="365.17" height="101.55"/><rect class="cls-3" x="43.03" y="382.77" width="175.82" height="5.34"/><rect class="cls-1" x="43.03" y="401.23" width="306.44" height="5.34"/><rect class="cls-1" x="43.03" y="419.69" width="306.14" height="5.34"/><polygon class="cls-1" points="386.65 0 0 0 0 126.93 14.65 126.93 14.65 160.13 47.84 126.93 386.65 126.93 386.65 0"/><rect class="cls-2" x="10.74" y="12.36" width="365.17" height="101.55"/><rect class="cls-3" x="43.03" y="42.98" width="175.82" height="5.34"/><rect class="cls-1" x="43.03" y="61.44" width="306.44" height="5.34"/><rect class="cls-1" x="43.03" y="79.9" width="306.14" height="5.34"/></g></g></svg>