<svg xmlns="http://www.w3.org/2000/svg" viewBox="0 0 100.5 104.69"><defs><style>.cls-1{fill-rule:evenodd;}</style></defs><title>notion icon</title><g id="Capa_2" data-name="Capa 2"><g id="Capa_1-2" data-name="Capa 1"><path class="cls-1" d="M64.42.24,6.32,4.51C1.63,4.92,0,8,0,11.63V75.14C0,78,1,80.43,3.47,83.69l13.65,17.7c2.25,2.85,4.28,3.46,8.57,3.26l67.47-4.07c5.71-.41,7.34-3,7.34-7.53V21.61c0-2.32-.92-3-3.62-5l-.46-.33-18.55-13C73.39,0,71.55-.37,64.42.24Zm-37.2,20.2c-5.51.37-6.76.45-9.89-2.09L9.37,12c-.81-.81-.4-1.83,1.64-2L66.86,5.94a11.52,11.52,0,0,1,9,2.64l9.58,6.93c.41.2,1.43,1.42.2,1.42L27.93,20.39Zm-6.43,72V31.79c0-2.65.82-3.87,3.26-4.08L90.3,23.85c2.25-.2,3.27,1.22,3.27,3.86V88c0,2.65-.41,4.89-4.08,5.09l-63.4,3.66C22.42,96.92,20.79,95.7,20.79,92.44ZM83.38,35c.4,1.83,0,3.67-1.84,3.87l-3.06.61V84.3a15.92,15.92,0,0,1-7.13,2.23c-3.26,0-4.08-1-6.52-4.07l-20-31.34V81.45l6.32,1.42s0,3.66-5.1,3.66L32,87.35a2.63,2.63,0,0,1,1.43-3.26l3.67-1V43L32,42.57a3.8,3.8,0,0,1,3.46-4.68l15.09-1L71.35,68.63V40.54l-5.3-.61a3.44,3.44,0,0,1,3.26-4.07Z"/></g></g></svg>