<svg xmlns="http://www.w3.org/2000/svg" viewBox="0 0 905.4 1183"><defs><style>.cls-1{fill:#141414;}.cls-2{fill:#f8b133;}.cls-3{fill:#f29100;}.cls-4{fill:#35a8e0;}.cls-5{fill:#7dcceb;}</style></defs><title>polly icon</title><g id="Capa_2" data-name="Capa 2"><g id="Capa_1-2" data-name="Capa 1"><path class="cls-1" d="M889.2,313.9c0-164-133.1-297.1-297.1-297.1-153.2,0-292.2,60.8-395.4,158.6l-73.3-73.3c7.6-16.3,5.4-36.4-8.2-50a44.19,44.19,0,0,0-62.5,62.5,43.16,43.16,0,0,0,50,8.1L176,196C78.2,299.3,17.4,438.3,17.4,591.5v574.7H36.9c151,0,287.9-58.7,390.5-154.3l36.9,36.9a106.28,106.28,0,0,0-64.6,97.8v19.6H612.1v-19.6c0-56.5-44.5-102.1-99.9-105.4l-56.5-56.5C552.4,882,612.1,743.5,612.1,591.5V554.6C730,545.3,824,451.4,833.2,333.5h56.5Z"/><path class="cls-1" d="M33.7,1149.3h2.7c140.7,0,275.4-53.2,379.1-149.4l27.7-27.1C541,869,594.8,733.3,594.8,591.5V539.4l15.2-1.1c110.3-8.7,196.6-95.6,205.9-205.9l1.1-15.2h55.4v-2.7c0-154.8-126-280.3-280.3-280.3-142.8,0-279.2,54.9-384,154.3l-20.6,20.6C88.5,313.4,33.7,449.7,33.7,592.6Zm2.7,33.7H0V591.5C0,440,58.1,295.5,163,184.7l21.2-21.2C295.5,58.1,440,0,591.5,0,764.8,0,905.4,140.7,905.4,313.9v36.4H847.3C831.6,464.4,742.5,553.4,627.9,569.7V592c0,150.5-57,293.9-161.3,404.7l-28.2,27.7C328.1,1126.5,185.8,1183,36.4,1183"/><path class="cls-2" d="M569.2,1127H441.1a67,67,0,0,1,128.1,0"/><path class="cls-3" d="M505.1,1079.8a79.74,79.74,0,0,1,38.6,47.3h25.5a67.06,67.06,0,0,0-64.1-47.3"/><path class="cls-4" d="M572,591.5c0,289-229.8,524.7-516,535v-535c0-289,229.8-524.7,516-535Z"/><path class="cls-2" d="M611.1,515.5v-182h182c-9.3,96.1-85.9,172.7-182,182"/><path class="cls-3" d="M793,333.5H611l166.7,57.6c8.2-18.5,13.7-37.5,15.3-57.6"/><path class="cls-2" d="M833.2,294.4H611.1V56.5C737.6,66.3,839.2,167.3,849,294.4Z"/><path class="cls-3" d="M612.1,56.5c89.6,44,153.2,133.1,160.8,237.4H849C839.7,167.8,738.7,66.8,612.1,56.5"/><path class="cls-5" d="M115.2,591.5C115.2,322.6,314,99.9,572.5,61.9V56.5c-286.2,10.3-516,246.6-516,535v535a505.83,505.83,0,0,0,58.7-5.4Z"/><path class="cls-5" d="M154.3,896.7v116.8c176-49.4,304.2-205.9,318.8-387.8-58.7,131.5-174.9,234.1-318.8,271"/><path class="cls-1" d="M423.1,340.6a41.8,41.8,0,1,0-41.8-41.8,41.78,41.78,0,0,0,41.8,41.8M138.5,1057.5c217.3-47.8,374.8-243.3,374.8-466H474.2c0,196.1-133.1,369.4-319.9,421.5V591.5H115.2v470.9Z"/></g></g></svg>