<svg id="Capa_1" data-name="Capa 1" xmlns="http://www.w3.org/2000/svg" viewBox="0 0 2369.89 669.71"><defs><style>.cls-1{fill:#443642;}.cls-2{fill:#36c5f0;}.cls-2,.cls-3,.cls-4,.cls-5{fill-rule:evenodd;}.cls-3{fill:#2eb67d;}.cls-4{fill:#ecb22e;}.cls-5{fill:#e01e5a;}</style></defs><title>slack</title><path class="cls-1" d="M888.28,293.84c0-74.36,54.22-126.29,152.75-126.29,60.12,0,109.32,19.2,136,38,3.81,2.69,10.61,9.2,6.53,21.31-5.23,13-14.82,32.68-21.7,45.42-4,7.43-14.23,6.45-19.47,3.8-19-9.62-50.12-25.9-78.73-28.9a167.24,167.24,0,0,0-21.81-.94c-25.2.56-46.25,9.31-53.66,28.53a33.77,33.77,0,0,0-2.39,11.41c-.69,25.33,34.56,34.49,77.26,41.82,79.39,13.6,139.45,36.88,139.45,118.59,0,69.39-55.15,132.1-163.2,130.18-71.24-1.44-121.77-25.51-148.85-48.86-.93-.8-11.24-11.29-5.71-23.92,6.32-16.26,17-34.89,25.37-44.78,4.66-6.35,16.95-7.36,23.34-3.4,22.32,13.87,59.06,36.11,101.4,37.59,3.35.11,6.66.13,9.91.05,38.09-.92,61.14-15.37,60.66-39.7-.42-21.43-30.62-33.95-78.71-43C950,396.29,888.29,371,888.29,293.84m696.83,105.89c-54.09.71-103.68,15.49-105.11,57.76,0,33.55,27.19,50,65.38,47.86,36.64-3.52,64.58-19.41,76.89-40.5,4.55-7.81,5.24-37.05,5-49.54-.07-2.66-5.33-7.7-7.63-8.67-11.49-4.84-20-6.33-34.5-6.92m-180-170.32c25.29-22.63,75.44-57.87,155.37-56C1666,175.58,1721.7,225,1726.89,343.32c2.14,48.78-1.4,184.84-2.25,218.74-.12,4.87-1.77,8.23-8.32,8.35-17.37.7-57.5.43-75.94.18-9.3-.45-10.38-5.06-10.5-9.9-.08-3.16-.35-12.53-.55-20.18-.1-4-3.91-3.94-4.89-2.9-24.74,26.42-65.26,39.18-108.35,39.18-65.49,0-130.78-38.53-130.58-114.83.2-78.14,55.61-116.68,116.47-125.77,39-5.8,82.91-.64,116.18,12.58,2.12.85,6.47-.38,6.5-3.4.14-9.95-.34-28.93-2.25-37.92-4.89-22.92-24-41.36-64.16-46.32a123.65,123.65,0,0,0-24.93-.7c-31.93,2.51-70.34,27.4-86.25,36.72-3.75,2.19-9.61.59-11.5-1.85-9.29-12-32.62-47.08-34.46-52.68s.75-10.3,4-13.24v0Zm356.53,145.46c-.63-109,75.3-200.92,198.6-201.72,76.93-.51,132.83,34.37,142.68,50.82,2,3.87,1,7.09-.41,11-6.51,13.75-23,40.32-34.69,55.38-5,6.41-10.41.92-16.71-3.27-17.48-11.65-50.69-25.88-83.38-25.88-59.3,0-103.45,40.67-103,115.47.46,71.79,42.76,111.24,103.17,112.67,31.58.79,62.18-17.36,78.64-32.23,5.17-4.51,10.52-2.25,16.43,2.36,11.59,11.85,28.21,30.15,37.43,42.74,6,7,1.52,13.84-.65,16.59-25,31.65-73.32,58.29-137.25,58.65-133.87.94-200.27-93.18-200.89-202.55m639,197.64c6.28-.47,73.33-9.73,93.91-14.44,5.11-1.17,6.93-5.46,4.07-9.72-11.49-17.23-41.7-66.17-73.35-110-29.11-40.29-59.79-75.72-69.71-89.35-2.42-3.31-2.29-6.57.35-9.14,18.87-18.47,97.82-95.88,127.51-127.85,11.49-12.44,4.59-17.79-5.17-20.69-18.86-5.62-49.35-12.63-66.7-16.29-7.31-1.54-16.12-1-22.51,5.57-29.68,27.68-120.26,118.59-147.3,145.77-4.87,4.9-7.7,3.81-7.73-3.19-.22-52.4-1.25-276.72-3.12-313.61-.14-4.88-6-8.59-9.31-8.76-17-.89-60-1.15-76.88-.15-4.75.54-9.28,5.37-9.69,9.45-3.9,59,1.66,492.09,4,552.68a8.14,8.14,0,0,0,7.58,8c16.89,1,58.66.91,78.16.55,9.6,0,10.77-6.75,10.77-6.75L2237,448.42s1-5.17,2.59-6.88c6.87-7.4,25.89-27.78,34-35.66,1.95-1.9,5-1.76,7,.91,9.63,13,37.11,55.26,62.58,93,23.4,34.67,45.25,65.43,46.77,67.61,3.53,5,7.64,5.22,10.74,5.12Zm-1140.38-.4c5.89.19,50.64.14,70.46.12a9.83,9.83,0,0,0,10.36-9.39c4.21-84.94,2.41-489.37-.25-553.23-.22-5.52-2.58-7.59-6.35-8.09-17-2.28-65.36-1.75-80.86,2.31a6.22,6.22,0,0,0-4.91,6.05c-3.8,164.61-1.24,544.11-.44,551.29s4.57,10.68,12,10.94Z" transform="translate(-130.12 -0.04)"/><path class="cls-2" d="M352.78,61.25a60.84,60.84,0,0,0,0,121.67h60.74V122.11a60.83,60.83,0,0,0-60.76-60.86h0m0,162.26H190.86a60.85,60.85,0,0,0,0,121.7H352.78a60.85,60.85,0,0,0,0-121.7Z" transform="translate(-130.12 -0.04)"/><path class="cls-3" d="M737.4,284.35a60.74,60.74,0,1,0-121.47,0v60.86h60.73A60.79,60.79,0,0,0,737.4,284.35Zm-161.94,0V122.09a60.73,60.73,0,1,0-121.45,0V284.35a60.73,60.73,0,1,0,121.45,0Z" transform="translate(-130.12 -0.04)"/><path class="cls-4" d="M514.72,669.75a60.84,60.84,0,0,0,0-121.68H454v60.84A60.83,60.83,0,0,0,514.72,669.75Zm0-162.29H676.66a60.85,60.85,0,0,0,0-121.7h-162a60.85,60.85,0,0,0,0,121.7Z" transform="translate(-130.12 -0.04)"/><path class="cls-5" d="M130.12,446.62a60.74,60.74,0,1,0,121.48,0V385.78H190.86A60.79,60.79,0,0,0,130.12,446.62Zm161.94,0V608.88a60.73,60.73,0,1,0,121.45,0V446.67a60.73,60.73,0,1,0-121.45-.05h0" transform="translate(-130.12 -0.04)"/></svg>