<svg xmlns="http://www.w3.org/2000/svg" viewBox="0 0 299.91 70.61"><defs><style>.cls-1{fill:#fff;}.cls-2{opacity:0.4;}.cls-3{fill:#00d2ff;}.cls-4{fill:#ffbd00;}.cls-5{fill:#e32752;}.cls-6{fill:#15cf74;}.cls-7{fill:#f25022;}.cls-8{fill:#7fba00;}.cls-9{fill:#00a4ef;}.cls-10{fill:#ffb900;}</style></defs><title>stores</title><g id="Capa_2" data-name="Capa 2"><g id="Capa_2-2" data-name="Capa 2"><circle class="cls-1" cx="35.3" cy="35.3" r="35.3"/><circle class="cls-1" cx="149.95" cy="35.3" r="35.3"/><circle class="cls-1" cx="264.6" cy="35.3" r="35.3"/></g><g id="ES_Download_on_the" data-name="ES Download on the"><g class="cls-2"><path d="M161.25,35.69a9.44,9.44,0,0,1,4.49-7.9,9.66,9.66,0,0,0-7.6-4.11c-3.19-.33-6.29,1.92-7.92,1.92s-4.17-1.88-6.87-1.83A10.13,10.13,0,0,0,134.83,29c-3.68,6.38-.93,15.74,2.6,20.9,1.76,2.52,3.82,5.34,6.52,5.24s3.63-1.69,6.81-1.69,4.09,1.69,6.84,1.62,4.62-2.53,6.32-5.08a20.79,20.79,0,0,0,2.89-5.88A9.13,9.13,0,0,1,161.25,35.69Z"/><path d="M156.05,20.29a9.31,9.31,0,0,0,2.13-6.64,9.43,9.43,0,0,0-6.11,3.16,8.83,8.83,0,0,0-2.18,6.4A7.8,7.8,0,0,0,156.05,20.29Z"/></g><path class="cls-3" d="M249,15.31a3.29,3.29,0,0,0-.75,2.29V53.7A3.29,3.29,0,0,0,249,56l.11.11,20.23-20.21v-.47L249.14,15.2Z"/><path class="cls-4" d="M276.06,42.63l-6.69-6.74v-.47l6.69-6.76.15.09,8,4.55c2.28,1.29,2.28,3.41,0,4.72l-8,4.53Z"/><path class="cls-5" d="M276.25,42.54l-6.88-6.89L249,56a2.67,2.67,0,0,0,3.4.09l23.84-13.54"/><path class="cls-6" d="M276.25,28.76,252.41,15.21a2.68,2.68,0,0,0-3.4.1l20.36,20.34Z"/><rect class="cls-7" x="14.64" y="14.67" width="19.63" height="19.63"/><rect class="cls-8" x="36.33" y="14.67" width="19.63" height="19.63"/><rect class="cls-9" x="14.64" y="36.36" width="19.63" height="19.63"/><rect class="cls-10" x="36.33" y="36.36" width="19.63" height="19.63"/></g></g></svg>