<svg xmlns="http://www.w3.org/2000/svg" viewBox="0 0 365.46 170.52"><defs><style>.cls-1{fill:#434245;}.cls-2{fill:#15c;}.cls-3{fill:#2ea664;fill-rule:evenodd;}.cls-4{fill:#fff;}</style></defs><title>texto unirse3_2</title><g id="Capa_2" data-name="Capa 2"><g id="Capa_1-2" data-name="Capa 1"><path class="cls-1" d="M11.72,10.46l3.16,1a7.12,7.12,0,0,1-2.41,3.92,6.88,6.88,0,0,1-4.29,1.28,6.93,6.93,0,0,1-5.27-2.19,8.38,8.38,0,0,1-2.07-6A8.76,8.76,0,0,1,2.92,2.23,7.1,7.1,0,0,1,8.38,0a6.72,6.72,0,0,1,4.81,1.75,6.33,6.33,0,0,1,1.64,3l-3.22.76a3.34,3.34,0,0,0-3.39-2.7A3.65,3.65,0,0,0,5.31,4.07,6.29,6.29,0,0,0,4.19,8.23c0,2,.37,3.49,1.1,4.35a3.57,3.57,0,0,0,2.86,1.3,3.24,3.24,0,0,0,2.23-.82A4.75,4.75,0,0,0,11.72,10.46Z"/><path class="cls-1" d="M16.93,10.39a6.38,6.38,0,0,1,.76-3,5.24,5.24,0,0,1,2.15-2.2A6.34,6.34,0,0,1,23,4.45a5.82,5.82,0,0,1,4.34,1.72A6,6,0,0,1,29,10.52a6,6,0,0,1-1.71,4.39A5.77,5.77,0,0,1,23,16.65a6.81,6.81,0,0,1-3.06-.72,5.08,5.08,0,0,1-2.22-2.13A7.13,7.13,0,0,1,16.93,10.39Zm3.17.16a3.85,3.85,0,0,0,.82,2.66,2.61,2.61,0,0,0,2,.92,2.57,2.57,0,0,0,2-.92,3.89,3.89,0,0,0,.82-2.68A3.85,3.85,0,0,0,25,7.89,2.6,2.6,0,0,0,23,7a2.64,2.64,0,0,0-2,.92A3.87,3.87,0,0,0,20.1,10.55Z"/><path class="cls-1" d="M42,16.39H38.93v-6A9.21,9.21,0,0,0,38.73,8a1.78,1.78,0,0,0-.64-.87A1.9,1.9,0,0,0,37,6.81a2.48,2.48,0,0,0-1.44.44,2.27,2.27,0,0,0-.88,1.17,9.91,9.91,0,0,0-.24,2.68v5.29H31.38V4.72h2.87V6.43a4.66,4.66,0,0,1,3.84-2A4.56,4.56,0,0,1,40,4.82a3.21,3.21,0,0,1,1.28.94,3.46,3.46,0,0,1,.61,1.3A9.79,9.79,0,0,1,42,9.13Z"/><path class="cls-1" d="M43.8,4.72h1.71V3.84a6,6,0,0,1,.31-2.2A2.45,2.45,0,0,1,47,.46,4.36,4.36,0,0,1,49.11,0a8.42,8.42,0,0,1,2.58.4l-.42,2.15a5.94,5.94,0,0,0-1.42-.18,1.26,1.26,0,0,0-1,.32,1.84,1.84,0,0,0-.29,1.2v.83h2.31V7.14H48.6v9.25H45.51V7.14H43.8Z"/><path class="cls-1" d="M52.64,3.13V.27h3.09V3.13Zm0,13.26V4.72h3.09V16.39Z"/><path class="cls-1" d="M61.86,16.39H58.77V4.72h2.87V6.38A4.83,4.83,0,0,1,63,4.83a2.44,2.44,0,0,1,1.34-.38,4,4,0,0,1,2,.58l-1,2.7a2.68,2.68,0,0,0-1.45-.51,1.71,1.71,0,0,0-1.1.36,2.51,2.51,0,0,0-.71,1.29,18.68,18.68,0,0,0-.25,3.91Z"/><path class="cls-1" d="M67.43,4.72h2.84V6.31a4.59,4.59,0,0,1,3.64-1.86,4,4,0,0,1,2,.46,3.57,3.57,0,0,1,1.35,1.4,5.49,5.49,0,0,1,1.66-1.4,4.16,4.16,0,0,1,1.9-.46A4.34,4.34,0,0,1,83,5a3.25,3.25,0,0,1,1.33,1.54,6.67,6.67,0,0,1,.32,2.41v7.47H81.51V9.72a5,5,0,0,0-.32-2.25,1.47,1.47,0,0,0-1.32-.66,2.15,2.15,0,0,0-2,1.56,8.22,8.22,0,0,0-.26,2.41v5.61H74.48V10a9,9,0,0,0-.16-2.2,1.38,1.38,0,0,0-.51-.73,1.64,1.64,0,0,0-.94-.25,2.23,2.23,0,0,0-1.29.39,2.17,2.17,0,0,0-.82,1.11,8.5,8.5,0,0,0-.24,2.41v5.67H67.43Z"/><path class="cls-1" d="M90,8.28l-2.8-.51a4.37,4.37,0,0,1,1.63-2.51,6,6,0,0,1,3.43-.81,7.3,7.3,0,0,1,3.07.49,3.11,3.11,0,0,1,1.43,1.24A6.48,6.48,0,0,1,97.15,9l0,3.6a13.6,13.6,0,0,0,.14,2.27,6.79,6.79,0,0,0,.56,1.57H94.76c-.08-.21-.18-.51-.29-.91,0-.19-.09-.31-.11-.37a5.48,5.48,0,0,1-1.7,1.16,4.94,4.94,0,0,1-1.92.38,3.94,3.94,0,0,1-2.84-1,3.25,3.25,0,0,1-1-2.47,3.33,3.33,0,0,1,.47-1.76,3.07,3.07,0,0,1,1.33-1.19,9.85,9.85,0,0,1,2.45-.72,16.3,16.3,0,0,0,3-.76V8.46a1.63,1.63,0,0,0-.44-1.27A2.67,2.67,0,0,0,92,6.81a2.2,2.2,0,0,0-1.29.33A2.19,2.19,0,0,0,90,8.28Zm4.14,2.5c-.4.13-1,.29-1.88.48a5.94,5.94,0,0,0-1.69.53,1.3,1.3,0,0,0-.6,1.09A1.51,1.51,0,0,0,90.43,14a1.7,1.7,0,0,0,1.23.48,2.74,2.74,0,0,0,1.6-.55,1.9,1.9,0,0,0,.73-1,5.47,5.47,0,0,0,.13-1.5Z"/><path class="cls-1" d="M111.8,4.72V7.18h-2.11v4.7a11.93,11.93,0,0,0,.06,1.67.7.7,0,0,0,.28.39.86.86,0,0,0,.52.15,4,4,0,0,0,1.24-.3l.26,2.4a6.1,6.1,0,0,1-2.44.46,3.78,3.78,0,0,1-1.5-.28,2.2,2.2,0,0,1-1-.72,3,3,0,0,1-.43-1.21,14.26,14.26,0,0,1-.1-2.17V7.18h-1.42V4.72h1.42V2.4l3.1-1.81V4.72Z"/><path class="cls-1" d="M121.63,16.39V14.64A4.6,4.6,0,0,1,120,16.11a4.67,4.67,0,0,1-2.19.54,4.31,4.31,0,0,1-2.11-.51,3,3,0,0,1-1.35-1.46,6.41,6.41,0,0,1-.42-2.58V4.72H117v5.36a14.44,14.44,0,0,0,.17,3,1.64,1.64,0,0,0,.62.88,1.94,1.94,0,0,0,1.14.32,2.43,2.43,0,0,0,1.42-.43,2.24,2.24,0,0,0,.86-1.08,12.74,12.74,0,0,0,.23-3.15V4.72h3.09V16.39Z"/><path class="cls-1" d="M144.65,16.39h-2.86V14.67a4.58,4.58,0,0,1-1.69,1.49,4.28,4.28,0,0,1-2,.49A4.45,4.45,0,0,1,134.69,15a6.57,6.57,0,0,1-1.43-4.52A6.51,6.51,0,0,1,134.65,6a4.56,4.56,0,0,1,3.53-1.55,4.38,4.38,0,0,1,3.39,1.63V.27h3.08Zm-8.24-6.09a5.26,5.26,0,0,0,.52,2.7A2.33,2.33,0,0,0,139,14.21a2.28,2.28,0,0,0,1.81-.9,4.19,4.19,0,0,0,.75-2.71,4.6,4.6,0,0,0-.73-2.9A2.29,2.29,0,0,0,139,6.81a2.34,2.34,0,0,0-1.84.88A4,4,0,0,0,136.41,10.3Z"/><path class="cls-1" d="M147.7,3.13V.27h3.09V3.13Zm0,13.26V4.72h3.09V16.39Z"/><path class="cls-1" d="M156.91,16.39h-3.09V4.72h2.87V6.38A4.83,4.83,0,0,1,158,4.83a2.46,2.46,0,0,1,1.34-.38,4,4,0,0,1,2,.58l-.95,2.7A2.71,2.71,0,0,0,159,7.22a1.69,1.69,0,0,0-1.1.36,2.44,2.44,0,0,0-.71,1.29,18.45,18.45,0,0,0-.26,3.91Z"/><path class="cls-1" d="M169.47,12.67l3.08.52a5.09,5.09,0,0,1-1.87,2.58,5.54,5.54,0,0,1-3.21.88,5.2,5.2,0,0,1-4.5-2,6.67,6.67,0,0,1-1.16-4,6.48,6.48,0,0,1,1.52-4.55,5,5,0,0,1,3.83-1.64,5.19,5.19,0,0,1,4.12,1.72q1.5,1.73,1.44,5.27H165a3.14,3.14,0,0,0,.74,2.14,2.34,2.34,0,0,0,1.79.76,1.92,1.92,0,0,0,1.22-.39A2.47,2.47,0,0,0,169.47,12.67Zm.18-3.12a3,3,0,0,0-.69-2,2.23,2.23,0,0,0-3.28,0,2.84,2.84,0,0,0-.65,2Z"/><path class="cls-1" d="M185.41,8.17l-3,.55a2.22,2.22,0,0,0-.69-1.38,2.13,2.13,0,0,0-1.42-.46,2.33,2.33,0,0,0-1.84.8,4.13,4.13,0,0,0-.68,2.66,4.77,4.77,0,0,0,.69,2.94,2.3,2.3,0,0,0,1.88.85,2.06,2.06,0,0,0,1.44-.5,3,3,0,0,0,.79-1.72l3,.52a5.39,5.39,0,0,1-1.81,3.16,5.6,5.6,0,0,1-3.59,1.06A5.38,5.38,0,0,1,176.07,15a6.3,6.3,0,0,1-1.52-4.48,6.29,6.29,0,0,1,1.53-4.5,5.43,5.43,0,0,1,4.13-1.61,5.65,5.65,0,0,1,3.39.92A5.08,5.08,0,0,1,185.41,8.17Z"/><path class="cls-1" d="M197.93,8.17l-3.05.55a2.22,2.22,0,0,0-.69-1.38,2.13,2.13,0,0,0-1.42-.46,2.31,2.31,0,0,0-1.84.8,4.13,4.13,0,0,0-.68,2.66,4.77,4.77,0,0,0,.69,2.94,2.3,2.3,0,0,0,1.88.85,2.07,2.07,0,0,0,1.44-.5,3,3,0,0,0,.79-1.72l3,.52a5.39,5.39,0,0,1-1.81,3.16,5.6,5.6,0,0,1-3.59,1.06A5.38,5.38,0,0,1,188.59,15a6.3,6.3,0,0,1-1.52-4.48,6.29,6.29,0,0,1,1.53-4.5,5.43,5.43,0,0,1,4.13-1.61,5.65,5.65,0,0,1,3.39.92A5.08,5.08,0,0,1,197.93,8.17Z"/><path class="cls-1" d="M200.27,3.13V.27h3.09V3.13Zm0,13.26V4.72h3.09V16.39Z"/><path class="cls-1" d="M205.81,10.39a6.26,6.26,0,0,1,.76-3,5.19,5.19,0,0,1,2.15-2.2,6.3,6.3,0,0,1,3.1-.76,5.79,5.79,0,0,1,4.34,1.72,6,6,0,0,1,1.7,4.35,6,6,0,0,1-1.71,4.39,5.8,5.8,0,0,1-4.31,1.74,6.81,6.81,0,0,1-3.06-.72,5,5,0,0,1-2.21-2.13A7,7,0,0,1,205.81,10.39Zm3.17.16a3.85,3.85,0,0,0,.82,2.66,2.7,2.7,0,0,0,4.06,0,3.89,3.89,0,0,0,.82-2.68,3.85,3.85,0,0,0-.82-2.64,2.7,2.7,0,0,0-4.06,0A3.87,3.87,0,0,0,209,10.55Zm1.29-7.26L211.79,0h3.46l-3,3.29Z"/><path class="cls-1" d="M230.89,16.39H227.8v-6A9.36,9.36,0,0,0,227.61,8a1.8,1.8,0,0,0-.65-.87,1.85,1.85,0,0,0-1.07-.31,2.52,2.52,0,0,0-1.44.44,2.25,2.25,0,0,0-.87,1.17,9.91,9.91,0,0,0-.24,2.68v5.29h-3.09V4.72h2.87V6.43a4.67,4.67,0,0,1,3.85-2,4.59,4.59,0,0,1,1.87.37,3.21,3.21,0,0,1,1.28.94,3.3,3.3,0,0,1,.6,1.3,9.17,9.17,0,0,1,.17,2.07Z"/><path class="cls-1" d="M251,16.39h-2.86V14.67a4.58,4.58,0,0,1-1.69,1.49,4.28,4.28,0,0,1-2,.49A4.46,4.46,0,0,1,241,15a6.57,6.57,0,0,1-1.43-4.52A6.51,6.51,0,0,1,241,6a4.56,4.56,0,0,1,3.53-1.55,4.38,4.38,0,0,1,3.39,1.63V.27H251Zm-8.24-6.09a5.26,5.26,0,0,0,.52,2.7,2.33,2.33,0,0,0,2.09,1.21,2.28,2.28,0,0,0,1.81-.9,4.19,4.19,0,0,0,.75-2.71,4.53,4.53,0,0,0-.73-2.9,2.29,2.29,0,0,0-1.86-.89,2.34,2.34,0,0,0-1.84.88A4,4,0,0,0,242.74,10.3Z"/><path class="cls-1" d="M260.79,12.67l3.08.52A5,5,0,0,1,262,15.77a5.49,5.49,0,0,1-3.2.88,5.23,5.23,0,0,1-4.51-2,6.66,6.66,0,0,1-1.15-4,6.43,6.43,0,0,1,1.52-4.55,5,5,0,0,1,3.83-1.64,5.16,5.16,0,0,1,4.11,1.72q1.52,1.73,1.44,5.27h-7.74a3.15,3.15,0,0,0,.75,2.14,2.34,2.34,0,0,0,1.78.76A1.9,1.9,0,0,0,260,14,2.48,2.48,0,0,0,260.79,12.67ZM261,9.55a3,3,0,0,0-.7-2,2.22,2.22,0,0,0-3.27,0,2.84,2.84,0,0,0-.65,2Z"/><path class="cls-1" d="M283,8.17l-3,.55a2.28,2.28,0,0,0-.7-1.38,2.1,2.1,0,0,0-1.41-.46,2.33,2.33,0,0,0-1.85.8,4.13,4.13,0,0,0-.68,2.66,4.7,4.7,0,0,0,.7,2.94,2.28,2.28,0,0,0,1.87.85,2,2,0,0,0,1.44-.5,3,3,0,0,0,.79-1.72l3,.52a5.34,5.34,0,0,1-1.81,3.16,5.6,5.6,0,0,1-3.59,1.06A5.38,5.38,0,0,1,273.64,15a6.3,6.3,0,0,1-1.52-4.48,6.29,6.29,0,0,1,1.53-4.5,5.44,5.44,0,0,1,4.13-1.61,5.65,5.65,0,0,1,3.39.92A5.08,5.08,0,0,1,283,8.17Z"/><path class="cls-1" d="M284.61,10.39a6.26,6.26,0,0,1,.76-3,5.19,5.19,0,0,1,2.15-2.2,6.3,6.3,0,0,1,3.1-.76A5.81,5.81,0,0,1,295,6.17a6,6,0,0,1,1.69,4.35,6,6,0,0,1-1.71,4.39,5.76,5.76,0,0,1-4.3,1.74,6.81,6.81,0,0,1-3.06-.72,5,5,0,0,1-2.21-2.13A7,7,0,0,1,284.61,10.39Zm3.16.16a3.85,3.85,0,0,0,.83,2.66,2.7,2.7,0,0,0,4.06,0,3.94,3.94,0,0,0,.82-2.68,3.9,3.9,0,0,0-.82-2.64,2.7,2.7,0,0,0-4.06,0A3.87,3.87,0,0,0,287.77,10.55Z"/><path class="cls-1" d="M302,16.39h-3.09V4.72h2.87V6.38a4.83,4.83,0,0,1,1.32-1.55,2.46,2.46,0,0,1,1.34-.38,4,4,0,0,1,2,.58l-.95,2.7a2.71,2.71,0,0,0-1.45-.51,1.69,1.69,0,0,0-1.1.36,2.44,2.44,0,0,0-.71,1.29,17.77,17.77,0,0,0-.26,3.91Z"/><path class="cls-1" d="M310.79,16.39H307.7V4.72h2.87V6.38a4.83,4.83,0,0,1,1.32-1.55,2.46,2.46,0,0,1,1.34-.38,4,4,0,0,1,2,.58l-.95,2.7a2.71,2.71,0,0,0-1.46-.51,1.68,1.68,0,0,0-1.09.36,2.44,2.44,0,0,0-.71,1.29,17.77,17.77,0,0,0-.26,3.91Z"/><path class="cls-1" d="M323.35,12.67l3.08.52a5.09,5.09,0,0,1-1.87,2.58,5.54,5.54,0,0,1-3.21.88,5.2,5.2,0,0,1-4.5-2,6.67,6.67,0,0,1-1.16-4,6.48,6.48,0,0,1,1.52-4.55A5,5,0,0,1,321,4.45a5.16,5.16,0,0,1,4.11,1.72q1.52,1.73,1.45,5.27h-7.74a3.14,3.14,0,0,0,.74,2.14,2.34,2.34,0,0,0,1.79.76A1.89,1.89,0,0,0,322.6,14,2.42,2.42,0,0,0,323.35,12.67Zm.18-3.12a3,3,0,0,0-.69-2,2.23,2.23,0,0,0-3.28,0,2.84,2.84,0,0,0-.65,2Z"/><path class="cls-1" d="M328.4,10.39a6.26,6.26,0,0,1,.76-3,5.19,5.19,0,0,1,2.15-2.2,6.3,6.3,0,0,1,3.1-.76,5.81,5.81,0,0,1,4.34,1.72,6,6,0,0,1,1.69,4.35,6,6,0,0,1-1.71,4.39,5.76,5.76,0,0,1-4.3,1.74,6.81,6.81,0,0,1-3.06-.72,5,5,0,0,1-2.21-2.13A7,7,0,0,1,328.4,10.39Zm3.16.16a3.85,3.85,0,0,0,.83,2.66,2.7,2.7,0,0,0,4.06,0,3.94,3.94,0,0,0,.82-2.68,3.9,3.9,0,0,0-.82-2.64,2.7,2.7,0,0,0-4.06,0A3.87,3.87,0,0,0,331.56,10.55Z"/><path class="cls-1" d="M1.3,30.23H4.18v1.71A4.45,4.45,0,0,1,5.7,30.51,4.24,4.24,0,0,1,7.82,30a4.42,4.42,0,0,1,3.45,1.6A6.42,6.42,0,0,1,12.69,36a6.64,6.64,0,0,1-1.43,4.54A4.44,4.44,0,0,1,7.8,42.16a3.84,3.84,0,0,1-1.75-.38,6,6,0,0,1-1.66-1.32v5.88H1.3Zm3.06,5.64a4.47,4.47,0,0,0,.78,2.9,2.37,2.37,0,0,0,1.9.94,2.2,2.2,0,0,0,1.79-.86A4.43,4.43,0,0,0,9.55,36a4.26,4.26,0,0,0-.74-2.73A2.29,2.29,0,0,0,7,32.4a2.34,2.34,0,0,0-1.88.88A3.87,3.87,0,0,0,4.36,35.87Z"/><path class="cls-1" d="M17.45,33.79l-2.8-.51a4.3,4.3,0,0,1,1.62-2.5A5.91,5.91,0,0,1,19.7,30a7.48,7.48,0,0,1,3.08.49,3,3,0,0,1,1.42,1.24,6.32,6.32,0,0,1,.42,2.77l0,3.6a12.3,12.3,0,0,0,.15,2.27,6.79,6.79,0,0,0,.56,1.57H22.23c-.08-.21-.18-.51-.3-.91a2,2,0,0,0-.11-.36,5.58,5.58,0,0,1-1.69,1.15,4.77,4.77,0,0,1-1.92.38,4,4,0,0,1-2.84-1,3.25,3.25,0,0,1-1-2.48A3.33,3.33,0,0,1,14.8,37a3.14,3.14,0,0,1,1.33-1.19A10.63,10.63,0,0,1,18.58,35a15.92,15.92,0,0,0,3-.76V34a1.56,1.56,0,0,0-.44-1.27,2.57,2.57,0,0,0-1.66-.38,2.17,2.17,0,0,0-1.28.32A2.27,2.27,0,0,0,17.45,33.79Zm4.13,2.5a17.91,17.91,0,0,1-1.88.48,5.56,5.56,0,0,0-1.68.54,1.27,1.27,0,0,0-.6,1.08,1.5,1.5,0,0,0,.48,1.12,1.67,1.67,0,0,0,1.23.48,2.74,2.74,0,0,0,1.6-.55,2,2,0,0,0,.73-1,6.22,6.22,0,0,0,.12-1.51Z"/><path class="cls-1" d="M30.62,41.9H27.53V30.23H30.4v1.66a4.94,4.94,0,0,1,1.32-1.55A2.44,2.44,0,0,1,33.06,30a3.91,3.91,0,0,1,2,.59l-1,2.69a2.74,2.74,0,0,0-1.46-.51,1.73,1.73,0,0,0-1.1.36,2.44,2.44,0,0,0-.7,1.29,17.77,17.77,0,0,0-.26,3.91Z"/><path class="cls-1" d="M38.73,33.79l-2.8-.51a4.3,4.3,0,0,1,1.62-2.5A5.91,5.91,0,0,1,41,30a7.48,7.48,0,0,1,3.08.49,3.09,3.09,0,0,1,1.42,1.24,6.32,6.32,0,0,1,.42,2.77l0,3.6A12.3,12.3,0,0,0,46,40.33a6.79,6.79,0,0,0,.56,1.57H43.51c-.08-.21-.18-.51-.3-.91a2,2,0,0,0-.11-.36,5.58,5.58,0,0,1-1.69,1.15,4.77,4.77,0,0,1-1.92.38,4,4,0,0,1-2.84-1,3.25,3.25,0,0,1-1-2.48A3.33,3.33,0,0,1,36.08,37a3.14,3.14,0,0,1,1.33-1.19A10.63,10.63,0,0,1,39.86,35a15.92,15.92,0,0,0,3-.76V34a1.56,1.56,0,0,0-.44-1.27,2.57,2.57,0,0,0-1.66-.38,2.15,2.15,0,0,0-1.28.32A2.27,2.27,0,0,0,38.73,33.79Zm4.13,2.5a17.91,17.91,0,0,1-1.88.48,5.46,5.46,0,0,0-1.68.54,1.27,1.27,0,0,0-.6,1.08,1.5,1.5,0,0,0,.48,1.12,1.67,1.67,0,0,0,1.23.48A2.69,2.69,0,0,0,42,39.44a1.94,1.94,0,0,0,.74-1,6.22,6.22,0,0,0,.12-1.51Z"/><path class="cls-1" d="M62,38.18,65,38.7a5,5,0,0,1-1.87,2.58,5.52,5.52,0,0,1-3.21.88,5.2,5.2,0,0,1-4.5-2,6.67,6.67,0,0,1-1.16-4,6.44,6.44,0,0,1,1.52-4.54A5,5,0,0,1,59.65,30a5.22,5.22,0,0,1,4.11,1.72q1.5,1.73,1.44,5.27H57.46a3.1,3.1,0,0,0,.75,2.14,2.33,2.33,0,0,0,1.78.77,1.92,1.92,0,0,0,1.22-.4A2.37,2.37,0,0,0,62,38.18Zm.18-3.12a3,3,0,0,0-.69-2,2.25,2.25,0,0,0-3.28,0,2.89,2.89,0,0,0-.65,2Z"/><path class="cls-1" d="M67.48,30.23h2.85v1.59A4.58,4.58,0,0,1,74,30a4,4,0,0,1,1.94.46,3.67,3.67,0,0,1,1.36,1.4,5.37,5.37,0,0,1,1.66-1.4,4.13,4.13,0,0,1,1.9-.46,4.2,4.2,0,0,1,2.17.53A3.08,3.08,0,0,1,84.33,32a6.48,6.48,0,0,1,.32,2.42V41.9H81.56V35.23A4.81,4.81,0,0,0,81.24,33a1.45,1.45,0,0,0-1.31-.66,2.11,2.11,0,0,0-1.22.39,2.19,2.19,0,0,0-.83,1.16,8.34,8.34,0,0,0-.25,2.41V41.9H74.54V35.5a8.83,8.83,0,0,0-.17-2.2,1.42,1.42,0,0,0-.51-.73,1.61,1.61,0,0,0-.94-.24,2.21,2.21,0,0,0-1.28.38,2.12,2.12,0,0,0-.82,1.11,8.06,8.06,0,0,0-.25,2.41V41.9H67.48Z"/><path class="cls-1" d="M87.64,30.23h2.88v1.71A4.36,4.36,0,0,1,92,30.51,4.24,4.24,0,0,1,94.16,30a4.43,4.43,0,0,1,3.45,1.6A6.42,6.42,0,0,1,99,36a6.64,6.64,0,0,1-1.43,4.54,4.45,4.45,0,0,1-3.46,1.62,3.92,3.92,0,0,1-1.76-.38,6.1,6.1,0,0,1-1.65-1.32v5.88H87.64Zm3.06,5.64a4.47,4.47,0,0,0,.78,2.9,2.37,2.37,0,0,0,1.9.94,2.21,2.21,0,0,0,1.79-.86A4.44,4.44,0,0,0,95.88,36a4.26,4.26,0,0,0-.73-2.73,2.29,2.29,0,0,0-1.83-.89,2.36,2.36,0,0,0-1.88.88A3.92,3.92,0,0,0,90.7,35.87Z"/><path class="cls-1" d="M108.24,38.18l3.08.52a5,5,0,0,1-1.88,2.58,5.49,5.49,0,0,1-3.2.88,5.23,5.23,0,0,1-4.51-2,6.66,6.66,0,0,1-1.15-4,6.39,6.39,0,0,1,1.52-4.54A5,5,0,0,1,105.93,30,5.19,5.19,0,0,1,110,31.68q1.51,1.73,1.44,5.27h-7.74a3.15,3.15,0,0,0,.75,2.14,2.35,2.35,0,0,0,1.78.77,1.9,1.9,0,0,0,1.22-.4A2.44,2.44,0,0,0,108.24,38.18Zm.18-3.12a3,3,0,0,0-.7-2,2.24,2.24,0,0,0-3.27,0,2.84,2.84,0,0,0-.65,2Z"/><path class="cls-1" d="M112.76,41.9V39.49l4.37-5c.72-.82,1.25-1.4,1.6-1.75-.36,0-.84,0-1.42.05l-4.12,0V30.23h9.65v2.18l-4.47,5.15-1.57,1.7c.86,0,1.39-.07,1.6-.07h4.78V41.9Z"/><path class="cls-1" d="M127.56,33.79l-2.8-.51a4.31,4.31,0,0,1,1.63-2.5,5.89,5.89,0,0,1,3.43-.82,7.46,7.46,0,0,1,3.07.49,3.11,3.11,0,0,1,1.43,1.24,6.51,6.51,0,0,1,.41,2.77l0,3.6a13.52,13.52,0,0,0,.14,2.27,6.79,6.79,0,0,0,.56,1.57h-3.06c-.08-.21-.18-.51-.29-.91a3.56,3.56,0,0,0-.11-.36,5.74,5.74,0,0,1-1.7,1.15,4.77,4.77,0,0,1-1.92.38,4,4,0,0,1-2.84-1,3.28,3.28,0,0,1-1-2.48,3.33,3.33,0,0,1,.47-1.76,3.14,3.14,0,0,1,1.33-1.19,10.78,10.78,0,0,1,2.45-.72,15.92,15.92,0,0,0,3-.76V34a1.6,1.6,0,0,0-.43-1.27,2.61,2.61,0,0,0-1.66-.38,2.2,2.2,0,0,0-1.29.32A2.27,2.27,0,0,0,127.56,33.79Zm4.13,2.5a18.26,18.26,0,0,1-1.87.48,5.55,5.55,0,0,0-1.69.54,1.27,1.27,0,0,0-.6,1.08,1.5,1.5,0,0,0,.48,1.12,1.68,1.68,0,0,0,1.23.48,2.74,2.74,0,0,0,1.6-.55,1.92,1.92,0,0,0,.73-1,6.22,6.22,0,0,0,.12-1.51Z"/><path class="cls-1" d="M140.73,41.9h-3.09V30.23h2.87v1.66a4.94,4.94,0,0,1,1.32-1.55,2.46,2.46,0,0,1,1.34-.38,3.91,3.91,0,0,1,2,.59l-.95,2.69a2.71,2.71,0,0,0-1.45-.51,1.69,1.69,0,0,0-1.1.36,2.44,2.44,0,0,0-.71,1.29,18.45,18.45,0,0,0-.26,3.91Z"/><path class="cls-1" d="M155.1,33.79l-2.81-.51a4.36,4.36,0,0,1,1.63-2.5,5.89,5.89,0,0,1,3.43-.82,7.51,7.51,0,0,1,3.08.49,3.09,3.09,0,0,1,1.42,1.24,6.35,6.35,0,0,1,.41,2.77l0,3.6a12.3,12.3,0,0,0,.15,2.27,6.72,6.72,0,0,0,.55,1.57h-3.05c-.08-.21-.18-.51-.3-.91a3.56,3.56,0,0,0-.11-.36,5.7,5.7,0,0,1-1.69,1.15,4.78,4.78,0,0,1-1.93.38,4,4,0,0,1-2.84-1,3.28,3.28,0,0,1-1-2.48,3.25,3.25,0,0,1,.48-1.76,3.05,3.05,0,0,1,1.32-1.19,10.89,10.89,0,0,1,2.46-.72,16.37,16.37,0,0,0,3-.76V34a1.6,1.6,0,0,0-.44-1.27,2.59,2.59,0,0,0-1.66-.38,2.2,2.2,0,0,0-1.29.32A2.33,2.33,0,0,0,155.1,33.79Zm4.13,2.5a18.61,18.61,0,0,1-1.88.48,5.36,5.36,0,0,0-1.68.54,1.26,1.26,0,0,0-.61,1.08,1.47,1.47,0,0,0,.49,1.12,1.67,1.67,0,0,0,1.23.48,2.71,2.71,0,0,0,1.59-.55,1.94,1.94,0,0,0,.74-1,6.22,6.22,0,0,0,.12-1.51Z"/><path class="cls-1" d="M179.24,41.9V40.15a4.43,4.43,0,0,1-1.67,1.48,4.81,4.81,0,0,1-2.19.53,4.37,4.37,0,0,1-2.12-.51,3.1,3.1,0,0,1-1.35-1.45,6.52,6.52,0,0,1-.41-2.59V30.23h3.08v5.36a15.22,15.22,0,0,0,.17,3,1.66,1.66,0,0,0,.63.88,1.94,1.94,0,0,0,1.14.32,2.43,2.43,0,0,0,1.42-.43,2.22,2.22,0,0,0,.85-1.08,12.24,12.24,0,0,0,.23-3.15V30.23h3.09V41.9Z"/><path class="cls-1" d="M184.22,38.57l3.1-.47a2.27,2.27,0,0,0,.81,1.37,2.7,2.7,0,0,0,1.69.46,3,3,0,0,0,1.8-.44,1,1,0,0,0,.41-.82.82.82,0,0,0-.22-.58,2.39,2.39,0,0,0-1-.41A16.31,16.31,0,0,1,186,36.17a3,3,0,0,1-1.39-2.62,3.24,3.24,0,0,1,1.2-2.55,5.59,5.59,0,0,1,3.71-1,6.52,6.52,0,0,1,3.57.78,4,4,0,0,1,1.6,2.31l-2.91.54a1.82,1.82,0,0,0-.71-1,2.52,2.52,0,0,0-1.49-.37,3.45,3.45,0,0,0-1.75.34.75.75,0,0,0-.35.63.67.67,0,0,0,.31.56,11.2,11.2,0,0,0,2.88.87A8.55,8.55,0,0,1,194.16,36a2.88,2.88,0,0,1,1,2.3A3.54,3.54,0,0,1,193.79,41a6,6,0,0,1-4,1.15,6.57,6.57,0,0,1-3.78-1A4.52,4.52,0,0,1,184.22,38.57Z"/><path class="cls-1" d="M200.14,33.79l-2.8-.51a4.3,4.3,0,0,1,1.62-2.5,5.89,5.89,0,0,1,3.43-.82,7.51,7.51,0,0,1,3.08.49,3.09,3.09,0,0,1,1.42,1.24,6.32,6.32,0,0,1,.42,2.77l0,3.6a12.3,12.3,0,0,0,.15,2.27A6.35,6.35,0,0,0,208,41.9h-3.06c-.08-.21-.18-.51-.3-.91a3.56,3.56,0,0,0-.11-.36,5.7,5.7,0,0,1-1.69,1.15,4.77,4.77,0,0,1-1.92.38,4,4,0,0,1-2.84-1,3.5,3.5,0,0,1-.57-4.24,3.11,3.11,0,0,1,1.32-1.19,10.89,10.89,0,0,1,2.46-.72,16.37,16.37,0,0,0,3-.76V34a1.6,1.6,0,0,0-.44-1.27,2.59,2.59,0,0,0-1.66-.38,2.15,2.15,0,0,0-1.28.32A2.27,2.27,0,0,0,200.14,33.79Zm4.13,2.5a17.91,17.91,0,0,1-1.88.48,5.36,5.36,0,0,0-1.68.54,1.28,1.28,0,0,0-.61,1.08,1.51,1.51,0,0,0,.49,1.12,1.67,1.67,0,0,0,1.23.48,2.69,2.69,0,0,0,1.59-.55,1.94,1.94,0,0,0,.74-1,6.22,6.22,0,0,0,.12-1.51Z"/><path class="cls-1" d="M213.31,41.9h-3.09V30.23h2.87v1.66a4.94,4.94,0,0,1,1.32-1.55,2.44,2.44,0,0,1,1.34-.38,3.91,3.91,0,0,1,2,.59l-1,2.69a2.68,2.68,0,0,0-1.45-.51,1.71,1.71,0,0,0-1.1.36,2.51,2.51,0,0,0-.71,1.29,18.68,18.68,0,0,0-.25,3.91Z"/><path class="cls-1" d="M224.56,36.66l3.17-.31a3.83,3.83,0,0,0,1.16,2.34,3.49,3.49,0,0,0,2.35.75,3.58,3.58,0,0,0,2.37-.67,2,2,0,0,0,.8-1.55,1.46,1.46,0,0,0-.34-1,2.63,2.63,0,0,0-1.17-.69c-.38-.13-1.25-.37-2.6-.71a8.81,8.81,0,0,1-3.67-1.59,4.23,4.23,0,0,1-.79-5.55,4.48,4.48,0,0,1,2-1.63,8.17,8.17,0,0,1,3.17-.56,6.83,6.83,0,0,1,4.57,1.33,4.7,4.7,0,0,1,1.61,3.55l-3.25.14a2.76,2.76,0,0,0-.9-1.78A3.27,3.27,0,0,0,231,28.2a3.73,3.73,0,0,0-2.22.59,1.18,1.18,0,0,0-.51,1,1.26,1.26,0,0,0,.48,1,8.63,8.63,0,0,0,3,1.07A16.14,16.14,0,0,1,235.24,33,4.55,4.55,0,0,1,237,34.64a4.78,4.78,0,0,1,.64,2.57,4.69,4.69,0,0,1-.77,2.59,4.54,4.54,0,0,1-2.17,1.8,9.19,9.19,0,0,1-3.51.59,7,7,0,0,1-4.69-1.42A6.13,6.13,0,0,1,224.56,36.66Z"/><path class="cls-1" d="M240.38,41.9V25.79h3.09V41.9Z"/><path class="cls-1" d="M248.94,33.79l-2.8-.51a4.3,4.3,0,0,1,1.62-2.5,5.91,5.91,0,0,1,3.43-.82,7.48,7.48,0,0,1,3.08.49,3.09,3.09,0,0,1,1.42,1.24,6.32,6.32,0,0,1,.42,2.77l0,3.6a12.3,12.3,0,0,0,.15,2.27,6.79,6.79,0,0,0,.56,1.57h-3.06c-.08-.21-.18-.51-.3-.91a2,2,0,0,0-.11-.36,5.58,5.58,0,0,1-1.69,1.15,4.77,4.77,0,0,1-1.92.38,4,4,0,0,1-2.84-1,3.25,3.25,0,0,1-1-2.48,3.33,3.33,0,0,1,.47-1.76,3.14,3.14,0,0,1,1.33-1.19,10.63,10.63,0,0,1,2.45-.72,15.92,15.92,0,0,0,3-.76V34a1.56,1.56,0,0,0-.44-1.27,2.57,2.57,0,0,0-1.66-.38,2.17,2.17,0,0,0-1.28.32A2.27,2.27,0,0,0,248.94,33.79Zm4.13,2.5a17.91,17.91,0,0,1-1.88.48,5.56,5.56,0,0,0-1.68.54,1.27,1.27,0,0,0-.6,1.08,1.5,1.5,0,0,0,.48,1.12,1.67,1.67,0,0,0,1.23.48,2.74,2.74,0,0,0,1.6-.55,2,2,0,0,0,.73-1,6.22,6.22,0,0,0,.12-1.51Z"/><path class="cls-1" d="M269.33,33.68l-3.05.55a2.22,2.22,0,0,0-.69-1.38,2.18,2.18,0,0,0-1.42-.46,2.31,2.31,0,0,0-1.84.8,4.13,4.13,0,0,0-.68,2.66,4.77,4.77,0,0,0,.69,2.94,2.31,2.31,0,0,0,1.88.86,2.12,2.12,0,0,0,1.44-.5,3,3,0,0,0,.79-1.72l3,.51a5.36,5.36,0,0,1-1.81,3.16,5.6,5.6,0,0,1-3.59,1.06A5.35,5.35,0,0,1,260,40.55a6.3,6.3,0,0,1-1.52-4.48,6.29,6.29,0,0,1,1.53-4.5A5.43,5.43,0,0,1,264.13,30a5.65,5.65,0,0,1,3.39.92A5.11,5.11,0,0,1,269.33,33.68Z"/><path class="cls-1" d="M271.56,41.9V25.79h3.09v8.55l3.62-4.11h3.8l-4,4.26,4.27,7.41H279l-2.93-5.24-1.44,1.5V41.9Z"/><path class="cls-1" d="M6.75,64.28H8v5.28a6.21,6.21,0,0,1-.31,2.19,2.64,2.64,0,0,1-1.13,1.31,4,4,0,0,1-2.13.51,4.48,4.48,0,0,1-2.1-.44,2.54,2.54,0,0,1-1.16-1.28,6.15,6.15,0,0,1-.35-2.29V64.28H2v5.27a5.11,5.11,0,0,0,.22,1.76,1.74,1.74,0,0,0,.76.87,2.68,2.68,0,0,0,1.32.3,2.55,2.55,0,0,0,1.9-.6,3.56,3.56,0,0,0,.56-2.33Z"/><path class="cls-1" d="M9.83,73.41V66.8h1v.94a2.36,2.36,0,0,1,2.1-1.09,2.64,2.64,0,0,1,1.1.22,1.65,1.65,0,0,1,.75.56,2,2,0,0,1,.35.83,6.59,6.59,0,0,1,.06,1.09v4.06H14.08v-4a2.89,2.89,0,0,0-.13-1,1.12,1.12,0,0,0-.46-.55,1.51,1.51,0,0,0-.78-.2,1.8,1.8,0,0,0-1.24.46A2.22,2.22,0,0,0,11,69.8v3.61Z"/><path class="cls-1" d="M21.24,72.6a4.5,4.5,0,0,1-1.2.75,3.59,3.59,0,0,1-1.24.21A2.38,2.38,0,0,1,17.13,73a1.76,1.76,0,0,1-.59-1.36,1.92,1.92,0,0,1,.22-.89,1.88,1.88,0,0,1,.58-.64,2.72,2.72,0,0,1,.81-.37,8.65,8.65,0,0,1,1-.17,10.6,10.6,0,0,0,2-.38v-.3a1.21,1.21,0,0,0-.32-1,1.87,1.87,0,0,0-1.27-.38,1.94,1.94,0,0,0-1.17.28,1.68,1.68,0,0,0-.56,1l-1.09-.15a2.72,2.72,0,0,1,.49-1.14,2.2,2.2,0,0,1,1-.67,4.55,4.55,0,0,1,1.5-.23,4.11,4.11,0,0,1,1.38.2,1.75,1.75,0,0,1,.77.5,1.67,1.67,0,0,1,.35.76,6,6,0,0,1,.06,1v1.49a15.54,15.54,0,0,0,.07,2,2.49,2.49,0,0,0,.28.79H21.46A2.4,2.4,0,0,1,21.24,72.6Zm-.09-2.51a8.21,8.21,0,0,1-1.84.43,4,4,0,0,0-1,.22,1.1,1.1,0,0,0-.45.37,1,1,0,0,0-.15.53,1,1,0,0,0,.34.75,1.45,1.45,0,0,0,1,.3,2.28,2.28,0,0,0,1.15-.29,1.74,1.74,0,0,0,.75-.77,2.75,2.75,0,0,0,.18-1.12Z"/><path class="cls-1" d="M29.4,73.41,26.88,66.8h1.19l1.42,4c.15.43.29.87.42,1.33.1-.34.24-.76.42-1.25l1.47-4H33l-2.51,6.61Z"/><path class="cls-1" d="M38.47,71.28l1.16.15a2.89,2.89,0,0,1-1,1.57,3.44,3.44,0,0,1-4.19-.33,3.49,3.49,0,0,1-.85-2.51,3.68,3.68,0,0,1,.85-2.59,2.94,2.94,0,0,1,2.23-.92,2.83,2.83,0,0,1,2.17.9,3.6,3.6,0,0,1,.84,2.54v.3H34.72a2.57,2.57,0,0,0,.62,1.67,1.82,1.82,0,0,0,1.38.58,1.8,1.8,0,0,0,1.06-.32A2.16,2.16,0,0,0,38.47,71.28Zm-3.68-1.81h3.69a2.28,2.28,0,0,0-.42-1.25,1.73,1.73,0,0,0-1.39-.65,1.76,1.76,0,0,0-1.3.52A2,2,0,0,0,34.79,69.47Z"/><path class="cls-1" d="M40.44,73.41v-.9l4.21-4.84c-.48,0-.9,0-1.26,0h-2.7V66.8H46.1v.74l-3.58,4.2-.7.77c.51,0,1-.06,1.42-.06H46.3v1Z"/><path class="cls-1" d="M55.17,76V72.71a1.93,1.93,0,0,1-.73.61,2.17,2.17,0,0,1-1,.24,2.65,2.65,0,0,1-2-.94A3.71,3.71,0,0,1,50.56,70a4.38,4.38,0,0,1,.35-1.78,2.54,2.54,0,0,1,1-1.2,2.71,2.71,0,0,1,1.44-.41,2.23,2.23,0,0,1,1.93,1V66.8h1V76Zm-3.46-5.86A2.88,2.88,0,0,0,52.25,72a1.62,1.62,0,0,0,1.28.64,1.59,1.59,0,0,0,1.24-.6,2.85,2.85,0,0,0,.51-1.85,3.13,3.13,0,0,0-.54-2,1.63,1.63,0,0,0-1.28-.67,1.56,1.56,0,0,0-1.24.62A3,3,0,0,0,51.71,70.09Z"/><path class="cls-1" d="M62.38,73.41v-1a2.4,2.4,0,0,1-2.09,1.12,2.7,2.7,0,0,1-1.1-.22,1.8,1.8,0,0,1-.75-.56,2.13,2.13,0,0,1-.35-.84,6.11,6.11,0,0,1-.07-1V66.8h1.13v3.67a7.42,7.42,0,0,0,.06,1.18,1.16,1.16,0,0,0,.45.7,1.45,1.45,0,0,0,.85.25,1.89,1.89,0,0,0,1-.26,1.45,1.45,0,0,0,.62-.7,3.6,3.6,0,0,0,.19-1.3V66.8h1.12v6.61Z"/><path class="cls-1" d="M69.67,71.28l1.16.15a2.78,2.78,0,0,1-1,1.57,3.44,3.44,0,0,1-4.19-.33,3.49,3.49,0,0,1-.85-2.51,3.68,3.68,0,0,1,.86-2.59,2.93,2.93,0,0,1,2.23-.92,2.84,2.84,0,0,1,2.17.9,3.6,3.6,0,0,1,.84,2.54c0,.07,0,.17,0,.3H65.93a2.56,2.56,0,0,0,.61,1.67,1.84,1.84,0,0,0,1.39.58,1.74,1.74,0,0,0,1-.32A2.16,2.16,0,0,0,69.67,71.28ZM66,69.47h3.69a2.28,2.28,0,0,0-.42-1.25,1.73,1.73,0,0,0-1.39-.65,1.77,1.77,0,0,0-1.3.52A2.06,2.06,0,0,0,66,69.47Z"/><path class="cls-1" d="M75.78,73.41V64.28H76.9v3.28a2.51,2.51,0,0,1,2-.91,2.72,2.72,0,0,1,1.28.29,1.72,1.72,0,0,1,.78.8,3.81,3.81,0,0,1,.23,1.48v4.19H80.05V69.22A1.68,1.68,0,0,0,79.68,68a1.32,1.32,0,0,0-1-.38,1.8,1.8,0,0,0-.93.25,1.44,1.44,0,0,0-.63.71,3.28,3.28,0,0,0-.19,1.22v3.61Z"/><path class="cls-1" d="M87.19,72.6a4.21,4.21,0,0,1-1.2.75,3.53,3.53,0,0,1-1.23.21A2.39,2.39,0,0,1,83.08,73a1.75,1.75,0,0,1-.58-1.36,1.81,1.81,0,0,1,.22-.89,1.79,1.79,0,0,1,.58-.64,2.67,2.67,0,0,1,.8-.37,9.07,9.07,0,0,1,1-.17,10.6,10.6,0,0,0,2-.38v-.3a1.24,1.24,0,0,0-.31-1,1.9,1.9,0,0,0-1.28-.38,1.94,1.94,0,0,0-1.17.28,1.67,1.67,0,0,0-.55,1l-1.1-.15a2.72,2.72,0,0,1,.49-1.14,2.2,2.2,0,0,1,1-.67,4.55,4.55,0,0,1,1.5-.23,4,4,0,0,1,1.38.2,1.85,1.85,0,0,1,.78.5,1.91,1.91,0,0,1,.35.76,7.78,7.78,0,0,1,0,1v1.49a17.84,17.84,0,0,0,.07,2,2.51,2.51,0,0,0,.29.79H87.42A2.4,2.4,0,0,1,87.19,72.6Zm-.09-2.51a8.24,8.24,0,0,1-1.83.43,4.13,4.13,0,0,0-1,.22,1,1,0,0,0-.44.37.9.9,0,0,0-.16.53,1,1,0,0,0,.34.75,1.46,1.46,0,0,0,1,.3,2.32,2.32,0,0,0,1.16-.29,1.77,1.77,0,0,0,.74-.77,2.75,2.75,0,0,0,.18-1.12Z"/><path class="cls-1" d="M89.92,76l-.12-1a2.28,2.28,0,0,0,.64.1,1.16,1.16,0,0,0,.6-.13,1,1,0,0,0,.36-.34,5.81,5.81,0,0,0,.35-.84c0-.06,0-.15.1-.27L89.33,66.8h1.21l1.38,3.83q.27.74.48,1.53a15.3,15.3,0,0,1,.46-1.5l1.41-3.86H95.4l-2.52,6.73a14.14,14.14,0,0,1-.63,1.5,2.17,2.17,0,0,1-.69.81,1.61,1.61,0,0,1-.92.26A2.33,2.33,0,0,1,89.92,76Z"/><path class="cls-1" d="M100.66,72.6a4.31,4.31,0,0,1-1.19.75,3.63,3.63,0,0,1-1.24.21A2.39,2.39,0,0,1,96.55,73,1.75,1.75,0,0,1,96,71.67a1.81,1.81,0,0,1,.22-.89,1.88,1.88,0,0,1,.58-.64,2.72,2.72,0,0,1,.81-.37,8.8,8.8,0,0,1,1-.17,10.43,10.43,0,0,0,2-.38c0-.16,0-.25,0-.3a1.25,1.25,0,0,0-.32-1A1.9,1.9,0,0,0,99,67.58a2,2,0,0,0-1.17.28,1.67,1.67,0,0,0-.55,1l-1.1-.15a2.72,2.72,0,0,1,.49-1.14,2.2,2.2,0,0,1,1-.67,4.63,4.63,0,0,1,1.5-.23,4,4,0,0,1,1.38.2,1.85,1.85,0,0,1,.78.5,1.78,1.78,0,0,1,.35.76,6.35,6.35,0,0,1,0,1v1.49a14.81,14.81,0,0,0,.08,2,2.27,2.27,0,0,0,.28.79h-1.17A2.4,2.4,0,0,1,100.66,72.6Zm-.09-2.51a8.24,8.24,0,0,1-1.83.43,4.13,4.13,0,0,0-1,.22,1,1,0,0,0-.44.37,1,1,0,0,0,.18,1.28,1.48,1.48,0,0,0,1,.3,2.31,2.31,0,0,0,1.15-.29,1.72,1.72,0,0,0,.74-.77,2.75,2.75,0,0,0,.18-1.12Z"/><path class="cls-1" d="M103,71.44l1.11-.17a1.62,1.62,0,0,0,.52,1,1.86,1.86,0,0,0,1.2.35,1.74,1.74,0,0,0,1.14-.31,1,1,0,0,0,.38-.74A.68.68,0,0,0,107,71a5,5,0,0,0-1.14-.38,11,11,0,0,1-1.71-.54,1.65,1.65,0,0,1-1-1.51,1.74,1.74,0,0,1,.2-.82,2,2,0,0,1,.55-.63,2.42,2.42,0,0,1,.72-.33,3.73,3.73,0,0,1,1-.13,4,4,0,0,1,1.36.22,1.83,1.83,0,0,1,.87.61,2.36,2.36,0,0,1,.39,1l-1.1.15a1.2,1.2,0,0,0-.43-.8,1.6,1.6,0,0,0-1-.29,1.85,1.85,0,0,0-1.11.26.74.74,0,0,0-.33.6.64.64,0,0,0,.14.39,1,1,0,0,0,.43.3l1,.28a16.76,16.76,0,0,1,1.66.52,1.74,1.74,0,0,1,.74.59,1.65,1.65,0,0,1,.27,1,1.87,1.87,0,0,1-.33,1.06,2.11,2.11,0,0,1-.94.76,3.46,3.46,0,0,1-1.4.27,3.07,3.07,0,0,1-2-.53A2.54,2.54,0,0,1,103,71.44Z"/><path class="cls-1" d="M117.68,71l1.1.14a2.87,2.87,0,0,1-.92,1.79,2.71,2.71,0,0,1-1.83.64,2.84,2.84,0,0,1-2.18-.88,3.62,3.62,0,0,1-.83-2.55,4.52,4.52,0,0,1,.36-1.87,2.42,2.42,0,0,1,1.08-1.21,3.17,3.17,0,0,1,1.58-.4,2.72,2.72,0,0,1,1.76.55,2.46,2.46,0,0,1,.88,1.54l-1.09.17a1.86,1.86,0,0,0-.55-1,1.43,1.43,0,0,0-1-.34,1.75,1.75,0,0,0-1.38.61,2.9,2.9,0,0,0-.53,1.92,3,3,0,0,0,.51,1.94,1.68,1.68,0,0,0,1.34.6,1.55,1.55,0,0,0,1.1-.4A2,2,0,0,0,117.68,71Z"/><path class="cls-1" d="M119.32,70.11a3.41,3.41,0,0,1,1-2.72,3.08,3.08,0,0,1,2.08-.74,3,3,0,0,1,2.23.89,3.44,3.44,0,0,1,.86,2.47,4.44,4.44,0,0,1-.38,2A2.73,2.73,0,0,1,124,73.16a3.21,3.21,0,0,1-1.59.4,3,3,0,0,1-2.25-.89A3.55,3.55,0,0,1,119.32,70.11Zm1.16,0A2.82,2.82,0,0,0,121,72a1.86,1.86,0,0,0,2.79,0,2.9,2.9,0,0,0,.55-1.94,2.74,2.74,0,0,0-.56-1.86,1.76,1.76,0,0,0-1.38-.63,1.79,1.79,0,0,0-1.4.63A2.8,2.8,0,0,0,120.48,70.11Z"/><path class="cls-1" d="M126.84,73.41V66.8h1v.94a2.35,2.35,0,0,1,2.1-1.09,2.64,2.64,0,0,1,1.1.22,1.77,1.77,0,0,1,.75.56,2.15,2.15,0,0,1,.35.83,6.59,6.59,0,0,1,.06,1.09v4.06h-1.12v-4a2.89,2.89,0,0,0-.13-1,1.12,1.12,0,0,0-.46-.55,1.57,1.57,0,0,0-.79-.2,1.77,1.77,0,0,0-1.23.46A2.22,2.22,0,0,0,128,69.8v3.61Z"/><path class="cls-1" d="M134.2,73.41V67.67h-1V66.8h1v-.7a3,3,0,0,1,.12-1,1.32,1.32,0,0,1,.57-.71,2,2,0,0,1,1.14-.27,6,6,0,0,1,1.05.11l-.17,1a3.85,3.85,0,0,0-.66-.06,1,1,0,0,0-.72.21,1.15,1.15,0,0,0-.22.82v.61h1.29v.87h-1.29v5.74Z"/><path class="cls-1" d="M137.48,65.57V64.28h1.12v1.29Zm0,7.84V66.8h1.12v6.61Z"/><path class="cls-1" d="M140.3,73.41V66.8h1v1a2.63,2.63,0,0,1,.71-.93,1.33,1.33,0,0,1,.72-.22,2.18,2.18,0,0,1,1.15.36l-.39,1a1.58,1.58,0,0,0-.82-.24A1.07,1.07,0,0,0,142,68a1.29,1.29,0,0,0-.42.61,4.56,4.56,0,0,0-.18,1.31v3.46Z"/><path class="cls-1" d="M144.56,73.41V66.8h1v.93a2.22,2.22,0,0,1,.83-.78,2.29,2.29,0,0,1,1.17-.3,2.13,2.13,0,0,1,1.21.31,1.61,1.61,0,0,1,.66.85,2.4,2.4,0,0,1,2-1.16,2,2,0,0,1,1.51.55,2.32,2.32,0,0,1,.53,1.67v4.54H152.4V69.25a3.23,3.23,0,0,0-.1-1,1,1,0,0,0-.4-.48,1.24,1.24,0,0,0-.67-.18,1.57,1.57,0,0,0-1.16.47,2,2,0,0,0-.46,1.48v3.84h-1.12V69.12a1.83,1.83,0,0,0-.28-1.12,1,1,0,0,0-.89-.38,1.7,1.7,0,0,0-.88.25,1.41,1.41,0,0,0-.58.73,4.11,4.11,0,0,0-.18,1.38v3.43Z"/><path class="cls-1" d="M159.5,72.6a4.5,4.5,0,0,1-1.2.75,3.59,3.59,0,0,1-1.24.21,2.38,2.38,0,0,1-1.67-.53,1.76,1.76,0,0,1-.59-1.36,1.92,1.92,0,0,1,.22-.89,1.88,1.88,0,0,1,.58-.64,2.72,2.72,0,0,1,.81-.37,8.65,8.65,0,0,1,1-.17,10.6,10.6,0,0,0,2-.38v-.3a1.21,1.21,0,0,0-.32-1,1.87,1.87,0,0,0-1.27-.38,1.94,1.94,0,0,0-1.17.28,1.68,1.68,0,0,0-.56,1L155,68.69a2.6,2.6,0,0,1,.49-1.14,2.2,2.2,0,0,1,1-.67,4.55,4.55,0,0,1,1.5-.23,4.11,4.11,0,0,1,1.38.2,1.75,1.75,0,0,1,.77.5,1.67,1.67,0,0,1,.35.76,6,6,0,0,1,.06,1v1.49a15.54,15.54,0,0,0,.07,2,2.49,2.49,0,0,0,.28.79h-1.17A2.4,2.4,0,0,1,159.5,72.6Zm-.09-2.51a8.21,8.21,0,0,1-1.84.43,4,4,0,0,0-1,.22,1,1,0,0,0-.45.37,1,1,0,0,0-.15.53,1,1,0,0,0,.34.75,1.45,1.45,0,0,0,1,.3,2.28,2.28,0,0,0,1.15-.29,1.67,1.67,0,0,0,.74-.77,2.72,2.72,0,0,0,.19-1.12Z"/><path class="cls-1" d="M166.57,73.41v-.83a2.05,2.05,0,0,1-1.85,1,2.62,2.62,0,0,1-1.46-.43,2.86,2.86,0,0,1-1-1.22,4.11,4.11,0,0,1-.37-1.8,4.64,4.64,0,0,1,.33-1.79,2.59,2.59,0,0,1,2.47-1.67,2.16,2.16,0,0,1,1.06.25,2.22,2.22,0,0,1,.76.66V64.28h1.12v9.13ZM163,70.11a2.85,2.85,0,0,0,.54,1.9,1.62,1.62,0,0,0,1.26.63,1.59,1.59,0,0,0,1.25-.6,2.72,2.72,0,0,0,.52-1.83,3.13,3.13,0,0,0-.53-2,1.62,1.62,0,0,0-1.29-.63,1.53,1.53,0,0,0-1.24.61A3,3,0,0,0,163,70.11Z"/><path class="cls-1" d="M169,70.11a3.4,3.4,0,0,1,1-2.72,3.11,3.11,0,0,1,2.09-.74,3,3,0,0,1,2.22.89,3.4,3.4,0,0,1,.87,2.47,4.44,4.44,0,0,1-.38,2,2.73,2.73,0,0,1-1.12,1.14,3.24,3.24,0,0,1-1.59.4,3,3,0,0,1-2.25-.89A3.55,3.55,0,0,1,169,70.11Zm1.16,0a2.82,2.82,0,0,0,.55,1.9,1.85,1.85,0,0,0,2.78,0,2.9,2.9,0,0,0,.56-1.94,2.74,2.74,0,0,0-.56-1.86,1.85,1.85,0,0,0-2.78,0A2.8,2.8,0,0,0,170.11,70.11Z"/><path class="cls-1" d="M184.23,76V72.71a2,2,0,0,1-.74.61,2.14,2.14,0,0,1-1,.24,2.62,2.62,0,0,1-2-.94,3.67,3.67,0,0,1-.85-2.58,4.38,4.38,0,0,1,.34-1.78,2.56,2.56,0,0,1,1-1.2,2.66,2.66,0,0,1,1.44-.41,2.23,2.23,0,0,1,1.93,1V66.8h1V76Zm-3.46-5.86a2.88,2.88,0,0,0,.54,1.91,1.59,1.59,0,0,0,1.28.64,1.58,1.58,0,0,0,1.23-.6,2.8,2.8,0,0,0,.52-1.85,3.07,3.07,0,0,0-.55-2,1.63,1.63,0,0,0-1.28-.67,1.54,1.54,0,0,0-1.23.62A3,3,0,0,0,180.77,70.09Z"/><path class="cls-1" d="M191.44,73.41v-1a2.43,2.43,0,0,1-2.1,1.12,2.62,2.62,0,0,1-1.09-.22,1.91,1.91,0,0,1-.76-.56,2.12,2.12,0,0,1-.34-.84,5.21,5.21,0,0,1-.07-1V66.8h1.12v3.67a6.08,6.08,0,0,0,.07,1.18,1.16,1.16,0,0,0,.45.7,1.42,1.42,0,0,0,.84.25,1.86,1.86,0,0,0,.95-.26,1.47,1.47,0,0,0,.63-.7,3.64,3.64,0,0,0,.18-1.3V66.8h1.12v6.61Z"/><path class="cls-1" d="M198.73,71.28l1.15.15a2.82,2.82,0,0,1-1,1.57,3.45,3.45,0,0,1-4.2-.33,3.53,3.53,0,0,1-.85-2.51,3.68,3.68,0,0,1,.86-2.59,2.94,2.94,0,0,1,2.23-.92,2.83,2.83,0,0,1,2.17.9,3.6,3.6,0,0,1,.84,2.54v.3H195a2.52,2.52,0,0,0,.62,1.67,1.82,1.82,0,0,0,1.38.58,1.74,1.74,0,0,0,1.05-.32A2.17,2.17,0,0,0,198.73,71.28ZM195,69.47h3.7a2.2,2.2,0,0,0-.43-1.25,1.71,1.71,0,0,0-1.38-.65,1.76,1.76,0,0,0-1.3.52A2.07,2.07,0,0,0,195,69.47Z"/><path class="cls-2" d="M207.94,66.8v1.4h-1.2v2.66a7.37,7.37,0,0,0,0,.94.46.46,0,0,0,.16.23.56.56,0,0,0,.3.08,2.08,2.08,0,0,0,.7-.17l.15,1.36a3.4,3.4,0,0,1-1.38.26,2.35,2.35,0,0,1-.86-.15,1.22,1.22,0,0,1-.55-.42,1.59,1.59,0,0,1-.25-.68,7.84,7.84,0,0,1-.06-1.23V68.2h-.8V66.8h.8V65.49l1.76-1V66.8Z"/><path class="cls-2" d="M213.51,73.41v-1a2.56,2.56,0,0,1-.95.84,2.74,2.74,0,0,1-1.25.3,2.36,2.36,0,0,1-1.19-.29,1.7,1.7,0,0,1-.77-.82,3.6,3.6,0,0,1-.24-1.46V66.8h1.75v3a8.68,8.68,0,0,0,.1,1.71.94.94,0,0,0,.35.5,1.11,1.11,0,0,0,.65.18,1.37,1.37,0,0,0,.8-.24,1.27,1.27,0,0,0,.49-.62,6.88,6.88,0,0,0,.13-1.78V66.8h1.75v6.61Z"/><path class="cls-2" d="M222.71,68.76l-1.72.31a1.22,1.22,0,0,0-.4-.78,1.17,1.17,0,0,0-.8-.26,1.3,1.3,0,0,0-1,.45,2.3,2.3,0,0,0-.39,1.51,2.7,2.7,0,0,0,.39,1.66,1.3,1.3,0,0,0,1.06.49,1.17,1.17,0,0,0,.82-.29,1.69,1.69,0,0,0,.45-1l1.72.29a3,3,0,0,1-1,1.79,3.22,3.22,0,0,1-2,.6,3,3,0,0,1-2.31-.91,4.2,4.2,0,0,1,0-5.09,3.08,3.08,0,0,1,2.35-.91,3.19,3.19,0,0,1,1.92.52A2.94,2.94,0,0,1,222.71,68.76Z"/><path class="cls-2" d="M223.63,70a3.62,3.62,0,0,1,.43-1.68,2.94,2.94,0,0,1,1.22-1.25,3.58,3.58,0,0,1,1.76-.43,3.31,3.31,0,0,1,2.46,1,3.35,3.35,0,0,1,1,2.46,3.4,3.4,0,0,1-1,2.49,3.31,3.31,0,0,1-2.44,1,3.76,3.76,0,0,1-1.73-.41,2.81,2.81,0,0,1-1.26-1.2A4.12,4.12,0,0,1,223.63,70Zm1.8.1a2.17,2.17,0,0,0,.46,1.5,1.5,1.5,0,0,0,1.16.53,1.46,1.46,0,0,0,1.14-.53,2.64,2.64,0,0,0,0-3,1.45,1.45,0,0,0-1.14-.52,1.49,1.49,0,0,0-1.16.52A2.2,2.2,0,0,0,225.43,70.11Z"/><path class="cls-2" d="M233.5,73.41h-1.75V66.8h1.63v.94a2.93,2.93,0,0,1,.75-.88,1.38,1.38,0,0,1,.76-.21A2.21,2.21,0,0,1,236,67l-.54,1.53a1.57,1.57,0,0,0-.82-.29,1,1,0,0,0-.63.2,1.43,1.43,0,0,0-.4.73,10.26,10.26,0,0,0-.15,2.22Z"/><path class="cls-2" d="M238.47,73.41h-1.75V66.8h1.62v.94a2.93,2.93,0,0,1,.75-.88,1.43,1.43,0,0,1,.76-.21A2.21,2.21,0,0,1,241,67l-.54,1.53a1.54,1.54,0,0,0-.82-.29,1,1,0,0,0-.62.2,1.43,1.43,0,0,0-.41.73,11.24,11.24,0,0,0-.14,2.22Z"/><path class="cls-2" d="M245.59,71.31l1.74.29a2.83,2.83,0,0,1-1.06,1.46,3.08,3.08,0,0,1-1.82.5,3,3,0,0,1-2.55-1.12,3.79,3.79,0,0,1-.65-2.28,3.63,3.63,0,0,1,.86-2.58,2.81,2.81,0,0,1,2.17-.93,3,3,0,0,1,2.33,1,4.3,4.3,0,0,1,.82,3H243a1.75,1.75,0,0,0,.42,1.21,1.33,1.33,0,0,0,1,.44,1,1,0,0,0,.69-.23A1.4,1.4,0,0,0,245.59,71.31Zm.1-1.77a1.69,1.69,0,0,0-.4-1.15,1.16,1.16,0,0,0-.9-.4,1.21,1.21,0,0,0-.95.42,1.62,1.62,0,0,0-.37,1.13Z"/><path class="cls-2" d="M248.45,70a3.5,3.5,0,0,1,.43-1.68,2.92,2.92,0,0,1,1.21-1.25,3.61,3.61,0,0,1,1.76-.43,3.31,3.31,0,0,1,2.46,1,3.35,3.35,0,0,1,1,2.46,3.4,3.4,0,0,1-1,2.49,3.27,3.27,0,0,1-2.43,1,3.77,3.77,0,0,1-1.74-.41,2.74,2.74,0,0,1-1.25-1.2A4,4,0,0,1,248.45,70Zm1.79.1a2.17,2.17,0,0,0,.47,1.5,1.51,1.51,0,0,0,2.3,0,2.69,2.69,0,0,0,0-3,1.53,1.53,0,0,0-2.3,0A2.2,2.2,0,0,0,250.24,70.11Z"/><path class="cls-2" d="M256.51,72.39a1.13,1.13,0,1,1,1.13,1.18A1.13,1.13,0,0,1,256.51,72.39Z"/><path class="cls-2" d="M262.89,72.39A1.13,1.13,0,1,1,264,73.57,1.13,1.13,0,0,1,262.89,72.39Z"/><path class="cls-2" d="M269.27,72.39a1.13,1.13,0,1,1,1.13,1.18A1.13,1.13,0,0,1,269.27,72.39Z"/><path class="cls-2" d="M275.64,72.39a1.14,1.14,0,1,1,1.14,1.18A1.14,1.14,0,0,1,275.64,72.39Z"/><path class="cls-2" d="M282,72.39a1.14,1.14,0,1,1,2.27,0,1.14,1.14,0,1,1-2.27,0Z"/><path class="cls-2" d="M288.4,72.39a1.13,1.13,0,1,1,1.13,1.18A1.13,1.13,0,0,1,288.4,72.39Z"/><path class="cls-2" d="M294.78,72.39a1.13,1.13,0,1,1,1.13,1.18A1.13,1.13,0,0,1,294.78,72.39Z"/><path class="cls-2" d="M301.16,72.39a1.13,1.13,0,1,1,1.13,1.18A1.13,1.13,0,0,1,301.16,72.39Z"/><path class="cls-2" d="M317.82,73.3h1.33a4.58,4.58,0,0,1-1.92,2,7.26,7.26,0,0,1-3.6.82,8.27,8.27,0,0,1-3.55-.7,4.7,4.7,0,0,1-2.22-2,6.11,6.11,0,0,1-.73-3,6.67,6.67,0,0,1,.83-3.26,5.4,5.4,0,0,1,2.27-2.27,6.87,6.87,0,0,1,3.28-.76,6.3,6.3,0,0,1,2.8.61,4.35,4.35,0,0,1,1.86,1.74,4.85,4.85,0,0,1,.64,2.45,4.61,4.61,0,0,1-1,2.87,3.77,3.77,0,0,1-3.15,1.62,1.41,1.41,0,0,1-.78-.18.88.88,0,0,1-.35-.53,2.33,2.33,0,0,1-1.69.71,2.27,2.27,0,0,1-1.72-.71,2.65,2.65,0,0,1-.68-1.9,4.72,4.72,0,0,1,.82-2.67,3,3,0,0,1,2.56-1.47,1.82,1.82,0,0,1,1.64.85l.15-.69h1.65l-.94,4.46a3.75,3.75,0,0,0-.09.55.34.34,0,0,0,.07.24.23.23,0,0,0,.17.07,1.4,1.4,0,0,0,.77-.36,3.34,3.34,0,0,0,1-1.27,3.7,3.7,0,0,0,.39-1.65,3.38,3.38,0,0,0-1.1-2.56,4.38,4.38,0,0,0-3.1-1,5.53,5.53,0,0,0-2.86.69,4.41,4.41,0,0,0-1.77,1.93,6,6,0,0,0-.6,2.6,4.43,4.43,0,0,0,.67,2.4,3.88,3.88,0,0,0,1.86,1.57,8,8,0,0,0,5.3.08A4,4,0,0,0,317.82,73.3Zm-6.73-2.56a1.73,1.73,0,0,0,.32,1.16,1,1,0,0,0,.79.37,1.31,1.31,0,0,0,.67-.17,1.59,1.59,0,0,0,.46-.39,3.37,3.37,0,0,0,.57-1.11,4.39,4.39,0,0,0,.24-1.36,1.64,1.64,0,0,0-.32-1.08,1.07,1.07,0,0,0-.83-.38,1.42,1.42,0,0,0-1,.42,2.51,2.51,0,0,0-.68,1.18A4.55,4.55,0,0,0,311.09,70.74Z"/><path class="cls-2" d="M320.05,66.8h1.64v1a2.4,2.4,0,0,1,.86-.81,2.33,2.33,0,0,1,1.2-.31,2.5,2.5,0,0,1,1.95.9,3.65,3.65,0,0,1,.81,2.52,3.8,3.8,0,0,1-.81,2.58,2.54,2.54,0,0,1-2,.91,2.31,2.31,0,0,1-1-.21,3.5,3.5,0,0,1-.94-.75v3.33h-1.75Zm1.74,3.2a2.49,2.49,0,0,0,.44,1.64,1.34,1.34,0,0,0,1.08.54,1.28,1.28,0,0,0,1-.49,2.53,2.53,0,0,0,.41-1.61,2.36,2.36,0,0,0-.42-1.54,1.29,1.29,0,0,0-1-.51,1.35,1.35,0,0,0-1.06.5A2.22,2.22,0,0,0,321.79,70Z"/><path class="cls-2" d="M332.25,73.41v-1a2.49,2.49,0,0,1-.95.84,2.7,2.7,0,0,1-1.24.3,2.37,2.37,0,0,1-1.2-.29,1.68,1.68,0,0,1-.76-.82,3.6,3.6,0,0,1-.24-1.46V66.8h1.75v3a9,9,0,0,0,.09,1.71,1,1,0,0,0,.36.5,1.08,1.08,0,0,0,.64.18,1.43,1.43,0,0,0,.81-.24,1.25,1.25,0,0,0,.48-.62,6.88,6.88,0,0,0,.13-1.78V66.8h1.75v6.61Z"/><path class="cls-2" d="M341.46,68.76l-1.73.31a1.22,1.22,0,0,0-.4-.78,1.15,1.15,0,0,0-.8-.26,1.31,1.31,0,0,0-1,.45A2.3,2.3,0,0,0,337.1,70a2.62,2.62,0,0,0,.4,1.66,1.27,1.27,0,0,0,1.06.49,1.16,1.16,0,0,0,.81-.29,1.58,1.58,0,0,0,.45-1l1.72.29a3,3,0,0,1-1,1.79,3.17,3.17,0,0,1-2,.6,3,3,0,0,1-2.32-.91,4.18,4.18,0,0,1,0-5.09,3,3,0,0,1,2.34-.91,3.19,3.19,0,0,1,1.92.52A2.9,2.9,0,0,1,341.46,68.76Z"/><path class="cls-2" d="M342.73,66.8h1.63v1a2.57,2.57,0,0,1,.86-.81,2.4,2.4,0,0,1,1.21-.31,2.52,2.52,0,0,1,1.95.9,3.65,3.65,0,0,1,.81,2.52,3.8,3.8,0,0,1-.81,2.58,2.54,2.54,0,0,1-2,.91,2.31,2.31,0,0,1-1-.21,3.5,3.5,0,0,1-.94-.75v3.33h-1.75Zm1.73,3.2a2.49,2.49,0,0,0,.45,1.64,1.33,1.33,0,0,0,1.07.54,1.29,1.29,0,0,0,1-.49,2.54,2.54,0,0,0,.4-1.61,2.36,2.36,0,0,0-.41-1.54,1.3,1.3,0,0,0-1-.51,1.33,1.33,0,0,0-1.06.5A2.17,2.17,0,0,0,344.46,70Z"/><path class="cls-2" d="M350.44,72.39a1.13,1.13,0,1,1,1.13,1.18A1.13,1.13,0,0,1,350.44,72.39Z"/><path class="cls-2" d="M356.82,72.39A1.13,1.13,0,1,1,358,73.57,1.13,1.13,0,0,1,356.82,72.39Z"/><path class="cls-2" d="M363.2,72.39a1.13,1.13,0,1,1,1.13,1.18A1.13,1.13,0,0,1,363.2,72.39Z"/><path class="cls-1" d="M5.15,86.29l1.15.14a2.81,2.81,0,0,1-1,1.58,3.1,3.1,0,0,1-1.9.56,3.06,3.06,0,0,1-2.3-.89,3.53,3.53,0,0,1-.85-2.51,3.66,3.66,0,0,1,.86-2.59,2.9,2.9,0,0,1,2.23-.92,2.83,2.83,0,0,1,2.17.9,3.59,3.59,0,0,1,.84,2.54c0,.07,0,.17,0,.3H1.4A2.54,2.54,0,0,0,2,87.07a1.82,1.82,0,0,0,1.38.58,1.69,1.69,0,0,0,1.05-.33A2.21,2.21,0,0,0,5.15,86.29ZM1.46,84.48h3.7a2.17,2.17,0,0,0-.43-1.25,1.72,1.72,0,0,0-1.39-.65,1.75,1.75,0,0,0-1.29.52A2,2,0,0,0,1.46,84.48Z"/><path class="cls-1" d="M7.26,86.45l1.11-.18a1.53,1.53,0,0,0,.52,1,1.8,1.8,0,0,0,1.19.36,1.75,1.75,0,0,0,1.15-.32.92.92,0,0,0,.37-.73.67.67,0,0,0-.33-.6,4.54,4.54,0,0,0-1.14-.38,11,11,0,0,1-1.71-.54,1.59,1.59,0,0,1-.72-.63,1.62,1.62,0,0,1-.25-.89,1.81,1.81,0,0,1,.2-.82,1.83,1.83,0,0,1,.55-.62,2.42,2.42,0,0,1,.72-.33,3.32,3.32,0,0,1,1-.13,3.82,3.82,0,0,1,1.37.22,1.87,1.87,0,0,1,.87.61,2.32,2.32,0,0,1,.39,1l-1.1.15a1.17,1.17,0,0,0-.43-.79,1.54,1.54,0,0,0-1-.29,1.86,1.86,0,0,0-1.11.25.74.74,0,0,0-.33.6.6.6,0,0,0,.14.39,1,1,0,0,0,.43.3c.11,0,.44.14,1,.29a14.39,14.39,0,0,1,1.66.52,1.67,1.67,0,0,1,.74.59,1.65,1.65,0,0,1,.27,1,1.86,1.86,0,0,1-.33,1,2.12,2.12,0,0,1-.94.77,3.5,3.5,0,0,1-1.4.27,3.14,3.14,0,0,1-2-.53A2.5,2.5,0,0,1,7.26,86.45Z"/><path class="cls-1" d="M20.08,87.42l.16,1a3.89,3.89,0,0,1-.84.1,2,2,0,0,1-.95-.19,1,1,0,0,1-.47-.51,3.78,3.78,0,0,1-.14-1.33v-3.8H17v-.87h.82V80.17L19,79.5v2.31h1.13v.87H19v3.87a1.87,1.87,0,0,0,.06.61.47.47,0,0,0,.2.22.65.65,0,0,0,.38.08A3.39,3.39,0,0,0,20.08,87.42Z"/><path class="cls-1" d="M25.51,88.42v-1a2.4,2.4,0,0,1-2.1,1.12,2.66,2.66,0,0,1-1.09-.22,1.74,1.74,0,0,1-.75-.57,2,2,0,0,1-.35-.83,5.32,5.32,0,0,1-.07-1V81.81h1.12v3.67a7,7,0,0,0,.07,1.18,1.14,1.14,0,0,0,.45.69,1.38,1.38,0,0,0,.85.25,1.84,1.84,0,0,0,.94-.25,1.44,1.44,0,0,0,.63-.71,3.54,3.54,0,0,0,.18-1.29V81.81h1.12v6.61Z"/><path class="cls-1" d="M36.11,88.42v-.83a2.07,2.07,0,0,1-1.85,1,2.6,2.6,0,0,1-1.46-.43,3,3,0,0,1-1-1.22,4.25,4.25,0,0,1-.36-1.8,4.73,4.73,0,0,1,.33-1.8,2.59,2.59,0,0,1,1-1.23,2.62,2.62,0,0,1,1.48-.43,2.16,2.16,0,0,1,1.06.25,2.22,2.22,0,0,1,.76.66V79.29h1.12v9.13Zm-3.55-3.3A2.85,2.85,0,0,0,33.1,87a1.62,1.62,0,0,0,1.26.63,1.59,1.59,0,0,0,1.25-.6,2.79,2.79,0,0,0,.52-1.84,3.09,3.09,0,0,0-.53-2,1.62,1.62,0,0,0-1.29-.63,1.55,1.55,0,0,0-1.25.61A3,3,0,0,0,32.56,85.12Z"/><path class="cls-1" d="M38.92,80.58V79.29H40v1.29Zm0,7.84V81.81H40v6.61Z"/><path class="cls-1" d="M41.73,88.42V81.81h1v1a2.75,2.75,0,0,1,.71-.93,1.25,1.25,0,0,1,.72-.22,2.18,2.18,0,0,1,1.15.36l-.38,1a1.64,1.64,0,0,0-.82-.24,1,1,0,0,0-.66.22,1.13,1.13,0,0,0-.42.61A4.19,4.19,0,0,0,42.85,85v3.46Z"/><path class="cls-1" d="M50.52,86.29l1.16.14a2.78,2.78,0,0,1-1,1.58,3.44,3.44,0,0,1-4.19-.33,3.49,3.49,0,0,1-.85-2.51,3.62,3.62,0,0,1,.86-2.59,2.88,2.88,0,0,1,2.23-.92,2.82,2.82,0,0,1,2.16.9,3.55,3.55,0,0,1,.85,2.54c0,.07,0,.17,0,.3H46.78a2.53,2.53,0,0,0,.61,1.67,1.83,1.83,0,0,0,1.39.58,1.69,1.69,0,0,0,1-.33A2.13,2.13,0,0,0,50.52,86.29Zm-3.68-1.81h3.69a2.25,2.25,0,0,0-.42-1.25,1.73,1.73,0,0,0-1.39-.65,1.76,1.76,0,0,0-1.3.52A2,2,0,0,0,46.84,84.48Z"/><path class="cls-1" d="M57.4,86l1.1.14a2.85,2.85,0,0,1-.92,1.79,2.71,2.71,0,0,1-1.83.64,2.85,2.85,0,0,1-2.18-.89,3.6,3.6,0,0,1-.83-2.54,4.6,4.6,0,0,1,.36-1.88,2.43,2.43,0,0,1,1.08-1.2,3.17,3.17,0,0,1,1.58-.4,2.76,2.76,0,0,1,1.76.54,2.51,2.51,0,0,1,.88,1.55l-1.09.17a1.83,1.83,0,0,0-.55-1,1.43,1.43,0,0,0-1-.34,1.75,1.75,0,0,0-1.38.61,2.88,2.88,0,0,0-.52,1.92A3,3,0,0,0,54.41,87a1.64,1.64,0,0,0,1.33.61,1.56,1.56,0,0,0,1.1-.41A2,2,0,0,0,57.4,86Z"/><path class="cls-1" d="M63.78,86l1.1.14A2.9,2.9,0,0,1,64,87.93a2.71,2.71,0,0,1-1.83.64A2.83,2.83,0,0,1,60,87.68a3.6,3.6,0,0,1-.83-2.54,4.6,4.6,0,0,1,.36-1.88,2.43,2.43,0,0,1,1.08-1.2,3.17,3.17,0,0,1,1.58-.4,2.78,2.78,0,0,1,1.76.54,2.56,2.56,0,0,1,.88,1.55l-1.09.17a1.83,1.83,0,0,0-.55-1,1.43,1.43,0,0,0-1-.34,1.74,1.74,0,0,0-1.38.61,2.88,2.88,0,0,0-.53,1.92A3,3,0,0,0,60.78,87a1.66,1.66,0,0,0,1.34.61,1.58,1.58,0,0,0,1.1-.41A2,2,0,0,0,63.78,86Z"/><path class="cls-1" d="M65.85,80.58V79.29H67v1.29Zm0,7.84V81.81H67v6.61Z"/><path class="cls-1" d="M68.26,85.11a3.42,3.42,0,0,1,1-2.72,3.07,3.07,0,0,1,2.08-.73,3,3,0,0,1,2.23.89A3.4,3.4,0,0,1,74.46,85a4.32,4.32,0,0,1-.39,2A2.65,2.65,0,0,1,73,88.17a3.25,3.25,0,0,1-1.6.4,3,3,0,0,1-2.25-.89A3.56,3.56,0,0,1,68.26,85.11Zm1.15,0A2.88,2.88,0,0,0,70,87a1.79,1.79,0,0,0,1.4.63A1.75,1.75,0,0,0,72.75,87a2.87,2.87,0,0,0,.55-1.93,2.74,2.74,0,0,0-.55-1.86,1.87,1.87,0,0,0-2.79,0A2.87,2.87,0,0,0,69.41,85.11ZM70.74,81l.83-1.74H73L71.67,81Z"/><path class="cls-1" d="M75.77,88.42V81.81h1v.94a2.36,2.36,0,0,1,2.1-1.09,2.8,2.8,0,0,1,1.1.21,1.66,1.66,0,0,1,.75.57,2,2,0,0,1,.35.82,6.76,6.76,0,0,1,.06,1.09v4.07H80v-4a3,3,0,0,0-.13-1,1.09,1.09,0,0,0-.46-.54,1.51,1.51,0,0,0-.78-.2,1.84,1.84,0,0,0-1.24.45,2.25,2.25,0,0,0-.52,1.73v3.61Z"/><path class="cls-1" d="M90.7,88.42v-.83a2.07,2.07,0,0,1-1.85,1,2.57,2.57,0,0,1-1.45-.43,2.87,2.87,0,0,1-1-1.22,4.11,4.11,0,0,1-.37-1.8,4.73,4.73,0,0,1,.33-1.8,2.59,2.59,0,0,1,1-1.23,2.64,2.64,0,0,1,1.48-.43,2.16,2.16,0,0,1,1.06.25,2.13,2.13,0,0,1,.76.66V79.29h1.12v9.13Zm-3.54-3.3a2.85,2.85,0,0,0,.53,1.9,1.62,1.62,0,0,0,1.27.63,1.57,1.57,0,0,0,1.24-.6,2.73,2.73,0,0,0,.52-1.84,3.09,3.09,0,0,0-.53-2,1.59,1.59,0,0,0-1.28-.63,1.54,1.54,0,0,0-1.25.61A2.94,2.94,0,0,0,87.16,85.12Z"/><path class="cls-1" d="M98,86.29l1.16.14a2.78,2.78,0,0,1-1,1.58A3.44,3.44,0,0,1,94,87.68a3.49,3.49,0,0,1-.85-2.51A3.62,3.62,0,0,1,94,82.58a3.11,3.11,0,0,1,4.4,0,3.59,3.59,0,0,1,.84,2.54c0,.07,0,.17,0,.3H94.29a2.53,2.53,0,0,0,.61,1.67,1.83,1.83,0,0,0,1.39.58,1.69,1.69,0,0,0,1-.33A2.13,2.13,0,0,0,98,86.29Zm-3.68-1.81H98a2.25,2.25,0,0,0-.42-1.25,1.73,1.73,0,0,0-1.39-.65,1.77,1.77,0,0,0-1.3.52A2,2,0,0,0,94.35,84.48Z"/><path class="cls-1" d="M108.46,86l1.1.14a2.86,2.86,0,0,1-.93,1.79,2.66,2.66,0,0,1-1.82.64,2.86,2.86,0,0,1-2.19-.89,3.59,3.59,0,0,1-.82-2.54,4.78,4.78,0,0,1,.35-1.88,2.53,2.53,0,0,1,1.08-1.2,3.2,3.2,0,0,1,1.58-.4,2.74,2.74,0,0,1,1.76.54,2.51,2.51,0,0,1,.88,1.55l-1.09.17a1.71,1.71,0,0,0-.55-1,1.39,1.39,0,0,0-1-.34,1.72,1.72,0,0,0-1.38.61,2.88,2.88,0,0,0-.53,1.92,3,3,0,0,0,.51,1.93,1.65,1.65,0,0,0,1.33.61,1.6,1.6,0,0,0,1.11-.41A2,2,0,0,0,108.46,86Z"/><path class="cls-1" d="M110.1,85.11a3.42,3.42,0,0,1,1-2.72,3.07,3.07,0,0,1,2.08-.73,3,3,0,0,1,2.23.89A3.4,3.4,0,0,1,116.3,85a4.47,4.47,0,0,1-.38,2,2.73,2.73,0,0,1-1.12,1.14,3.25,3.25,0,0,1-1.6.4,3,3,0,0,1-2.24-.89A3.56,3.56,0,0,1,110.1,85.11Zm1.15,0a2.83,2.83,0,0,0,.56,1.91,1.77,1.77,0,0,0,1.39.63,1.75,1.75,0,0,0,1.39-.64,2.87,2.87,0,0,0,.56-1.93,2.74,2.74,0,0,0-.56-1.86,1.86,1.86,0,0,0-2.78,0A2.82,2.82,0,0,0,111.25,85.11Z"/><path class="cls-1" d="M117.6,88.42V81.81h1v1a2.75,2.75,0,0,1,.71-.93,1.25,1.25,0,0,1,.72-.22,2.18,2.18,0,0,1,1.15.36l-.38,1a1.64,1.64,0,0,0-.82-.24,1,1,0,0,0-.66.22,1.13,1.13,0,0,0-.42.61,4.19,4.19,0,0,0-.19,1.31v3.46Z"/><path class="cls-1" d="M121.85,88.42V81.81h1v1a2.63,2.63,0,0,1,.71-.93,1.25,1.25,0,0,1,.72-.22,2.18,2.18,0,0,1,1.15.36l-.38,1a1.65,1.65,0,0,0-.83-.24,1.07,1.07,0,0,0-.66.22,1.17,1.17,0,0,0-.41.61A4.19,4.19,0,0,0,123,85v3.46Z"/><path class="cls-1" d="M130.64,86.29l1.15.14a2.81,2.81,0,0,1-1,1.58,3.45,3.45,0,0,1-4.2-.33,3.53,3.53,0,0,1-.85-2.51,3.66,3.66,0,0,1,.86-2.59,2.9,2.9,0,0,1,2.23-.92,2.83,2.83,0,0,1,2.17.9,3.59,3.59,0,0,1,.84,2.54v.3h-4.94a2.54,2.54,0,0,0,.62,1.67,1.82,1.82,0,0,0,1.38.58,1.69,1.69,0,0,0,1.05-.33A2.07,2.07,0,0,0,130.64,86.29ZM127,84.48h3.69a2.25,2.25,0,0,0-.42-1.25,1.85,1.85,0,0,0-2.69-.13A2,2,0,0,0,127,84.48Z"/><path class="cls-1" d="M132.78,85.11a3.42,3.42,0,0,1,1-2.72,3.07,3.07,0,0,1,2.08-.73,3,3,0,0,1,2.23.89A3.44,3.44,0,0,1,139,85a4.47,4.47,0,0,1-.38,2,2.73,2.73,0,0,1-1.12,1.14,3.21,3.21,0,0,1-1.59.4,3,3,0,0,1-2.25-.89A3.56,3.56,0,0,1,132.78,85.11Zm1.16,0a2.83,2.83,0,0,0,.55,1.91,1.79,1.79,0,0,0,1.4.63,1.76,1.76,0,0,0,1.39-.64,2.87,2.87,0,0,0,.55-1.93,2.74,2.74,0,0,0-.56-1.86,1.76,1.76,0,0,0-1.38-.63,1.81,1.81,0,0,0-1.4.62A2.82,2.82,0,0,0,133.94,85.11Z"/><path class="cls-1" d="M148.37,86.29l1.16.14a2.83,2.83,0,0,1-1,1.58,3.44,3.44,0,0,1-4.19-.33,3.49,3.49,0,0,1-.85-2.51,3.62,3.62,0,0,1,.86-2.59,2.88,2.88,0,0,1,2.23-.92,2.82,2.82,0,0,1,2.16.9,3.59,3.59,0,0,1,.84,2.54v.3h-4.93a2.53,2.53,0,0,0,.61,1.67,1.82,1.82,0,0,0,1.38.58,1.7,1.7,0,0,0,1.06-.33A2.13,2.13,0,0,0,148.37,86.29Zm-3.68-1.81h3.69a2.25,2.25,0,0,0-.42-1.25,1.73,1.73,0,0,0-1.39-.65,1.76,1.76,0,0,0-1.3.52A2,2,0,0,0,144.69,84.48Z"/><path class="cls-1" d="M150.91,88.42V79.29H152v9.13Z"/><path class="cls-1" d="M158.3,86.29l1.16.14a2.88,2.88,0,0,1-1,1.58,3.07,3.07,0,0,1-1.89.56,3,3,0,0,1-2.3-.89,3.49,3.49,0,0,1-.85-2.51,3.66,3.66,0,0,1,.85-2.59,2.9,2.9,0,0,1,2.23-.92,2.83,2.83,0,0,1,2.17.9,3.59,3.59,0,0,1,.84,2.54v.3h-4.94a2.54,2.54,0,0,0,.62,1.67,1.82,1.82,0,0,0,1.38.58,1.74,1.74,0,0,0,1.06-.33A2.13,2.13,0,0,0,158.3,86.29Zm-3.68-1.81h3.69a2.25,2.25,0,0,0-.42-1.25,1.73,1.73,0,0,0-1.39-.65,1.76,1.76,0,0,0-1.3.52A2,2,0,0,0,154.62,84.48Z"/><path class="cls-1" d="M165.18,86l1.1.14a2.9,2.9,0,0,1-.92,1.79,2.71,2.71,0,0,1-1.83.64,2.83,2.83,0,0,1-2.18-.89,3.6,3.6,0,0,1-.83-2.54,4.6,4.6,0,0,1,.36-1.88,2.43,2.43,0,0,1,1.08-1.2,3.16,3.16,0,0,1,1.57-.4,2.79,2.79,0,0,1,1.77.54,2.56,2.56,0,0,1,.88,1.55l-1.09.17a1.77,1.77,0,0,0-.56-1,1.39,1.39,0,0,0-.95-.34,1.72,1.72,0,0,0-1.38.61,2.88,2.88,0,0,0-.53,1.92,3,3,0,0,0,.51,1.93,1.66,1.66,0,0,0,1.34.61,1.58,1.58,0,0,0,1.1-.41A2,2,0,0,0,165.18,86Z"/><path class="cls-1" d="M169.69,87.42l.16,1a4,4,0,0,1-.85.1,2,2,0,0,1-.94-.19,1.07,1.07,0,0,1-.48-.51,4.14,4.14,0,0,1-.13-1.33v-3.8h-.83v-.87h.83V80.17l1.11-.67v2.31h1.13v.87h-1.13v3.87a1.87,1.87,0,0,0,.06.61.45.45,0,0,0,.19.22.71.71,0,0,0,.39.08A3.5,3.5,0,0,0,169.69,87.42Z"/><path class="cls-1" d="M170.77,88.42V81.81h1v1a2.89,2.89,0,0,1,.71-.93,1.25,1.25,0,0,1,.72-.22,2.21,2.21,0,0,1,1.16.36l-.39,1a1.61,1.61,0,0,0-.82-.24,1,1,0,0,0-.66.22,1.13,1.13,0,0,0-.42.61,4.5,4.5,0,0,0-.19,1.31v3.46Z"/><path class="cls-1" d="M174.62,85.11a3.42,3.42,0,0,1,1-2.72,3.07,3.07,0,0,1,2.08-.73,3,3,0,0,1,2.23.89,3.44,3.44,0,0,1,.86,2.47,4.33,4.33,0,0,1-.38,2,2.73,2.73,0,0,1-1.12,1.14,3.21,3.21,0,0,1-1.59.4,3,3,0,0,1-2.25-.89A3.56,3.56,0,0,1,174.62,85.11Zm1.15,0a2.83,2.83,0,0,0,.55,1.91,1.79,1.79,0,0,0,1.4.63,1.76,1.76,0,0,0,1.39-.64,2.87,2.87,0,0,0,.55-1.93,2.74,2.74,0,0,0-.56-1.86,1.76,1.76,0,0,0-1.38-.63,1.81,1.81,0,0,0-1.4.62A2.82,2.82,0,0,0,175.77,85.11ZM177.09,81l.83-1.74h1.47L178,81Z"/><path class="cls-1" d="M182.13,88.42V81.81h1v.94a2.35,2.35,0,0,1,2.1-1.09,2.8,2.8,0,0,1,1.1.21,1.78,1.78,0,0,1,.75.57,2.1,2.1,0,0,1,.35.82,6.76,6.76,0,0,1,.06,1.09v4.07h-1.12v-4a3,3,0,0,0-.13-1,1.14,1.14,0,0,0-.46-.54,1.57,1.57,0,0,0-.79-.2,1.81,1.81,0,0,0-1.23.45,2.25,2.25,0,0,0-.52,1.73v3.61Z"/><path class="cls-1" d="M189.23,80.58V79.29h1.12v1.29Zm0,7.84V81.81h1.12v6.61Z"/><path class="cls-1" d="M196.37,86l1.1.14a2.85,2.85,0,0,1-.92,1.79,2.71,2.71,0,0,1-1.83.64,2.85,2.85,0,0,1-2.18-.89,3.6,3.6,0,0,1-.83-2.54,4.6,4.6,0,0,1,.36-1.88,2.43,2.43,0,0,1,1.08-1.2,3.17,3.17,0,0,1,1.58-.4,2.76,2.76,0,0,1,1.76.54,2.51,2.51,0,0,1,.88,1.55l-1.09.17a1.83,1.83,0,0,0-.55-1,1.43,1.43,0,0,0-1-.34,1.75,1.75,0,0,0-1.38.61,3.79,3.79,0,0,0,0,3.85,1.64,1.64,0,0,0,1.33.61,1.56,1.56,0,0,0,1.1-.41A2,2,0,0,0,196.37,86Z"/><path class="cls-1" d="M198,85.11a3.42,3.42,0,0,1,1-2.72,3.07,3.07,0,0,1,2.08-.73,3,3,0,0,1,2.23.89,3.44,3.44,0,0,1,.86,2.47,4.33,4.33,0,0,1-.38,2,2.77,2.77,0,0,1-1.11,1.14,3.28,3.28,0,0,1-1.6.4,3,3,0,0,1-2.25-.89A3.56,3.56,0,0,1,198,85.11Zm1.15,0a2.83,2.83,0,0,0,.55,1.91,1.79,1.79,0,0,0,1.4.63,1.76,1.76,0,0,0,1.39-.64,2.87,2.87,0,0,0,.55-1.93,2.69,2.69,0,0,0-.56-1.86,1.76,1.76,0,0,0-1.38-.63,1.81,1.81,0,0,0-1.4.62A2.82,2.82,0,0,0,199.17,85.11Z"/><path class="cls-1" d="M205.82,88.42V87.15h1.28v1.27a2.35,2.35,0,0,1-.25,1.14,1.65,1.65,0,0,1-.79.67l-.32-.48a1.1,1.1,0,0,0,.53-.46,2,2,0,0,0,.18-.87Z"/><path class="cls-1" d="M215.06,87.42l.16,1a3.82,3.82,0,0,1-.84.1,2,2,0,0,1-.95-.19,1.1,1.1,0,0,1-.47-.51,4,4,0,0,1-.14-1.33v-3.8H212v-.87h.82V80.17l1.12-.67v2.31h1.12v.87h-1.12v3.87a2,2,0,0,0,.05.61.47.47,0,0,0,.2.22.67.67,0,0,0,.38.08A3.39,3.39,0,0,0,215.06,87.42Z"/><path class="cls-1" d="M220.69,86.29l1.16.14a2.88,2.88,0,0,1-1,1.58,3.07,3.07,0,0,1-1.89.56,3,3,0,0,1-2.3-.89,3.49,3.49,0,0,1-.86-2.51,3.62,3.62,0,0,1,.87-2.59,2.87,2.87,0,0,1,2.22-.92,2.83,2.83,0,0,1,2.17.9,3.59,3.59,0,0,1,.84,2.54v.3h-4.94a2.54,2.54,0,0,0,.62,1.67,1.82,1.82,0,0,0,1.38.58,1.74,1.74,0,0,0,1.06-.33A2.13,2.13,0,0,0,220.69,86.29ZM217,84.48h3.69a2.25,2.25,0,0,0-.42-1.25,1.73,1.73,0,0,0-1.39-.65,1.76,1.76,0,0,0-1.3.52A2,2,0,0,0,217,84.48Z"/><path class="cls-1" d="M231.11,87.6a3.81,3.81,0,0,1-1.2.75,3.32,3.32,0,0,1-1.23.22A2.43,2.43,0,0,1,227,88a1.89,1.89,0,0,1-.36-2.25,1.79,1.79,0,0,1,.58-.64,2.54,2.54,0,0,1,.8-.37,7.16,7.16,0,0,1,1-.17,10.27,10.27,0,0,0,2-.39c0-.15,0-.25,0-.29a1.22,1.22,0,0,0-.32-1,1.85,1.85,0,0,0-1.28-.38,2,2,0,0,0-1.17.27,1.71,1.71,0,0,0-.55,1l-1.1-.15a2.73,2.73,0,0,1,.49-1.13,2.2,2.2,0,0,1,1-.67,4.3,4.3,0,0,1,1.5-.23,3.8,3.8,0,0,1,1.38.2,1.85,1.85,0,0,1,.78.5,1.73,1.73,0,0,1,.35.76,6.21,6.21,0,0,1,.05,1v1.5a14.92,14.92,0,0,0,.08,2,2.34,2.34,0,0,0,.28.79h-1.17A2.4,2.4,0,0,1,231.11,87.6ZM231,85.1a7.79,7.79,0,0,1-1.83.42,4.57,4.57,0,0,0-1,.23.93.93,0,0,0-.44.36,1,1,0,0,0-.16.54,1,1,0,0,0,.34.74,1.48,1.48,0,0,0,1,.3,2.3,2.3,0,0,0,1.15-.28,1.74,1.74,0,0,0,.74-.78,2.68,2.68,0,0,0,.18-1.12Z"/><path class="cls-1" d="M233.84,91l-.12-1a2.79,2.79,0,0,0,.64.1,1.27,1.27,0,0,0,.6-.13.93.93,0,0,0,.36-.35,5.51,5.51,0,0,0,.35-.83c0-.06.05-.16.1-.28l-2.51-6.62h1.2l1.38,3.83a15.27,15.27,0,0,1,.48,1.53,14.69,14.69,0,0,1,.46-1.51l1.41-3.85h1.13l-2.52,6.72a12.47,12.47,0,0,1-.63,1.5,2.29,2.29,0,0,1-.68.82,1.66,1.66,0,0,1-.93.26A2.33,2.33,0,0,1,233.84,91Z"/><path class="cls-1" d="M244.6,88.42v-1a2.4,2.4,0,0,1-2.09,1.12,2.67,2.67,0,0,1-1.1-.22,1.74,1.74,0,0,1-.75-.57,2,2,0,0,1-.35-.83,6.25,6.25,0,0,1-.07-1V81.81h1.13v3.67a7.42,7.42,0,0,0,.06,1.18,1.14,1.14,0,0,0,.45.69,1.38,1.38,0,0,0,.85.25,1.88,1.88,0,0,0,1-.25,1.47,1.47,0,0,0,.62-.71,3.5,3.5,0,0,0,.19-1.29V81.81h1.12v6.61Z"/><path class="cls-1" d="M251.65,88.42v-.83a2,2,0,0,1-1.84,1,2.6,2.6,0,0,1-1.46-.43,3,3,0,0,1-1-1.22,4.25,4.25,0,0,1-.36-1.8,4.73,4.73,0,0,1,.33-1.8,2.59,2.59,0,0,1,1-1.23,2.62,2.62,0,0,1,1.48-.43,2.18,2.18,0,0,1,1.06.25,2.22,2.22,0,0,1,.76.66V79.29h1.12v9.13Zm-3.54-3.3a2.85,2.85,0,0,0,.54,1.9,1.6,1.6,0,0,0,1.26.63,1.59,1.59,0,0,0,1.25-.6,2.79,2.79,0,0,0,.51-1.84,3.1,3.1,0,0,0-.52-2,1.62,1.62,0,0,0-1.29-.63,1.55,1.55,0,0,0-1.25.61A3,3,0,0,0,248.11,85.12Z"/><path class="cls-1" d="M258.77,87.6a3.81,3.81,0,0,1-1.2.75,3.32,3.32,0,0,1-1.23.22,2.43,2.43,0,0,1-1.68-.53,1.89,1.89,0,0,1-.36-2.25,1.79,1.79,0,0,1,.58-.64,2.54,2.54,0,0,1,.8-.37,7.16,7.16,0,0,1,1-.17,10.27,10.27,0,0,0,2-.39c0-.15,0-.25,0-.29a1.22,1.22,0,0,0-.32-1,1.85,1.85,0,0,0-1.28-.38,2,2,0,0,0-1.17.27,1.71,1.71,0,0,0-.55,1l-1.1-.15a2.73,2.73,0,0,1,.49-1.13,2.2,2.2,0,0,1,1-.67,4.38,4.38,0,0,1,1.5-.23,3.8,3.8,0,0,1,1.38.2,1.85,1.85,0,0,1,.78.5,1.73,1.73,0,0,1,.35.76,6.21,6.21,0,0,1,.05,1v1.5a14.92,14.92,0,0,0,.08,2,2.34,2.34,0,0,0,.28.79H259A2.4,2.4,0,0,1,258.77,87.6Zm-.09-2.5a7.79,7.79,0,0,1-1.83.42,4.57,4.57,0,0,0-1,.23.93.93,0,0,0-.44.36,1,1,0,0,0-.16.54,1,1,0,0,0,.34.74,1.48,1.48,0,0,0,1,.3,2.3,2.3,0,0,0,1.15-.28,1.74,1.74,0,0,0,.74-.78,2.68,2.68,0,0,0,.18-1.12Z"/><path class="cls-1" d="M261.54,88.42V81.81h1v1a2.75,2.75,0,0,1,.71-.93,1.25,1.25,0,0,1,.72-.22,2.18,2.18,0,0,1,1.15.36l-.38,1a1.64,1.64,0,0,0-.82-.24,1,1,0,0,0-.66.22,1.13,1.13,0,0,0-.42.61,4.19,4.19,0,0,0-.19,1.31v3.46Z"/><path class="cls-1" d="M270.33,86.29l1.16.14a2.83,2.83,0,0,1-1,1.58,3.44,3.44,0,0,1-4.19-.33,3.49,3.49,0,0,1-.85-2.51,3.62,3.62,0,0,1,.86-2.59,2.88,2.88,0,0,1,2.23-.92,2.82,2.82,0,0,1,2.16.9,3.59,3.59,0,0,1,.84,2.54v.3h-4.93a2.53,2.53,0,0,0,.61,1.67,1.82,1.82,0,0,0,1.38.58,1.7,1.7,0,0,0,1.06-.33A2.13,2.13,0,0,0,270.33,86.29Zm-3.68-1.81h3.69a2.25,2.25,0,0,0-.42-1.25,1.73,1.73,0,0,0-1.39-.65,1.76,1.76,0,0,0-1.3.52A2,2,0,0,0,266.65,84.48Z"/><path class="cls-1" d="M272.89,88.42V81.81h1v.92a2.31,2.31,0,0,1,.83-.78,2.36,2.36,0,0,1,1.17-.29,2.24,2.24,0,0,1,1.21.3,1.68,1.68,0,0,1,.66.86,2.36,2.36,0,0,1,2-1.16,2,2,0,0,1,1.52.54,2.37,2.37,0,0,1,.53,1.68v4.54h-1.12V84.25a2.81,2.81,0,0,0-.11-1,.91.91,0,0,0-.39-.48,1.25,1.25,0,0,0-.68-.18,1.54,1.54,0,0,0-1.15.46,2,2,0,0,0-.46,1.49v3.84h-1.13v-4.3a1.93,1.93,0,0,0-.27-1.12,1,1,0,0,0-.9-.37,1.6,1.6,0,0,0-.87.25,1.38,1.38,0,0,0-.58.73A4.11,4.11,0,0,0,274,85v3.43Z"/><path class="cls-1" d="M283.1,85.11a3.42,3.42,0,0,1,1-2.72,3.09,3.09,0,0,1,2.08-.73,3,3,0,0,1,2.23.89A3.4,3.4,0,0,1,289.3,85a4.47,4.47,0,0,1-.38,2,2.73,2.73,0,0,1-1.12,1.14,3.25,3.25,0,0,1-1.6.4,3,3,0,0,1-2.24-.89A3.56,3.56,0,0,1,283.1,85.11Zm1.16,0a2.83,2.83,0,0,0,.55,1.91,1.77,1.77,0,0,0,1.39.63,1.75,1.75,0,0,0,1.39-.64,2.87,2.87,0,0,0,.56-1.93,2.74,2.74,0,0,0-.56-1.86,1.77,1.77,0,0,0-1.39-.63,1.79,1.79,0,0,0-1.39.62A2.82,2.82,0,0,0,284.26,85.11Z"/><path class="cls-1" d="M290.17,86.45l1.1-.18a1.57,1.57,0,0,0,.52,1,1.83,1.83,0,0,0,1.2.36,1.74,1.74,0,0,0,1.14-.32.93.93,0,0,0,.38-.73.67.67,0,0,0-.33-.6,4.85,4.85,0,0,0-1.15-.38,11,11,0,0,1-1.71-.54,1.59,1.59,0,0,1-.72-.63,1.62,1.62,0,0,1-.25-.89,1.81,1.81,0,0,1,.2-.82,1.75,1.75,0,0,1,.56-.62,2.24,2.24,0,0,1,.71-.33,3.35,3.35,0,0,1,1-.13,3.77,3.77,0,0,1,1.36.22,1.77,1.77,0,0,1,.87.61,2.32,2.32,0,0,1,.39,1l-1.1.15a1.17,1.17,0,0,0-.43-.79,1.54,1.54,0,0,0-1-.29,1.82,1.82,0,0,0-1.1.25.74.74,0,0,0-.33.6.59.59,0,0,0,.13.39,1,1,0,0,0,.43.3c.11,0,.44.14,1,.29a13.75,13.75,0,0,1,1.66.52,1.62,1.62,0,0,1,.74.59,1.65,1.65,0,0,1,.27,1,1.86,1.86,0,0,1-.33,1,2.12,2.12,0,0,1-.94.77,3.46,3.46,0,0,1-1.4.27,3.14,3.14,0,0,1-2-.53A2.49,2.49,0,0,1,290.17,86.45Z"/><path class="cls-1" d="M304.85,87.6a3.81,3.81,0,0,1-1.2.75,3.32,3.32,0,0,1-1.23.22,2.43,2.43,0,0,1-1.68-.53,1.89,1.89,0,0,1-.36-2.25,1.71,1.71,0,0,1,.58-.64,2.35,2.35,0,0,1,.8-.37,6.9,6.9,0,0,1,1-.17,10.44,10.44,0,0,0,2-.39c0-.15,0-.25,0-.29a1.22,1.22,0,0,0-.32-1,1.87,1.87,0,0,0-1.28-.38,2,2,0,0,0-1.17.27,1.71,1.71,0,0,0-.56,1l-1.09-.15a2.73,2.73,0,0,1,.49-1.13,2.2,2.2,0,0,1,1-.67,4.3,4.3,0,0,1,1.5-.23,3.8,3.8,0,0,1,1.38.2,1.57,1.57,0,0,1,1.13,1.26,7.6,7.6,0,0,1,.05,1v1.5a18,18,0,0,0,.07,2,2.6,2.6,0,0,0,.29.79h-1.17A2.4,2.4,0,0,1,304.85,87.6Zm-.09-2.5a7.79,7.79,0,0,1-1.83.42,4.57,4.57,0,0,0-1,.23,1,1,0,0,0-.6.9.94.94,0,0,0,.34.74,1.46,1.46,0,0,0,1,.3,2.32,2.32,0,0,0,1.16-.28,1.8,1.8,0,0,0,.74-.78,2.68,2.68,0,0,0,.18-1.12Z"/><path class="cls-1" d="M315.7,86.29l1.16.14a2.81,2.81,0,0,1-1,1.58,3.1,3.1,0,0,1-1.9.56,3,3,0,0,1-2.3-.89,3.49,3.49,0,0,1-.85-2.51,3.66,3.66,0,0,1,.86-2.59,2.89,2.89,0,0,1,2.23-.92,2.84,2.84,0,0,1,2.17.9,3.59,3.59,0,0,1,.84,2.54c0,.07,0,.17,0,.3H312a2.54,2.54,0,0,0,.62,1.67,1.81,1.81,0,0,0,1.38.58,1.69,1.69,0,0,0,1.05-.33A2.13,2.13,0,0,0,315.7,86.29ZM312,84.48h3.7a2.25,2.25,0,0,0-.43-1.25,1.73,1.73,0,0,0-1.39-.65,1.77,1.77,0,0,0-1.3.52A2,2,0,0,0,312,84.48Z"/><path class="cls-1" d="M318.27,88.42V81.81h1v.94a2.36,2.36,0,0,1,2.1-1.09,2.8,2.8,0,0,1,1.1.21,1.66,1.66,0,0,1,.75.57,2,2,0,0,1,.35.82,6.76,6.76,0,0,1,.06,1.09v4.07h-1.12v-4a3,3,0,0,0-.13-1,1.09,1.09,0,0,0-.46-.54,1.51,1.51,0,0,0-.78-.2,1.84,1.84,0,0,0-1.24.45,2.25,2.25,0,0,0-.52,1.73v3.61Z"/><path class="cls-1" d="M329.68,86l1.1.14a2.9,2.9,0,0,1-.92,1.79,2.71,2.71,0,0,1-1.83.64,2.83,2.83,0,0,1-2.18-.89,3.6,3.6,0,0,1-.83-2.54,4.6,4.6,0,0,1,.36-1.88,2.43,2.43,0,0,1,1.08-1.2,3.16,3.16,0,0,1,1.57-.4,2.79,2.79,0,0,1,1.77.54,2.56,2.56,0,0,1,.88,1.55l-1.09.17a1.77,1.77,0,0,0-.56-1,1.39,1.39,0,0,0-.95-.34,1.74,1.74,0,0,0-1.38.61,2.88,2.88,0,0,0-.53,1.92,3,3,0,0,0,.51,1.93,1.66,1.66,0,0,0,1.34.61,1.58,1.58,0,0,0,1.1-.41A2,2,0,0,0,329.68,86Z"/><path class="cls-1" d="M331.32,85.11a3.39,3.39,0,0,1,1-2.72,3.05,3.05,0,0,1,2.08-.73,3,3,0,0,1,2.22.89,3.4,3.4,0,0,1,.87,2.47,4.47,4.47,0,0,1-.38,2A2.73,2.73,0,0,1,336,88.17a3.24,3.24,0,0,1-1.59.4,3,3,0,0,1-2.25-.89A3.56,3.56,0,0,1,331.32,85.11Zm1.16,0A2.83,2.83,0,0,0,333,87a1.78,1.78,0,0,0,1.4.63,1.74,1.74,0,0,0,1.38-.64,2.87,2.87,0,0,0,.56-1.93,2.74,2.74,0,0,0-.56-1.86,1.76,1.76,0,0,0-1.38-.63,1.8,1.8,0,0,0-1.4.62A2.82,2.82,0,0,0,332.48,85.11Z"/><path class="cls-1" d="M338.84,88.42V81.81h1v.94A2.38,2.38,0,0,1,342,81.66a2.84,2.84,0,0,1,1.1.21,1.78,1.78,0,0,1,.75.57,2.1,2.1,0,0,1,.35.82,6.76,6.76,0,0,1,.06,1.09v4.07h-1.12v-4a3,3,0,0,0-.13-1,1.11,1.11,0,0,0-.47-.54,1.51,1.51,0,0,0-.78-.2,1.81,1.81,0,0,0-1.23.45,2.25,2.25,0,0,0-.52,1.73v3.61Z"/><path class="cls-1" d="M348.38,87.42l.16,1a4,4,0,0,1-.85.1,2,2,0,0,1-.94-.19,1.07,1.07,0,0,1-.48-.51,4,4,0,0,1-.14-1.33v-3.8h-.82v-.87h.82V80.17l1.12-.67v2.31h1.13v.87h-1.13v3.87a1.87,1.87,0,0,0,.06.61.45.45,0,0,0,.19.22.71.71,0,0,0,.39.08A3.5,3.5,0,0,0,348.38,87.42Z"/><path class="cls-1" d="M349.46,88.42V81.81h1v1a2.89,2.89,0,0,1,.71-.93,1.25,1.25,0,0,1,.72-.22,2.18,2.18,0,0,1,1.15.36l-.38,1a1.64,1.64,0,0,0-.82-.24,1,1,0,0,0-.66.22,1.13,1.13,0,0,0-.42.61,4.19,4.19,0,0,0-.19,1.31v3.46Z"/><path class="cls-1" d="M358,87.6a4,4,0,0,1-1.2.75,3.41,3.41,0,0,1-1.24.22,2.42,2.42,0,0,1-1.67-.53,1.88,1.88,0,0,1-.37-2.25,1.79,1.79,0,0,1,.58-.64,2.49,2.49,0,0,1,.81-.37,7,7,0,0,1,1-.17,10.11,10.11,0,0,0,2-.39c0-.15,0-.25,0-.29a1.22,1.22,0,0,0-.32-1,1.82,1.82,0,0,0-1.27-.38,2,2,0,0,0-1.17.27,1.71,1.71,0,0,0-.56,1l-1.1-.15a2.74,2.74,0,0,1,.5-1.13,2.1,2.1,0,0,1,1-.67,4.3,4.3,0,0,1,1.5-.23,3.78,3.78,0,0,1,1.37.2,1.73,1.73,0,0,1,.78.5,1.62,1.62,0,0,1,.35.76,5.91,5.91,0,0,1,.06,1v1.5a15.65,15.65,0,0,0,.07,2,2.58,2.58,0,0,0,.28.79h-1.17A2.4,2.4,0,0,1,358,87.6Zm-.1-2.5a7.55,7.55,0,0,1-1.83.42,4.44,4.44,0,0,0-1,.23,1,1,0,0,0-.45.36,1,1,0,0,0-.15.54.94.94,0,0,0,.34.74,1.43,1.43,0,0,0,1,.3,2.28,2.28,0,0,0,1.15-.28,1.69,1.69,0,0,0,.74-.78,2.68,2.68,0,0,0,.18-1.12Z"/><path class="cls-1" d="M360.8,88.42V81.81h1v1a2.89,2.89,0,0,1,.71-.93,1.25,1.25,0,0,1,.72-.22,2.21,2.21,0,0,1,1.16.36l-.39,1a1.61,1.61,0,0,0-.82-.24,1,1,0,0,0-.66.22,1.13,1.13,0,0,0-.42.61,4.5,4.5,0,0,0-.19,1.31v3.46Z"/><path class="cls-1" d="M3.06,102.43l.17,1a4.74,4.74,0,0,1-.85.1,1.92,1.92,0,0,1-.95-.2,1.1,1.1,0,0,1-.47-.51,4,4,0,0,1-.14-1.32v-3.8H0v-.88H.82V95.18l1.12-.68v2.31H3.06v.88H1.94v3.86a2,2,0,0,0,.06.62.5.5,0,0,0,.19.22.8.8,0,0,0,.38.08C2.7,102.47,2.86,102.45,3.06,102.43Z"/><path class="cls-1" d="M8.5,103.43v-1a2.45,2.45,0,0,1-2.1,1.12,2.71,2.71,0,0,1-1.1-.23,1.78,1.78,0,0,1-.75-.56A2.24,2.24,0,0,1,4.2,102a6.52,6.52,0,0,1-.06-1v-4.1H5.26v3.67a6.21,6.21,0,0,0,.07,1.19,1.2,1.2,0,0,0,.44.69,1.38,1.38,0,0,0,.85.25,1.79,1.79,0,0,0,1-.26,1.41,1.41,0,0,0,.62-.7,3.37,3.37,0,0,0,.19-1.29V96.81H9.5v6.62Z"/><path class="cls-1" d="M10.81,101.45l1.11-.17a1.53,1.53,0,0,0,.52,1,1.78,1.78,0,0,0,1.19.36,1.74,1.74,0,0,0,1.14-.32.94.94,0,0,0,.38-.74.67.67,0,0,0-.33-.59,4.85,4.85,0,0,0-1.15-.38,11,11,0,0,1-1.71-.54,1.59,1.59,0,0,1-.72-.63,1.73,1.73,0,0,1-.25-.89,1.78,1.78,0,0,1,.76-1.44,2.24,2.24,0,0,1,.71-.33,3.34,3.34,0,0,1,1-.14,3.86,3.86,0,0,1,1.37.23,1.78,1.78,0,0,1,.86.61,2.27,2.27,0,0,1,.39,1l-1.1.15a1.2,1.2,0,0,0-.43-.8,1.58,1.58,0,0,0-1-.28,1.82,1.82,0,0,0-1.1.25.74.74,0,0,0-.33.6.61.61,0,0,0,.13.39,1.1,1.1,0,0,0,.43.3l1,.29a12.11,12.11,0,0,1,1.66.52,1.62,1.62,0,0,1,.74.59,1.59,1.59,0,0,1,.27,1,1.87,1.87,0,0,1-.33,1.06,2.12,2.12,0,0,1-.94.77,3.46,3.46,0,0,1-1.4.27,3.07,3.07,0,0,1-2-.54A2.44,2.44,0,0,1,10.81,101.45Z"/><path class="cls-1" d="M25.71,101.3l1.15.14a2.85,2.85,0,0,1-1,1.58,3.1,3.1,0,0,1-1.9.56,3,3,0,0,1-2.3-.9,3.5,3.5,0,0,1-.85-2.5,3.65,3.65,0,0,1,.86-2.59,2.91,2.91,0,0,1,2.23-.93,2.84,2.84,0,0,1,2.17.91,3.59,3.59,0,0,1,.84,2.54c0,.07,0,.16,0,.3H22a2.56,2.56,0,0,0,.62,1.67,1.86,1.86,0,0,0,1.38.58,1.69,1.69,0,0,0,1.05-.33A2.21,2.21,0,0,0,25.71,101.3ZM22,99.49h3.7a2.21,2.21,0,0,0-.43-1.26,1.71,1.71,0,0,0-1.39-.64,1.78,1.78,0,0,0-1.29.51A2.09,2.09,0,0,0,22,99.49Z"/><path class="cls-1" d="M27.82,101.45l1.11-.17a1.57,1.57,0,0,0,.52,1,1.8,1.8,0,0,0,1.19.36,1.75,1.75,0,0,0,1.15-.32.93.93,0,0,0,.37-.74.67.67,0,0,0-.33-.59,4.54,4.54,0,0,0-1.14-.38,11,11,0,0,1-1.71-.54,1.59,1.59,0,0,1-.72-.63,1.64,1.64,0,0,1-.25-.89,1.74,1.74,0,0,1,.2-.82,1.83,1.83,0,0,1,.55-.62,2.42,2.42,0,0,1,.72-.33,3.32,3.32,0,0,1,1-.14,3.82,3.82,0,0,1,1.37.23,1.87,1.87,0,0,1,.87.61,2.27,2.27,0,0,1,.39,1l-1.1.15a1.2,1.2,0,0,0-.43-.8,1.6,1.6,0,0,0-1-.28,1.86,1.86,0,0,0-1.11.25.74.74,0,0,0-.33.6.62.62,0,0,0,.14.39,1,1,0,0,0,.43.3c.11,0,.44.14,1,.29a12.61,12.61,0,0,1,1.66.52,1.67,1.67,0,0,1,.74.59,1.59,1.59,0,0,1,.27,1,1.87,1.87,0,0,1-.33,1.06,2.12,2.12,0,0,1-.94.77,3.5,3.5,0,0,1-1.4.27,3.07,3.07,0,0,1-2-.54A2.45,2.45,0,0,1,27.82,101.45Z"/><path class="cls-1" d="M34.65,106V96.81h1v.86a2.41,2.41,0,0,1,.82-.75,2.21,2.21,0,0,1,1.1-.26,2.6,2.6,0,0,1,2.47,1.67,4.79,4.79,0,0,1,0,3.57A2.84,2.84,0,0,1,39,103.15a2.78,2.78,0,0,1-1.46.43,2.09,2.09,0,0,1-1-.24,2.4,2.4,0,0,1-.73-.6V106Zm1-5.8a2.92,2.92,0,0,0,.52,1.89,1.59,1.59,0,0,0,2.53,0,3.76,3.76,0,0,0,0-3.85,1.59,1.59,0,0,0-1.25-.63,1.62,1.62,0,0,0-1.26.67A3,3,0,0,0,35.66,100.16Z"/><path class="cls-1" d="M46.06,102.61a4.26,4.26,0,0,1-1.2.75,3.37,3.37,0,0,1-1.24.22,2.42,2.42,0,0,1-1.67-.53,1.78,1.78,0,0,1-.59-1.37,1.85,1.85,0,0,1,.22-.88,1.83,1.83,0,0,1,.58-.65,3,3,0,0,1,.81-.37,9.15,9.15,0,0,1,1-.16,10.44,10.44,0,0,0,2-.39v-.29a1.22,1.22,0,0,0-.32-1,1.87,1.87,0,0,0-1.27-.38,2,2,0,0,0-1.17.28,1.68,1.68,0,0,0-.56,1l-1.09-.15a2.72,2.72,0,0,1,.49-1.14,2.19,2.19,0,0,1,1-.66,4.29,4.29,0,0,1,1.5-.24,4.11,4.11,0,0,1,1.38.2,1.84,1.84,0,0,1,.77.5,1.71,1.71,0,0,1,.35.77,5.83,5.83,0,0,1,.06,1v1.5a15.34,15.34,0,0,0,.07,2,2.54,2.54,0,0,0,.28.8H46.28A2.46,2.46,0,0,1,46.06,102.61Zm-.09-2.5a8.31,8.31,0,0,1-1.84.42,3.92,3.92,0,0,0-1,.23,1,1,0,0,0-.45.36,1,1,0,0,0-.15.53,1,1,0,0,0,.34.75,1.46,1.46,0,0,0,1,.3,2.39,2.39,0,0,0,1.15-.28,1.76,1.76,0,0,0,.75-.78,2.71,2.71,0,0,0,.18-1.12Z"/><path class="cls-1" d="M53.15,101l1.11.14a2.83,2.83,0,0,1-.93,1.78,2.7,2.7,0,0,1-1.83.65,2.85,2.85,0,0,1-2.18-.89,3.6,3.6,0,0,1-.83-2.54,4.57,4.57,0,0,1,.36-1.88,2.49,2.49,0,0,1,1.08-1.2,3.18,3.18,0,0,1,1.58-.41,2.74,2.74,0,0,1,1.76.55,2.48,2.48,0,0,1,.88,1.55l-1.09.17a1.83,1.83,0,0,0-.55-1,1.44,1.44,0,0,0-1-.33,1.74,1.74,0,0,0-1.37.6,2.86,2.86,0,0,0-.53,1.92,3,3,0,0,0,.51,1.94,1.67,1.67,0,0,0,1.33.61,1.56,1.56,0,0,0,1.1-.41A2,2,0,0,0,53.15,101Z"/><path class="cls-1" d="M55.22,95.59V94.3h1.12v1.29Zm0,7.84V96.81h1.12v6.62Z"/><path class="cls-1" d="M57.63,100.12a3.42,3.42,0,0,1,1-2.72,3.1,3.1,0,0,1,2.08-.74,3,3,0,0,1,2.23.9,3.38,3.38,0,0,1,.87,2.47,4.47,4.47,0,0,1-.38,2,2.77,2.77,0,0,1-1.12,1.13,3.26,3.26,0,0,1-1.6.41,3,3,0,0,1-2.24-.89A3.58,3.58,0,0,1,57.63,100.12Zm1.15,0a2.8,2.8,0,0,0,.56,1.9,1.83,1.83,0,0,0,2.78,0,2.88,2.88,0,0,0,.56-1.94,2.77,2.77,0,0,0-.56-1.86,1.85,1.85,0,0,0-2.78,0A2.8,2.8,0,0,0,58.78,100.12Z"/><path class="cls-1" d="M64.7,101.45l1.1-.17a1.62,1.62,0,0,0,.52,1,1.83,1.83,0,0,0,1.2.36,1.74,1.74,0,0,0,1.14-.32.94.94,0,0,0,.38-.74.67.67,0,0,0-.33-.59,4.85,4.85,0,0,0-1.15-.38,11,11,0,0,1-1.71-.54,1.59,1.59,0,0,1-.72-.63,1.64,1.64,0,0,1-.25-.89,1.71,1.71,0,0,1,.76-1.44,2.24,2.24,0,0,1,.71-.33,3.34,3.34,0,0,1,1-.14,3.76,3.76,0,0,1,1.36.23,1.77,1.77,0,0,1,.87.61,2.27,2.27,0,0,1,.39,1l-1.1.15a1.2,1.2,0,0,0-.43-.8,1.6,1.6,0,0,0-1-.28,1.82,1.82,0,0,0-1.1.25.74.74,0,0,0-.33.6.61.61,0,0,0,.13.39,1,1,0,0,0,.43.3c.11,0,.44.14,1,.29a12.11,12.11,0,0,1,1.66.52,1.62,1.62,0,0,1,.74.59,1.59,1.59,0,0,1,.27,1,1.87,1.87,0,0,1-.33,1.06,2.12,2.12,0,0,1-.94.77,3.46,3.46,0,0,1-1.4.27,3.07,3.07,0,0,1-2-.54A2.44,2.44,0,0,1,64.7,101.45Z"/><path class="cls-1" d="M79.36,103.43v-.84a2.06,2.06,0,0,1-1.85,1,2.63,2.63,0,0,1-1.46-.44,3,3,0,0,1-1-1.22,4.24,4.24,0,0,1-.36-1.79,4.73,4.73,0,0,1,.33-1.8,2.62,2.62,0,0,1,1-1.24,2.7,2.7,0,0,1,1.48-.43,2.16,2.16,0,0,1,1.06.26,2.09,2.09,0,0,1,.76.65V94.3H80.4v9.13Zm-3.55-3.3a2.87,2.87,0,0,0,.54,1.9,1.62,1.62,0,0,0,1.26.63,1.59,1.59,0,0,0,1.25-.6,2.82,2.82,0,0,0,.52-1.84,3.08,3.08,0,0,0-.53-2,1.6,1.6,0,0,0-1.29-.64,1.58,1.58,0,0,0-1.25.61A3.06,3.06,0,0,0,75.81,100.13Z"/><path class="cls-1" d="M86.69,101.3l1.16.14a2.86,2.86,0,0,1-1,1.58,3.05,3.05,0,0,1-1.89.56,3,3,0,0,1-2.3-.9,3.46,3.46,0,0,1-.85-2.5,3.6,3.6,0,0,1,.86-2.59,2.88,2.88,0,0,1,2.23-.93,2.83,2.83,0,0,1,2.16.91,3.59,3.59,0,0,1,.84,2.54v.3H82.94a2.61,2.61,0,0,0,.62,1.67,1.86,1.86,0,0,0,1.38.58,1.72,1.72,0,0,0,1.06-.33A2.13,2.13,0,0,0,86.69,101.3ZM83,99.49H86.7a2.29,2.29,0,0,0-.42-1.26,1.72,1.72,0,0,0-1.39-.64,1.79,1.79,0,0,0-1.3.51A2,2,0,0,0,83,99.49Z"/><path class="cls-1" d="M95.25,102.43l.16,1a4.74,4.74,0,0,1-.85.1,1.92,1.92,0,0,1-1-.2,1.1,1.1,0,0,1-.47-.51,4,4,0,0,1-.14-1.32v-3.8h-.82v-.88H93V95.18l1.12-.68v2.31h1.13v.88H94.12v3.86a2,2,0,0,0,.06.62.5.5,0,0,0,.19.22.8.8,0,0,0,.38.08C94.88,102.47,95,102.45,95.25,102.43Z"/><path class="cls-1" d="M96.33,103.43V96.81h1v1a2.75,2.75,0,0,1,.71-.93,1.26,1.26,0,0,1,.72-.23,2.18,2.18,0,0,1,1.15.36l-.38,1a1.57,1.57,0,0,0-.83-.25,1.14,1.14,0,0,0-.66.22,1.24,1.24,0,0,0-.41.62,4.19,4.19,0,0,0-.19,1.31v3.46Z"/><path class="cls-1" d="M104.91,102.61a4.26,4.26,0,0,1-1.2.75,3.41,3.41,0,0,1-1.24.22,2.41,2.41,0,0,1-1.67-.53,1.78,1.78,0,0,1-.59-1.37,1.74,1.74,0,0,1,.22-.88,1.83,1.83,0,0,1,.58-.65,3,3,0,0,1,.81-.37,9.31,9.31,0,0,1,1-.16,10.11,10.11,0,0,0,2-.39c0-.15,0-.25,0-.29a1.26,1.26,0,0,0-.32-1,1.9,1.9,0,0,0-1.28-.38,2,2,0,0,0-1.16.28,1.68,1.68,0,0,0-.56,1l-1.1-.15a2.72,2.72,0,0,1,.5-1.14,2.08,2.08,0,0,1,1-.66,4.29,4.29,0,0,1,1.5-.24,4,4,0,0,1,1.37.2,1.57,1.57,0,0,1,1.13,1.27,5.83,5.83,0,0,1,.06,1v1.5a15.34,15.34,0,0,0,.07,2,2.54,2.54,0,0,0,.28.8h-1.17A2.25,2.25,0,0,1,104.91,102.61Zm-.1-2.5a8.06,8.06,0,0,1-1.83.42,4,4,0,0,0-1,.23,1,1,0,0,0-.44.36,1,1,0,0,0-.15.53,1,1,0,0,0,.34.75,1.43,1.43,0,0,0,1,.3,2.42,2.42,0,0,0,1.15-.28,1.74,1.74,0,0,0,.74-.78,2.71,2.71,0,0,0,.18-1.12Z"/><path class="cls-1" d="M108.72,103.43h-1V94.3h1.12v3.26a2.21,2.21,0,0,1,1.81-.9,2.88,2.88,0,0,1,1.16.25,2.26,2.26,0,0,1,.89.69,3.24,3.24,0,0,1,.55,1.08,4.18,4.18,0,0,1,.2,1.34,3.79,3.79,0,0,1-.84,2.63,2.62,2.62,0,0,1-2,.93,2.1,2.1,0,0,1-1.84-1Zm0-3.36a3.4,3.4,0,0,0,.32,1.72,1.6,1.6,0,0,0,2.7.23,3.71,3.71,0,0,0,0-3.82,1.55,1.55,0,0,0-1.24-.61,1.62,1.62,0,0,0-1.27.63A2.81,2.81,0,0,0,108.71,100.07Z"/><path class="cls-1" d="M119.09,102.61a4.09,4.09,0,0,1-1.19.75,3.41,3.41,0,0,1-1.24.22,2.43,2.43,0,0,1-1.68-.53,1.77,1.77,0,0,1-.58-1.37,1.74,1.74,0,0,1,.22-.88,1.83,1.83,0,0,1,.58-.65,3,3,0,0,1,.81-.37,9.31,9.31,0,0,1,1-.16,10.27,10.27,0,0,0,2-.39c0-.15,0-.25,0-.29a1.26,1.26,0,0,0-.32-1,1.9,1.9,0,0,0-1.28-.38,2,2,0,0,0-1.16.28,1.63,1.63,0,0,0-.56,1l-1.1-.15a2.72,2.72,0,0,1,.49-1.14,2.19,2.19,0,0,1,1-.66,4.37,4.37,0,0,1,1.5-.24,4,4,0,0,1,1.38.2,2,2,0,0,1,.78.5,1.82,1.82,0,0,1,.35.77,6.14,6.14,0,0,1,0,1v1.5a14.62,14.62,0,0,0,.08,2,2.32,2.32,0,0,0,.28.8h-1.17A2.46,2.46,0,0,1,119.09,102.61Zm-.09-2.5a8.33,8.33,0,0,1-1.83.42,4,4,0,0,0-1,.23.93.93,0,0,0-.44.36,1,1,0,0,0-.16.53,1,1,0,0,0,.34.75,1.48,1.48,0,0,0,1,.3,2.42,2.42,0,0,0,1.15-.28,1.74,1.74,0,0,0,.74-.78,2.71,2.71,0,0,0,.18-1.12Z"/><path class="cls-1" d="M120.45,106l.21-.95a2.15,2.15,0,0,0,.53.09.59.59,0,0,0,.51-.23,2.34,2.34,0,0,0,.17-1.14v-7H123v7a3.29,3.29,0,0,1-.32,1.7,1.5,1.5,0,0,1-1.35.62A3.15,3.15,0,0,1,120.45,106Zm1.42-10.39V94.3H123v1.3Z"/><path class="cls-1" d="M124.29,100.12a3.42,3.42,0,0,1,1-2.72,3.08,3.08,0,0,1,2.08-.74,3,3,0,0,1,2.23.9,3.38,3.38,0,0,1,.87,2.47,4.32,4.32,0,0,1-.39,2,2.69,2.69,0,0,1-1.11,1.13,3.26,3.26,0,0,1-1.6.41,3,3,0,0,1-2.24-.89A3.53,3.53,0,0,1,124.29,100.12Zm1.15,0A2.8,2.8,0,0,0,126,102a1.83,1.83,0,0,0,2.78,0,2.88,2.88,0,0,0,.55-1.94,2.77,2.77,0,0,0-.55-1.86,1.85,1.85,0,0,0-2.78,0A2.8,2.8,0,0,0,125.44,100.12Z"/><path class="cls-1" d="M134.93,100.12a3.42,3.42,0,0,1,1-2.72,3.08,3.08,0,0,1,2.08-.74,3,3,0,0,1,2.23.9,3.38,3.38,0,0,1,.87,2.47,4.32,4.32,0,0,1-.39,2,2.75,2.75,0,0,1-1.11,1.13,3.26,3.26,0,0,1-1.6.41,3,3,0,0,1-2.25-.89A3.57,3.57,0,0,1,134.93,100.12Zm1.15,0a2.8,2.8,0,0,0,.55,1.9,1.8,1.8,0,0,0,1.4.64,1.78,1.78,0,0,0,1.39-.64,2.88,2.88,0,0,0,.55-1.94,2.77,2.77,0,0,0-.55-1.86,1.86,1.86,0,0,0-2.79,0A2.8,2.8,0,0,0,136.08,100.12Z"/><path class="cls-1" d="M150.3,102.61a4.26,4.26,0,0,1-1.2.75,3.37,3.37,0,0,1-1.24.22,2.42,2.42,0,0,1-1.67-.53,1.78,1.78,0,0,1-.59-1.37,1.85,1.85,0,0,1,.22-.88,1.83,1.83,0,0,1,.58-.65,3,3,0,0,1,.81-.37,9.15,9.15,0,0,1,1-.16,10.44,10.44,0,0,0,2-.39v-.29a1.22,1.22,0,0,0-.32-1,1.87,1.87,0,0,0-1.27-.38,2,2,0,0,0-1.17.28,1.68,1.68,0,0,0-.56,1l-1.09-.15a2.72,2.72,0,0,1,.49-1.14,2.19,2.19,0,0,1,1-.66,4.29,4.29,0,0,1,1.5-.24,4.11,4.11,0,0,1,1.38.2,1.84,1.84,0,0,1,.77.5,1.71,1.71,0,0,1,.35.77,5.83,5.83,0,0,1,.06,1v1.5a15.34,15.34,0,0,0,.07,2,2.54,2.54,0,0,0,.28.8h-1.17A2.46,2.46,0,0,1,150.3,102.61Zm-.09-2.5a8.31,8.31,0,0,1-1.84.42,3.92,3.92,0,0,0-1,.23,1,1,0,0,0-.45.36,1,1,0,0,0-.15.53,1,1,0,0,0,.34.75,1.45,1.45,0,0,0,1,.3,2.39,2.39,0,0,0,1.15-.28,1.76,1.76,0,0,0,.75-.78,2.71,2.71,0,0,0,.18-1.12Z"/><path class="cls-1" d="M160.94,101l1.1.14a2.83,2.83,0,0,1-.93,1.78,2.67,2.67,0,0,1-1.82.65,2.86,2.86,0,0,1-2.19-.89,3.59,3.59,0,0,1-.82-2.54,4.74,4.74,0,0,1,.35-1.88,2.49,2.49,0,0,1,1.08-1.2,3.21,3.21,0,0,1,1.58-.41,2.79,2.79,0,0,1,1.77.55,2.47,2.47,0,0,1,.87,1.55l-1.09.17a1.77,1.77,0,0,0-.55-1,1.43,1.43,0,0,0-.95-.33,1.75,1.75,0,0,0-1.38.6,2.92,2.92,0,0,0-.53,1.92,3,3,0,0,0,.51,1.94,1.68,1.68,0,0,0,1.33.61,1.6,1.6,0,0,0,1.11-.41A2,2,0,0,0,160.94,101Z"/><path class="cls-1" d="M163,103.43V96.81h1v1a2.63,2.63,0,0,1,.71-.93,1.26,1.26,0,0,1,.72-.23,2.18,2.18,0,0,1,1.15.36l-.39,1a1.51,1.51,0,0,0-.82-.25,1.14,1.14,0,0,0-.66.22,1.32,1.32,0,0,0-.42.62,4.51,4.51,0,0,0-.18,1.31v3.46Z"/><path class="cls-1" d="M171.78,101.3l1.15.14a2.85,2.85,0,0,1-1,1.58,3.1,3.1,0,0,1-1.9.56,3,3,0,0,1-2.3-.9,3.5,3.5,0,0,1-.85-2.5,3.65,3.65,0,0,1,.86-2.59,2.91,2.91,0,0,1,2.23-.93,2.84,2.84,0,0,1,2.17.91,3.59,3.59,0,0,1,.84,2.54c0,.07,0,.16,0,.3H168a2.56,2.56,0,0,0,.62,1.67,1.86,1.86,0,0,0,1.38.58,1.69,1.69,0,0,0,1.05-.33A2.21,2.21,0,0,0,171.78,101.3Zm-3.69-1.81h3.7a2.21,2.21,0,0,0-.43-1.26,1.7,1.7,0,0,0-1.38-.64,1.79,1.79,0,0,0-1.3.51A2.09,2.09,0,0,0,168.09,99.49Z"/><path class="cls-1" d="M178.66,102.61a4.26,4.26,0,0,1-1.2.75,3.41,3.41,0,0,1-1.24.22,2.42,2.42,0,0,1-1.67-.53,1.78,1.78,0,0,1-.59-1.37,1.85,1.85,0,0,1,.22-.88,1.83,1.83,0,0,1,.58-.65,3,3,0,0,1,.81-.37,9.31,9.31,0,0,1,1-.16,10.11,10.11,0,0,0,2-.39c0-.15,0-.25,0-.29a1.26,1.26,0,0,0-.32-1,1.87,1.87,0,0,0-1.27-.38,2,2,0,0,0-1.17.28,1.68,1.68,0,0,0-.56,1l-1.1-.15a2.72,2.72,0,0,1,.5-1.14,2.19,2.19,0,0,1,1-.66,4.29,4.29,0,0,1,1.5-.24,4,4,0,0,1,1.37.2,1.81,1.81,0,0,1,.78.5,1.71,1.71,0,0,1,.35.77,5.83,5.83,0,0,1,.06,1v1.5a15.34,15.34,0,0,0,.07,2,2.54,2.54,0,0,0,.28.8h-1.17A2.46,2.46,0,0,1,178.66,102.61Zm-.1-2.5a8.06,8.06,0,0,1-1.83.42,3.92,3.92,0,0,0-1,.23,1,1,0,0,0-.45.36,1,1,0,0,0-.15.53,1,1,0,0,0,.34.75,1.43,1.43,0,0,0,1,.3,2.39,2.39,0,0,0,1.15-.28,1.69,1.69,0,0,0,.74-.78,2.71,2.71,0,0,0,.18-1.12Z"/><path class="cls-1" d="M181.42,103.43V96.81h1v1a2.75,2.75,0,0,1,.72-.93,1.2,1.2,0,0,1,.71-.23A2.21,2.21,0,0,1,185,97l-.39,1a1.53,1.53,0,0,0-.82-.25,1.09,1.09,0,0,0-.66.22,1.19,1.19,0,0,0-.42.62,4.5,4.5,0,0,0-.19,1.31v3.46Z"/><path class="cls-1" d="M193.56,103.43v-1a2.43,2.43,0,0,1-2.1,1.12,2.66,2.66,0,0,1-1.09-.23,1.72,1.72,0,0,1-.75-.56,2.09,2.09,0,0,1-.35-.83,6.25,6.25,0,0,1-.07-1v-4.1h1.12v3.67a7.19,7.19,0,0,0,.07,1.19,1.17,1.17,0,0,0,.45.69,1.38,1.38,0,0,0,.85.25,1.76,1.76,0,0,0,.94-.26,1.38,1.38,0,0,0,.63-.7,3.61,3.61,0,0,0,.18-1.29V96.81h1.12v6.62Z"/><path class="cls-1" d="M196.32,103.43V96.81h1v.94a2.4,2.4,0,0,1,2.11-1.09,2.88,2.88,0,0,1,1.1.22,1.77,1.77,0,0,1,.75.56,2.2,2.2,0,0,1,.34.83,5.46,5.46,0,0,1,.07,1.09v4.07h-1.12v-4a2.92,2.92,0,0,0-.14-1,1,1,0,0,0-.46-.54,1.42,1.42,0,0,0-.78-.2,1.84,1.84,0,0,0-1.24.45,2.27,2.27,0,0,0-.52,1.73v3.61Z"/><path class="cls-1" d="M203,100.12a3.42,3.42,0,0,1,1-2.72,3.08,3.08,0,0,1,2.08-.74,3,3,0,0,1,2.23.9,3.38,3.38,0,0,1,.87,2.47,4.32,4.32,0,0,1-.39,2,2.69,2.69,0,0,1-1.11,1.13,3.26,3.26,0,0,1-1.6.41,3,3,0,0,1-2.25-.89A3.57,3.57,0,0,1,203,100.12Zm1.15,0a2.85,2.85,0,0,0,.55,1.9,1.8,1.8,0,0,0,1.4.64,1.78,1.78,0,0,0,1.39-.64,2.88,2.88,0,0,0,.55-1.94,2.77,2.77,0,0,0-.55-1.86,1.86,1.86,0,0,0-2.79,0A2.85,2.85,0,0,0,204.15,100.12Z"/><path class="cls-1" d="M214.05,103.43V96.81h1v.94a2.4,2.4,0,0,1,2.11-1.09,2.84,2.84,0,0,1,1.1.22,1.77,1.77,0,0,1,.75.56,2.39,2.39,0,0,1,.35.83,6.67,6.67,0,0,1,.06,1.09v4.07h-1.12v-4a3,3,0,0,0-.13-1,1,1,0,0,0-.47-.54,1.42,1.42,0,0,0-.78-.2,1.79,1.79,0,0,0-1.23.45,2.23,2.23,0,0,0-.52,1.73v3.61Z"/><path class="cls-1" d="M225.48,103.43v-1a2.43,2.43,0,0,1-2.1,1.12,2.66,2.66,0,0,1-1.09-.23,1.72,1.72,0,0,1-.75-.56,2.09,2.09,0,0,1-.35-.83,6.25,6.25,0,0,1-.07-1v-4.1h1.12v3.67a7.19,7.19,0,0,0,.07,1.19,1.17,1.17,0,0,0,.45.69,1.38,1.38,0,0,0,.85.25,1.81,1.81,0,0,0,.95-.26,1.41,1.41,0,0,0,.62-.7,3.61,3.61,0,0,0,.18-1.29V96.81h1.13v6.62Z"/><path class="cls-1" d="M232.77,101.3l1.16.14a2.81,2.81,0,0,1-1,1.58,3.05,3.05,0,0,1-1.89.56,3,3,0,0,1-2.3-.9,3.46,3.46,0,0,1-.85-2.5,3.65,3.65,0,0,1,.86-2.59,3.09,3.09,0,0,1,4.4,0,3.59,3.59,0,0,1,.84,2.54c0,.07,0,.16,0,.3H229a2.55,2.55,0,0,0,.61,1.67,1.86,1.86,0,0,0,1.39.58,1.69,1.69,0,0,0,1.05-.33A2.13,2.13,0,0,0,232.77,101.3Zm-3.68-1.81h3.69a2.29,2.29,0,0,0-.42-1.26,1.72,1.72,0,0,0-1.39-.64,1.8,1.8,0,0,0-1.3.51A2.08,2.08,0,0,0,229.09,99.49Z"/><path class="cls-1" d="M237.17,103.43l-2.51-6.62h1.18l1.42,4c.15.43.3.88.43,1.34.09-.35.23-.77.41-1.26l1.47-4h1.15l-2.5,6.62Z"/><path class="cls-1" d="M241.3,100.12a3.42,3.42,0,0,1,1-2.72,3.08,3.08,0,0,1,2.08-.74,3,3,0,0,1,2.23.9,3.38,3.38,0,0,1,.86,2.47,4.33,4.33,0,0,1-.38,2,2.75,2.75,0,0,1-1.11,1.13,3.26,3.26,0,0,1-1.6.41,3,3,0,0,1-2.25-.89A3.57,3.57,0,0,1,241.3,100.12Zm1.15,0A2.8,2.8,0,0,0,243,102a1.8,1.8,0,0,0,1.4.64,1.78,1.78,0,0,0,1.39-.64,2.88,2.88,0,0,0,.55-1.94,2.72,2.72,0,0,0-.56-1.86,1.76,1.76,0,0,0-1.38-.63,1.79,1.79,0,0,0-1.4.63A2.8,2.8,0,0,0,242.45,100.12Z"/><path class="cls-1" d="M249.13,103.43v-1.28h1.27v1.28Z"/><path class="cls-3" d="M2.4,167.52v-27a3.06,3.06,0,0,1,.23-1.15,3,3,0,0,1,.65-1,3,3,0,0,1,1-.65,3,3,0,0,1,1.14-.23H258.27a3,3,0,0,1,1.15.23,2.9,2.9,0,0,1,1,.65,3,3,0,0,1,.65,1,2.88,2.88,0,0,1,.23,1.15v27a2.8,2.8,0,0,1-.23,1.14,3,3,0,0,1-.65,1,2.9,2.9,0,0,1-1,.65,3,3,0,0,1-1.15.23H5.4a3,3,0,0,1-1.14-.23,3,3,0,0,1-1.63-1.63A3,3,0,0,1,2.4,167.52Z"/><path class="cls-4" d="M27.31,155.16l2.61.79a4.66,4.66,0,0,1-.83,1.84,3.47,3.47,0,0,1-1.4,1.12,5.3,5.3,0,0,1-2.14.37,6.32,6.32,0,0,1-2.58-.45,4.11,4.11,0,0,1-1.72-1.61,5.43,5.43,0,0,1-.73-3,5,5,0,0,1,1.28-3.69,4.88,4.88,0,0,1,3.61-1.28,4.94,4.94,0,0,1,2.87.73,4.36,4.36,0,0,1,1.55,2.27l-2.64.59a2.37,2.37,0,0,0-.29-.65,1.7,1.7,0,0,0-.61-.52,1.67,1.67,0,0,0-.81-.19,1.75,1.75,0,0,0-1.56.82,3.48,3.48,0,0,0-.41,1.9,3.69,3.69,0,0,0,.49,2.21,1.69,1.69,0,0,0,1.37.59,1.66,1.66,0,0,0,1.3-.48A3.09,3.09,0,0,0,27.31,155.16Z"/><path class="cls-4" d="M30.87,155.64A3.5,3.5,0,0,1,32,153a4,4,0,0,1,2.92-1,4,4,0,0,1,3.18,1.22,3.83,3.83,0,0,1-.21,5.07,4.11,4.11,0,0,1-3,1,4.15,4.15,0,0,1-2.73-.86A3.43,3.43,0,0,1,30.87,155.64Zm2.69,0a2.08,2.08,0,0,0,.38,1.39,1.21,1.21,0,0,0,1,.44,1.17,1.17,0,0,0,1-.44,2.15,2.15,0,0,0,.38-1.42,2.07,2.07,0,0,0-.38-1.35,1.16,1.16,0,0,0-.93-.45,1.21,1.21,0,0,0-1,.46A2.11,2.11,0,0,0,33.56,155.63Z"/><path class="cls-4" d="M40.21,152.12h2.5v1.14a3.65,3.65,0,0,1,1.13-1,3,3,0,0,1,1.4-.3,2.29,2.29,0,0,1,1.74.66,2.88,2.88,0,0,1,.63,2v4.45h-2.7v-3.85a1.4,1.4,0,0,0-.24-.93.85.85,0,0,0-.69-.28,1,1,0,0,0-.79.37,2.19,2.19,0,0,0-.3,1.33v3.36H40.21Z"/><path class="cls-4" d="M52.2,152.12h1.28v2H52.2v5H49.51v-5h-1v-2h1v-.32a5.41,5.41,0,0,1,.09-.94A1.91,1.91,0,0,1,50,150a1.77,1.77,0,0,1,.71-.53,3.4,3.4,0,0,1,1.34-.2,18.18,18.18,0,0,1,2.06.16l-.3,1.62A5.4,5.4,0,0,0,53,151a.86.86,0,0,0-.52.13.69.69,0,0,0-.23.38A3.91,3.91,0,0,0,52.2,152.12Z"/><path class="cls-4" d="M54.57,149.45h2.68v1.83H54.57Zm0,2.67h2.68v7H54.57Z"/><path class="cls-4" d="M59,152.12h2.52v1.14a2.74,2.74,0,0,1,.75-1,1.53,1.53,0,0,1,1-.28,2.81,2.81,0,0,1,1.3.37l-.83,1.91a2.19,2.19,0,0,0-.76-.2.92.92,0,0,0-.81.44,4.37,4.37,0,0,0-.42,2.29v2.35H59Z"/><path class="cls-4" d="M65,152.12h2.51v1a3.4,3.4,0,0,1,1.09-.91,3,3,0,0,1,1.33-.27,2.65,2.65,0,0,1,1.33.29,2.24,2.24,0,0,1,.8.89,4.06,4.06,0,0,1,1.15-.94,3.1,3.1,0,0,1,1.29-.24,2.27,2.27,0,0,1,1.75.67,2.91,2.91,0,0,1,.64,2.09v4.4H74.18v-4a1.16,1.16,0,0,0-.19-.71.81.81,0,0,0-.67-.36,1,1,0,0,0-.76.34,1.74,1.74,0,0,0-.29,1.11v3.61H69.58v-3.86a2.6,2.6,0,0,0,0-.62.89.89,0,0,0-.3-.43.79.79,0,0,0-.5-.16.93.93,0,0,0-.76.35,1.74,1.74,0,0,0-.3,1.15v3.57H65Z"/><path class="cls-4" d="M80.92,154.38l-2.57-.27a2.94,2.94,0,0,1,.42-1.05,2.21,2.21,0,0,1,.79-.67,3.24,3.24,0,0,1,1-.32A7.72,7.72,0,0,1,82,152a11.19,11.19,0,0,1,1.94.13,2.47,2.47,0,0,1,1.22.57,1.91,1.91,0,0,1,.54.84,3.08,3.08,0,0,1,.2,1v3.09a3.79,3.79,0,0,0,.06.77,3.33,3.33,0,0,0,.27.72H83.69a2.07,2.07,0,0,1-.2-.41,3.49,3.49,0,0,1-.09-.45,3.78,3.78,0,0,1-1.05.73,4.47,4.47,0,0,1-1.66.29,2.8,2.8,0,0,1-1.9-.58,2,2,0,0,1-.18-2.75,3.21,3.21,0,0,1,1.73-.76c1-.2,1.65-.34,2-.43a7.08,7.08,0,0,0,.95-.32.92.92,0,0,0-.2-.69,1.05,1.05,0,0,0-.72-.2,1.87,1.87,0,0,0-1,.21A1.14,1.14,0,0,0,80.92,154.38Zm2.32,1.42c-.37.13-.75.24-1.15.35a2.66,2.66,0,0,0-1,.42.7.7,0,0,0,0,1,1,1,0,0,0,.65.2,1.59,1.59,0,0,0,.83-.22,1.34,1.34,0,0,0,.55-.53,1.76,1.76,0,0,0,.16-.82Z"/><path class="cls-4" d="M87.5,152.12H90v1.14a2.74,2.74,0,0,1,.75-1,1.53,1.53,0,0,1,1-.28,2.81,2.81,0,0,1,1.3.37l-.83,1.91a2.19,2.19,0,0,0-.76-.2.92.92,0,0,0-.81.44,4.37,4.37,0,0,0-.42,2.29v2.35H87.5Z"/><path class="cls-4" d="M105.35,149.45v9.67h-2.51v-1a3.31,3.31,0,0,1-1,.89,2.62,2.62,0,0,1-1.29.31,2.48,2.48,0,0,1-2.18-1.09,4.49,4.49,0,0,1-.76-2.64,3.88,3.88,0,0,1,.83-2.67,2.76,2.76,0,0,1,2.12-.92,3,3,0,0,1,1.14.21,2.57,2.57,0,0,1,.91.63v-3.35Zm-2.69,6.15a1.86,1.86,0,0,0-.35-1.23,1.12,1.12,0,0,0-.88-.41,1,1,0,0,0-.79.39,2.11,2.11,0,0,0-.32,1.31,1.93,1.93,0,0,0,.33,1.25,1,1,0,0,0,.81.4,1.08,1.08,0,0,0,.86-.4A2.08,2.08,0,0,0,102.66,155.6Z"/><path class="cls-4" d="M107.08,149.45h2.69v1.83h-2.69Zm0,2.67h2.69v7h-2.69Z"/><path class="cls-4" d="M111.51,152.12H114v1.14a2.74,2.74,0,0,1,.75-1,1.57,1.57,0,0,1,1-.28,2.78,2.78,0,0,1,1.3.37l-.83,1.91a2.15,2.15,0,0,0-.75-.2,1,1,0,0,0-.82.44,4.49,4.49,0,0,0-.41,2.29v2.35h-2.7Z"/><path class="cls-4" d="M125.25,156.28h-5.38a1.81,1.81,0,0,0,.35,1,1.29,1.29,0,0,0,1,.45,1.46,1.46,0,0,0,.75-.2,1.84,1.84,0,0,0,.47-.44l2.64.25a3.8,3.8,0,0,1-1.46,1.51,5.25,5.25,0,0,1-2.46.46,5.05,5.05,0,0,1-2.19-.39,3.29,3.29,0,0,1-1.32-1.25,3.77,3.77,0,0,1-.53-2,3.55,3.55,0,0,1,1-2.66,4,4,0,0,1,2.91-1,5.21,5.21,0,0,1,2.37.45,3.19,3.19,0,0,1,1.33,1.32,4.89,4.89,0,0,1,.45,2.25ZM122.52,155a1.79,1.79,0,0,0-.42-1.12,1.31,1.31,0,0,0-1.91.18,1.82,1.82,0,0,0-.31.94Z"/><path class="cls-4" d="M131.71,156.38l2.55.29a3.59,3.59,0,0,1-.69,1.38,3.12,3.12,0,0,1-1.23.9,4.73,4.73,0,0,1-1.9.33,6.91,6.91,0,0,1-1.86-.21,3.34,3.34,0,0,1-1.28-.67,3.4,3.4,0,0,1-.83-1.09,3.72,3.72,0,0,1-.31-1.66,4,4,0,0,1,.37-1.8,3.35,3.35,0,0,1,.74-.95,3.41,3.41,0,0,1,1-.62,5.31,5.31,0,0,1,2-.32,4.62,4.62,0,0,1,2.61.61,3.24,3.24,0,0,1,1.26,1.79l-2.52.34a1.25,1.25,0,0,0-.43-.68,1.43,1.43,0,0,0-.85-.22,1.36,1.36,0,0,0-1.07.47,2.15,2.15,0,0,0-.42,1.45,1.9,1.9,0,0,0,.41,1.31,1.36,1.36,0,0,0,1,.45,1.43,1.43,0,0,0,.89-.27A1.63,1.63,0,0,0,131.71,156.38Z"/><path class="cls-4" d="M140.72,156.38l2.55.29a3.59,3.59,0,0,1-.69,1.38,3.12,3.12,0,0,1-1.23.9,4.76,4.76,0,0,1-1.9.33,6.91,6.91,0,0,1-1.86-.21,3.27,3.27,0,0,1-1.28-.67,3.4,3.4,0,0,1-.83-1.09,3.72,3.72,0,0,1-.31-1.66,3.87,3.87,0,0,1,.37-1.8,3.35,3.35,0,0,1,.74-.95,3.41,3.41,0,0,1,1-.62,5.29,5.29,0,0,1,2-.32,4.63,4.63,0,0,1,2.62.61,3.24,3.24,0,0,1,1.26,1.79l-2.52.34a1.21,1.21,0,0,0-.44-.68,1.42,1.42,0,0,0-.84-.22,1.39,1.39,0,0,0-1.08.47,2.2,2.2,0,0,0-.41,1.45,1.9,1.9,0,0,0,.41,1.31,1.34,1.34,0,0,0,1,.45,1.43,1.43,0,0,0,.89-.27A1.63,1.63,0,0,0,140.72,156.38Z"/><path class="cls-4" d="M144.6,149.45h2.69v1.83H144.6Zm0,2.67h2.69v7H144.6Z"/><path class="cls-4" d="M148.67,155.64a3.5,3.5,0,0,1,1.08-2.64,4,4,0,0,1,2.92-1,4,4,0,0,1,3.18,1.22,3.8,3.8,0,0,1-.21,5.07,4.77,4.77,0,0,1-5.69.17A3.46,3.46,0,0,1,148.67,155.64Zm2.69,0a2.14,2.14,0,0,0,.38,1.39,1.21,1.21,0,0,0,.95.44,1.18,1.18,0,0,0,1-.44,2.16,2.16,0,0,0,.37-1.42,2.07,2.07,0,0,0-.38-1.35,1.16,1.16,0,0,0-.93-.45,1.21,1.21,0,0,0-1,.46A2.11,2.11,0,0,0,151.36,155.63Zm1.26-6.34h2.31l-2.13,2h-1.29Z"/><path class="cls-4" d="M158,152.12h2.5v1.14a3.65,3.65,0,0,1,1.13-1,3,3,0,0,1,1.4-.3,2.31,2.31,0,0,1,1.75.66,2.88,2.88,0,0,1,.63,2v4.45h-2.7v-3.85a1.35,1.35,0,0,0-.25-.93.84.84,0,0,0-.68-.28,1,1,0,0,0-.79.37,2.11,2.11,0,0,0-.31,1.33v3.36H158Z"/><path class="cls-4" d="M178.9,149.45v9.67h-2.52v-1a3.29,3.29,0,0,1-1,.89,2.67,2.67,0,0,1-1.29.31,2.48,2.48,0,0,1-2.19-1.09,4.56,4.56,0,0,1-.75-2.64,3.83,3.83,0,0,1,.83-2.67,2.75,2.75,0,0,1,2.12-.92,3,3,0,0,1,1.14.21,2.54,2.54,0,0,1,.9.63v-3.35Zm-2.7,6.15a1.81,1.81,0,0,0-.35-1.23A1.1,1.1,0,0,0,175,154a1,1,0,0,0-.78.39,2.11,2.11,0,0,0-.32,1.31,1.93,1.93,0,0,0,.33,1.25,1,1,0,0,0,.8.4,1.07,1.07,0,0,0,.86-.4A2,2,0,0,0,176.2,155.6Z"/><path class="cls-4" d="M188.31,156.28h-5.38a1.73,1.73,0,0,0,.34,1,1.29,1.29,0,0,0,1,.45,1.43,1.43,0,0,0,.75-.2,1.69,1.69,0,0,0,.47-.44l2.64.25a3.8,3.8,0,0,1-1.46,1.51,5.25,5.25,0,0,1-2.46.46,5.05,5.05,0,0,1-2.19-.39,3.29,3.29,0,0,1-1.32-1.25,3.77,3.77,0,0,1-.53-2,3.52,3.52,0,0,1,1.06-2.66,4,4,0,0,1,2.9-1,5.25,5.25,0,0,1,2.38.45,3.11,3.11,0,0,1,1.32,1.32,4.89,4.89,0,0,1,.46,2.25ZM185.58,155a1.91,1.91,0,0,0-.42-1.12,1.25,1.25,0,0,0-.9-.33,1.22,1.22,0,0,0-1,.51,1.92,1.92,0,0,0-.31.94Z"/><path class="cls-4" d="M199.27,156.38l2.55.29a3.59,3.59,0,0,1-.69,1.38,3.12,3.12,0,0,1-1.23.9,4.78,4.78,0,0,1-1.91.33,6.88,6.88,0,0,1-1.85-.21,3.27,3.27,0,0,1-1.28-.67,3.58,3.58,0,0,1-.84-1.09,4.65,4.65,0,0,1,.07-3.46,3.35,3.35,0,0,1,.74-.95,3.41,3.41,0,0,1,1-.62,5.26,5.26,0,0,1,2-.32,4.63,4.63,0,0,1,2.62.61,3.24,3.24,0,0,1,1.26,1.79l-2.53.34a1.15,1.15,0,0,0-.43-.68,1.42,1.42,0,0,0-.84-.22,1.39,1.39,0,0,0-1.08.47,2.2,2.2,0,0,0-.41,1.45,1.9,1.9,0,0,0,.41,1.31,1.34,1.34,0,0,0,1,.45,1.45,1.45,0,0,0,.89-.27A1.63,1.63,0,0,0,199.27,156.38Z"/><path class="cls-4" d="M202.72,155.64A3.5,3.5,0,0,1,203.8,153a4,4,0,0,1,2.93-1,4,4,0,0,1,3.17,1.22,3.81,3.81,0,0,1-.2,5.07,4.78,4.78,0,0,1-5.7.17A3.46,3.46,0,0,1,202.72,155.64Zm2.69,0a2.14,2.14,0,0,0,.38,1.39,1.23,1.23,0,0,0,1,.44,1.18,1.18,0,0,0,.95-.44,2.16,2.16,0,0,0,.37-1.42,2.07,2.07,0,0,0-.37-1.35,1.22,1.22,0,0,0-1.9,0A2.05,2.05,0,0,0,205.41,155.63Z"/><path class="cls-4" d="M212.09,152.12h2.51v1.14a2.74,2.74,0,0,1,.75-1,1.55,1.55,0,0,1,1-.28,2.78,2.78,0,0,1,1.3.37l-.83,1.91a2.2,2.2,0,0,0-.75-.2.93.93,0,0,0-.82.44,4.39,4.39,0,0,0-.41,2.29v2.35h-2.7Z"/><path class="cls-4" d="M218.08,152.12h2.52v1.14a2.85,2.85,0,0,1,.74-1,1.58,1.58,0,0,1,1-.28,2.84,2.84,0,0,1,1.3.37l-.84,1.91a2.1,2.1,0,0,0-.75-.2,1,1,0,0,0-.82.44,4.49,4.49,0,0,0-.41,2.29v2.35h-2.7Z"/><path class="cls-4" d="M231.83,156.28h-5.39a1.81,1.81,0,0,0,.35,1,1.29,1.29,0,0,0,1,.45,1.46,1.46,0,0,0,.75-.2,1.69,1.69,0,0,0,.47-.44l2.64.25a3.8,3.8,0,0,1-1.46,1.51,5.25,5.25,0,0,1-2.46.46,5.05,5.05,0,0,1-2.19-.39,3.29,3.29,0,0,1-1.32-1.25,3.77,3.77,0,0,1-.53-2,3.52,3.52,0,0,1,1.06-2.66,4,4,0,0,1,2.9-1,5.25,5.25,0,0,1,2.38.45,3.11,3.11,0,0,1,1.32,1.32,4.89,4.89,0,0,1,.46,2.25ZM229.1,155a1.91,1.91,0,0,0-.42-1.12,1.25,1.25,0,0,0-.9-.33,1.22,1.22,0,0,0-1,.51,1.92,1.92,0,0,0-.31.94Z"/><path class="cls-4" d="M232.73,155.64a3.5,3.5,0,0,1,1.08-2.64,4.69,4.69,0,0,1,6.1.18,3.8,3.8,0,0,1-.21,5.07,4.77,4.77,0,0,1-5.69.17A3.46,3.46,0,0,1,232.73,155.64Zm2.69,0a2.14,2.14,0,0,0,.38,1.39,1.21,1.21,0,0,0,.95.44,1.18,1.18,0,0,0,1-.44,2.22,2.22,0,0,0,.37-1.42,2.07,2.07,0,0,0-.38-1.35,1.16,1.16,0,0,0-.93-.45,1.21,1.21,0,0,0-1,.46A2.11,2.11,0,0,0,235.42,155.63Z"/></g></g></svg>