<svg xmlns="http://www.w3.org/2000/svg" viewBox="0 0 584.64 475.91"><defs><style>.cls-1{fill:#e6e6e6;}.cls-2{fill:#fff;}.cls-3{fill:#3f3d56;}.cls-4{fill:#e8a723;}.cls-5{fill:#ffb8b8;}.cls-6{fill:#2f2e41;}.cls-7{fill:#d0cde1;}.cls-8{fill:#575a89;}.cls-9{opacity:0.2;isolation:isolate;}</style></defs><title>workspace</title><g id="Capa_2" data-name="Capa 2"><g id="b66c9c51-8109-402d-a3f9-100a5bb3d153"><rect class="cls-1" x="182.97" y="0.4" width="401.66" height="426.17"/><rect class="cls-2" x="245.19" y="60.91" width="254" height="261"/><ellipse class="cls-1" cx="104.42" cy="470.91" rx="104.42" ry="5"/><rect class="cls-2" x="182.67" width="401.97" height="29.89"/><circle class="cls-1" cx="204.88" cy="15.28" r="5.54"/><circle class="cls-1" cx="225.91" cy="15.28" r="5.54"/><circle class="cls-1" cx="246.94" cy="15.28" r="5.54"/><rect class="cls-1" x="284.09" y="225.78" width="176.54" height="8.05"/><rect class="cls-1" x="284.09" y="277.78" width="176.54" height="8.05"/><rect class="cls-3" x="372.51" y="375.21" width="17.18" height="17.18"/><rect class="cls-4" x="344.84" y="375.21" width="17.18" height="17.18"/><rect class="cls-3" x="317.16" y="375.21" width="17.18" height="17.18"/><rect class="cls-3" x="289.49" y="375.21" width="17.18" height="17.18"/><rect class="cls-3" x="261.81" y="375.21" width="17.18" height="17.18"/><path class="cls-5" d="M115.09,359.81l-2.86,1.43s-11.42,5.23-8.09,8.09,12.38-2.86,12.38-2.86l1.9-2.38Z"/><polygon class="cls-6" points="198.63 359.1 189.81 418.35 176.48 459.75 169.34 456.42 176 399.79 156.97 383.61 158.4 359.81 198.63 359.1"/><path class="cls-6" d="M168.39,457.85s8.09-4.29,8.57,1.9l-1,6.19s2.85,10.94-6.67,8.56-2.85-9.52-2.85-9.52Z"/><path class="cls-6" d="M163.16,378.37,157,383.6s0,32.37,4.28,37.13,31.41,29,32.36,30,5.24-9.52,5.24-9.52l-25.7-30,1.9-18.56Z"/><path class="cls-6" d="M196,439.76s7.62-1.43,7.62,3.81a113.66,113.66,0,0,0,.95,12.37s1.9,16.66-4.28,14.28-8.57-19-8.57-19a7.14,7.14,0,0,1,2.86-3.33C196.47,446.9,196,439.76,196,439.76Z"/><polygon class="cls-5" points="172.2 288.42 173.63 306.03 169.82 312.69 159.35 302.7 158.4 289.38 172.2 288.42"/><circle class="cls-5" cx="163.63" cy="282.71" r="11.42"/><polygon class="cls-7" points="168.39 305.56 173.15 291.76 181.72 301.27 197.42 361.71 185.52 368.85 180.29 361.24 179.34 371.23 156.02 366.47 154.11 302.7 158.87 296 168.39 305.56"/><polygon class="cls-6" points="161.73 373.13 158.87 296.04 152.69 300.8 141.26 308.41 148.88 335.54 151.26 364.09 161.73 373.13"/><polygon class="cls-6" points="144.6 308.89 141.26 308.41 131.75 336.49 112.71 360.29 119.85 367.9 141.74 346.48 149.83 328.88 144.6 308.89"/><path class="cls-5" d="M196.57,360.25l-.65,3.12s-3,12.21,1.33,11.36,5.43-11.48,5.43-11.48l-.69-3Z"/><polygon class="cls-6" points="172.41 290.98 195.99 300.32 193.14 328.88 198.85 360.29 193.14 366.47 172.02 295.03 172.41 290.98"/><path class="cls-6" d="M164.23,263.53l3.35-1.68v1.68l2.24-1.12v2.8s8.38,6.14,6.7,13.41-1.67,7.82-1.67,7.82-2.12-13.81-10.5-11.58-9.06,2.64-11.3,8.79l-.6,2.63S143,264.65,164.23,263.53Z"/><polygon class="cls-6" points="192.66 300.32 196.47 300.32 202.66 333.63 202.66 362.67 195.04 361.24 188.85 317.45 192.66 300.32"/><path class="cls-2" d="M73.7,416.55a8.92,8.92,0,1,0-8.92-8.91A8.91,8.91,0,0,0,73.7,416.55Z"/><path class="cls-2" d="M73.7,422.91c-6,0-17.7,3.28-17.84,9.22a21.47,21.47,0,0,0,35.67,0C91.39,426.19,79.64,422.91,73.7,422.91Z"/><path class="cls-2" d="M3.54,370.77v97.51H143.86V370.77ZM73.7,449.26a29.73,29.73,0,1,1,29.72-29.73A29.73,29.73,0,0,1,73.7,449.26Z"/><rect class="cls-1" x="284.19" y="90.91" width="176" height="101"/><ellipse class="cls-1" cx="447.97" cy="453.25" rx="45.5" ry="6.5"/><path class="cls-5" d="M411.37,267.22l.82-5.26s4.75-10.8,1-11.39-6.89,9.71-6.89,9.71l1.38,11Z"/><polygon class="cls-8" points="449.84 297.04 416.26 290.29 412.36 265.83 402.47 265.07 402.95 296.69 432.13 311.99 449.84 297.04"/><polygon class="cls-9" points="449.84 297.04 416.26 290.29 412.36 265.83 402.47 265.07 402.95 296.69 432.13 311.99 449.84 297.04"/><rect class="cls-4" x="284.09" y="251.78" width="176.54" height="8.05"/><path class="cls-5" d="M404.81,265.42v-5.33s3.05-11.4-.75-11.4-5.33,10.64-5.33,10.64l3,10.65Z"/><path class="cls-6" d="M448.52,280.66l4.61-1.12A11.87,11.87,0,0,0,465,267.69a11.74,11.74,0,0,0-.24-2.36h0a15.52,15.52,0,0,0-15.48-15.53h0a15.52,15.52,0,0,0-15.53,15.49h0a12.32,12.32,0,0,0,14.76,15.37Z"/><polygon class="cls-6" points="421.42 357.44 425.18 398.51 431.97 438.82 443.37 438.83 441.9 399.29 435.88 351.38 421.42 357.44"/><path class="cls-6" d="M433.49,436.54l-7.61,4.55s-12.17,1.51-9.89,5.31,28.89,1.56,28.89,0-.74-9.89-2.26-9.89Z"/><path class="cls-6" d="M455.09,353.9s-.21,5.87-5.55,15l.73,28.13,27.33,35-9.9,8.36-33.41-38.07L426,356.69l10.66-10.63Z"/><path class="cls-6" d="M475.32,432s9.12,1.53,7.6,5.33-5.35,21.29-15.24,19c0,0-4.56,0-3-3a53.71,53.71,0,0,1,3-5.32l0-9.89Z"/><circle class="cls-5" cx="443.59" cy="270.03" r="11.41"/><polygon class="cls-5" points="448.9 277.64 448.88 290.56 436.72 290.55 438.25 277.63 448.9 277.64"/><path class="cls-8" d="M433.68,286l3.69-.9,11.52.92s6.07,6.09,5.31,7.61-4.61,38.78-4.61,38.78L456.4,359l-24.33,1.49L419.9,359l2.34-47.9s-5.3-12.93,1.54-16.72A29.89,29.89,0,0,0,433.68,286Z"/><polygon class="cls-8" points="447.36 289.04 413.15 287.48 405.57 263.9 395.69 264.64 400.97 295.83 432.13 306.51 447.36 289.04"/><circle class="cls-6" cx="465.6" cy="254.27" r="7.36"/><path class="cls-6" d="M458.81,250.31a7.36,7.36,0,0,1,7.36-7.35,7.07,7.07,0,0,1,1.45.15,7.36,7.36,0,0,0-6.29,13.3,8.06,8.06,0,0,0,1.7.56A7.36,7.36,0,0,1,458.81,250.31Z"/><path class="cls-6" d="M452.5,254.48l-9.92-1.82L435,257.44a11.57,11.57,0,0,0-5.33,11.29l7.64-1.93,1.71-4.29,2,3.34,8.27,14.45,8.37-4.55,5.33-8.36Z"/><rect class="cls-2" x="371.19" y="39.95" width="2" height="202.92" transform="translate(64.29 393.83) rotate(-60.15)"/><rect class="cls-2" x="270.73" y="140.41" width="202.92" height="2" transform="translate(-21.01 203.98) rotate(-29.85)"/></g></g></svg>