<svg xmlns="http://www.w3.org/2000/svg" viewBox="0 0 226.64 226.64"><defs><style>.cls-1{fill:#2d8cff;}.cls-2{fill:#fff;}</style></defs><title>zoom icon</title><g id="Capa_2" data-name="Capa 2"><g id="Capa_1-2" data-name="Capa 1"><rect class="cls-1" width="226.64" height="226.64"/><path class="cls-2" d="M116.48,82.64c-8-.2-15.9,0-23.85,0v0c-8.29,0-16.57-.08-24.85,0-7.08.09-9.14,2.15-9.2,9.32-.09,10.44-.1,20.87,0,31.31.18,13.67,6.77,20.5,20.51,20.73,16.23.26,32.47.16,48.71.06,6.91,0,9.28-2.49,9.34-9.34.08-10.44.12-20.88,0-31.31C137,89.77,130.21,83,116.48,82.64Z"/><path class="cls-2" d="M168.11,113.32c0-7.44,0-14.88,0-22.32,0-2.61.33-5.6-2.75-6.88-2.76-1.15-4.71.79-6.62,2.37-3.58,2.94-7.16,5.9-10.69,8.91-3.75,3.2-5.9,10.63-6.14,17.92h0c.24,7.28,2.39,14.72,6.14,17.92,3.53,3,7.11,6,10.69,8.91,1.91,1.58,3.86,3.52,6.62,2.37,3.08-1.29,2.73-4.27,2.75-6.88C168.15,128.2,168.11,120.76,168.11,113.32Z"/></g></g></svg>